<?xml version="1.0" encoding="UTF-8" standalone="no"?>
<svg
   version="1.1"
   id="Ebene_1"
   x="0px"
   y="0px"
   viewBox="0 0 76 76"
   style="enable-background:new 0 0 76 76;"
   xml:space="preserve"
   xmlns="http://www.w3.org/2000/svg"><defs
   id="defs3" />&#10;<style
   type="text/css"
   id="style1">&#10;	.st0{fill:#10384F;}&#10;	.st1{fill:#89D329;}&#10;	.st2{fill:#00BCFF;}&#10;</style>&#10;<g
   id="Company_Logo">&#10;	&#10;	<path
   class="st1"
   d="M75.9,35.7C74.7,15.8,58.2,0,38,0C17.8,0,1.3,15.8,0.1,35.7c0.1,0.8,0.1,1.6,0.2,2.4   c0.8,6.6,3.3,12.7,7.1,17.8c6.9,9.4,18,15.5,30.6,15.5c-17.6,0-32-13.7-33.2-30.9c0-0.8-0.1-1.6-0.1-2.3s0-1.6,0.1-2.3   C6,18.4,20.4,4.7,38,4.7c12.6,0,23.7,6.1,30.6,15.5c3.8,5.1,6.3,11.2,7.1,17.8c0.1,0.8,0.2,1.5,0.2,2.3c0-0.8,0.1-1.6,0.1-2.4   S76,36.4,75.9,35.7"
   id="path2"
   style="fill:#762cd6;fill-opacity:1" />&#10;	<path
   class="st2"
   d="M0.1,40.4C1.3,60.2,17.8,76,38,76s36.7-15.8,37.9-35.7c-0.1-0.8-0.1-1.6-0.2-2.4c-0.8-6.6-3.3-12.7-7.1-17.8   C61.7,10.8,50.6,4.7,38,4.7c17.6,0,32,13.7,33.2,30.9c0.1,0.8,0.1,1.6,0.1,2.3s0,1.6-0.1,2.3C70,57.6,55.6,71.3,38,71.3   c-12.5,0-23.7-6.1-30.6-15.5C3.6,50.7,1.1,44.6,0.3,38c-0.1-0.8-0.2-1.5-0.2-2.3C0,36.4,0,37.2,0,38S0,39.6,0.1,40.4"
   id="path3"
   style="fill:#ff4300;fill-opacity:1" />&#10;<text
   xml:space="preserve"
   style="font-size:48px;line-height:1.25;font-family:sans-serif;-inkscape-font-specification:'sans-serif, Normal'"
   x="24.347656"
   y="55.800781"
   id="text3"><tspan
     id="tspan3"
     x="24.347656"
     y="55.800781"
     style="font-size:48px">?</tspan></text></g>&#10;</svg>
