<svg width="142" height="32" viewBox="0 0 142 32" fill="none" xmlns="http://www.w3.org/2000/svg">
<path d="M31.1502 15.534C31.1502 15.2471 31.1502 14.9191 31.1091 14.5914C30.6172 6.47582 23.8545 0 15.5751 0C7.29569 0 0.53298 6.47582 0.0411183 14.5914C0.0411183 14.9194 0.0822366 15.2471 0.123043 15.5751C0.0819251 15.2471 0.0411183 14.9194 0.0411183 14.6325C0.0411183 14.9605 0 15.2882 0 15.6162C0 15.9031 0 16.2311 0.0411183 16.5588C0.53298 24.6744 7.29569 31.1502 15.5751 31.1502C23.8545 31.1502 30.6172 24.6744 31.1091 16.5588C31.1091 16.2321 31.0683 15.905 31.0275 15.5782C31.0683 15.905 31.1091 16.2321 31.1091 16.518C31.1091 16.19 31.1502 15.8623 31.1502 15.5343V15.534ZM15.7673 1.92789C22.8935 2.02663 28.6953 7.60439 29.1828 14.5914C29.2239 14.9194 29.2239 15.2471 29.2239 15.5751C29.2239 15.9031 29.2239 16.2308 29.1828 16.5588C28.6909 23.6496 22.7889 29.2239 15.5751 29.2239C15.5109 29.2239 15.4468 29.2233 15.3826 29.2223C8.25668 29.1236 2.45464 23.5458 1.96714 16.5588C1.92602 16.2308 1.92602 15.9031 1.92602 15.5751C1.92602 15.2471 1.92602 14.9194 1.96714 14.5914C2.45931 7.54178 8.36134 1.92633 15.5751 1.92633C15.6393 1.92633 15.7035 1.92695 15.7673 1.92789Z" fill="#000C17"/>
<path d="M17.9521 5.98417C17.9521 5.61535 17.7883 5.28734 17.5422 5.04156C17.7061 4.83659 17.8291 4.5497 17.8702 4.26281C17.8702 3.56597 17.2964 2.99219 16.5996 2.99219H13.6484V7.29559H16.6404C17.3781 7.29559 17.9521 6.7218 17.9521 5.98385V5.98417ZM14.6322 3.89367H16.4354C16.6404 3.89367 16.8043 4.05752 16.8043 4.26249C16.8043 4.46746 16.6404 4.63131 16.4354 4.63131H14.6322V3.89367ZM14.6322 6.35298V5.53311H16.4766C16.7223 5.53311 16.8865 5.69696 16.8865 5.94305C16.8865 6.18913 16.7227 6.35298 16.4766 6.35298H14.6322Z" fill="#000C17"/>
<path d="M14.3866 11.6813H16.8048L17.1328 12.419H18.2396L16.0672 8.11523H15.0834L12.9521 12.419H14.0589L14.3869 11.6813H14.3866ZM15.5753 9.222L16.3129 10.7795H14.8374L15.575 9.222H15.5753Z" fill="#000C17"/>
<path d="M15.6156 15.3295L14.14 13.3621H12.9102L15.0826 16.1491V17.6658H16.1074V16.1491L18.2795 13.3621H17.05L15.6156 15.3295Z" fill="#000C17"/>
<path d="M28.0345 14.7146C28.0345 13.977 27.4607 13.3621 26.7228 13.3621H24.0996V17.6658H25.1241V16.0263H25.9029L27.1324 17.6658H28.3619L27.0913 15.9852C27.6243 15.8214 28.0339 15.3295 28.0339 14.7146H28.0345ZM26.6408 15.0834H25.1653V14.2635H26.6408C26.8458 14.2635 27.0508 14.4685 27.0508 14.6735C27.0508 14.8785 26.8869 15.0834 26.6408 15.0834Z" fill="#000C17"/>
<path d="M7.37773 14.6327C7.37773 13.9358 6.80394 13.3621 6.10711 13.3621H3.15625V17.6658H6.14823C6.88586 17.6658 7.45996 17.092 7.45996 16.354C7.45996 15.9852 7.29611 15.6572 7.05003 15.4114C7.21388 15.2065 7.33692 14.9196 7.37804 14.6327H7.37773ZM4.13966 14.2639H5.94295C6.14792 14.2639 6.31177 14.4277 6.31177 14.6327C6.31177 14.8376 6.14792 15.0015 5.94295 15.0015H4.13966V14.2639ZM5.98407 16.7232H4.13966V15.9033H5.98407C6.22984 15.9033 6.394 16.0671 6.394 16.3132C6.394 16.5593 6.23015 16.7232 5.98407 16.7232Z" fill="#000C17"/>
<path d="M10.2065 13.3621L8.0752 17.6658H9.18196L9.50997 16.9281H11.9282L12.2562 17.6658H13.3629L11.1905 13.3621H10.2068H10.2065ZM9.96072 16.0263L10.6984 14.4688L11.436 16.0263H9.96041H9.96072Z" fill="#000C17"/>
<path d="M18.8545 17.6658H22.7483V16.7406H19.8793V15.936H22.6663V15.0112H19.8793V14.2869H22.7483V13.3621H18.8545V17.6658Z" fill="#000C17"/>
<path d="M17.5423 25.2888C17.5423 24.5512 16.9685 23.9363 16.2306 23.9363H13.6074V28.24H14.632V26.6006H15.4107L16.6402 28.24H17.8697L16.5991 26.5594C17.1321 26.3956 17.5417 25.9037 17.5417 25.2888H17.5423ZM16.1487 25.6576H14.6731V24.8378H16.1487C16.3536 24.8378 16.5586 25.0427 16.5586 25.2477C16.5586 25.4527 16.3947 25.6576 16.1487 25.6576Z" fill="#000C17"/>
<path d="M17.5422 19.5238V18.5986H13.6484V22.9023H17.5422V21.9772H14.673V21.1729H17.4603V20.2477H14.673V19.5238H17.5422Z" fill="#000C17"/>
<path d="M93.1012 23.5726L93.3931 22.1798H94.7776C94.9888 22.1798 95.1556 22.2243 95.278 22.3133C95.4058 22.3967 95.4698 22.5551 95.4698 22.7887C95.4698 23.05 95.3808 23.2474 95.2029 23.3808C95.0305 23.5087 94.8248 23.5726 94.5857 23.5726H93.1012ZM92.3423 21.1624L91.0996 27.1171H94.2688C94.5691 27.1171 94.8554 27.0754 95.1278 26.992C95.4003 26.9086 95.6421 26.7863 95.8534 26.6251C96.0647 26.4638 96.2315 26.2609 96.3538 26.0162C96.4817 25.7716 96.5456 25.488 96.5456 25.1656C96.5456 24.8764 96.4678 24.6235 96.3121 24.4066C96.162 24.1842 95.9452 24.0341 95.6616 23.9563V23.9396C95.8395 23.9173 95.9952 23.8645 96.1286 23.7811C96.2676 23.6977 96.3844 23.5949 96.4789 23.4725C96.579 23.3447 96.6541 23.2029 96.7041 23.0472C96.7541 22.886 96.7792 22.7219 96.7792 22.5551C96.7792 22.2716 96.7347 22.0408 96.6457 21.8629C96.5568 21.6794 96.4289 21.5377 96.2621 21.4376C96.0953 21.3319 95.8923 21.2597 95.6533 21.2207C95.4142 21.1818 95.1445 21.1624 94.8443 21.1624H92.3423ZM92.5675 26.0996L92.9177 24.465H94.2021C94.3189 24.465 94.4384 24.4706 94.5607 24.4817C94.683 24.4928 94.7942 24.5234 94.8943 24.5734C94.9944 24.6179 95.075 24.6846 95.1362 24.7736C95.2029 24.8625 95.2363 24.9849 95.2363 25.1405C95.2363 25.4575 95.139 25.6965 94.9444 25.8578C94.7553 26.019 94.5107 26.0996 94.2104 26.0996H92.5675Z" fill="#BFBFBF"/>
<path d="M98.9449 21.1624L97.7022 27.1171H102.289L102.523 26.0162H99.2368L99.5454 24.5567H102.539L102.756 23.5393H99.7622L100.029 22.2632H103.265L103.49 21.1624H98.9449Z" fill="#BFBFBF"/>
<path d="M106.192 22.2632L105.175 27.1171H106.493L107.51 22.2632H109.295L109.528 21.1624H104.558L104.324 22.2632H106.192Z" fill="#BFBFBF"/>
<path d="M111.668 21.1624L108.157 27.1171H109.533L110.283 25.7911H112.51L112.702 27.1171H114.003L113.011 21.1624H111.668ZM110.8 24.8153L112.085 22.4467H112.101L112.393 24.8153H110.8Z" fill="#BFBFBF"/>
<g clip-path="url(#clip0_1417_140429)">
<path d="M87.485 17.1555C86.5571 17.1555 85.8047 17.8816 85.8047 18.7772C85.8047 19.6727 86.5571 20.3989 87.485 20.3989C88.4129 20.3989 89.1653 19.6727 89.1653 18.7772C89.1653 17.8816 88.4129 17.1555 87.485 17.1555ZM87.485 20.1238C86.7146 20.1238 86.0897 19.5207 86.0897 18.7772C86.0897 18.0337 86.7146 17.4306 87.485 17.4306C88.2554 17.4306 88.8802 18.0337 88.8802 18.7772C88.8802 19.5207 88.2554 20.1238 87.485 20.1238ZM87.506 18.1955C87.7048 18.1955 87.8398 18.3178 87.8548 18.4974C87.8559 18.5126 87.869 18.5242 87.8848 18.5242H88.0975C88.1072 18.5242 88.1151 18.5166 88.1151 18.5072C88.1151 18.1933 87.8585 17.9736 87.5049 17.9736C87.0927 17.9736 86.8549 18.2422 86.8549 18.686V18.8753C86.8549 19.3158 87.0927 19.5808 87.5049 19.5808C87.8574 19.5808 88.1151 19.3679 88.1151 19.0689C88.1151 19.0595 88.1072 19.0519 88.0975 19.0519H87.8844C87.8687 19.0519 87.8559 19.0635 87.8544 19.0784C87.8387 19.2452 87.704 19.36 87.5056 19.36C87.2607 19.36 87.1227 19.1866 87.1227 18.8764V18.686C87.123 18.371 87.2614 18.1955 87.506 18.1955Z" fill="#262626"/>
</g>
<path d="M41.1182 3.95443H43.4015L45.9572 11.2065H45.9832L48.4741 3.95443H50.7314V13.2174H49.1876V6.06909H49.1617L46.5929 13.2174H45.2567L42.6879 6.06909H42.662V13.2174H41.1182V3.95443Z" fill="#000C17"/>
<path d="M57.0711 9.27351C57.0538 9.03999 57.002 8.81512 56.9155 8.5989C56.8376 8.38268 56.7252 8.19672 56.5782 8.04104C56.4398 7.87671 56.2668 7.74698 56.0592 7.65184C55.8603 7.54806 55.6354 7.49616 55.3846 7.49616C55.1251 7.49616 54.8873 7.54373 54.6711 7.63887C54.4635 7.72536 54.2819 7.85077 54.1262 8.0151C53.9792 8.17078 53.8581 8.35673 53.7629 8.57295C53.6764 8.78918 53.6289 9.0227 53.6202 9.27351H57.0711ZM53.6202 10.2465C53.6202 10.506 53.6548 10.7568 53.724 10.999C53.8019 11.2411 53.9143 11.453 54.0613 11.6347C54.2084 11.8163 54.3943 11.9633 54.6192 12.0758C54.8441 12.1795 55.1122 12.2314 55.4235 12.2314C55.856 12.2314 56.2019 12.1406 56.4614 11.959C56.7295 11.7687 56.9284 11.4876 57.0582 11.1157H58.4593C58.3815 11.479 58.2474 11.8033 58.0571 12.0887C57.8668 12.3741 57.6377 12.6163 57.3695 12.8152C57.1014 13.0055 56.7987 13.1482 56.4614 13.2434C56.1327 13.3472 55.7868 13.399 55.4235 13.399C54.8959 13.399 54.4289 13.3126 54.0224 13.1396C53.6159 12.9666 53.27 12.7244 52.9845 12.4131C52.7078 12.1017 52.4959 11.7298 52.3488 11.2974C52.2105 10.8649 52.1413 10.3892 52.1413 9.87029C52.1413 9.3946 52.2148 8.94486 52.3618 8.52106C52.5175 8.08861 52.7337 7.71239 53.0105 7.39238C53.2959 7.06372 53.6375 6.80425 54.0354 6.61397C54.4332 6.4237 54.883 6.32856 55.3846 6.32856C55.9122 6.32856 56.3836 6.441 56.7987 6.66587C57.2225 6.88209 57.5728 7.17183 57.8496 7.53508C58.1263 7.89834 58.3252 8.31781 58.4463 8.7935C58.5761 9.26054 58.6107 9.74488 58.5501 10.2465H53.6202Z" fill="#000C17"/>
<path d="M65.9925 13.2174H64.5913V12.3093H64.5654C64.3665 12.6985 64.0767 12.9796 63.6962 13.1526C63.3156 13.3169 62.9135 13.399 62.4897 13.399C61.9621 13.399 61.4994 13.3082 61.1015 13.1266C60.7123 12.9363 60.388 12.6812 60.1285 12.3612C59.869 12.0412 59.6744 11.6649 59.5447 11.2325C59.415 10.7914 59.3501 10.32 59.3501 9.8184C59.3501 9.21297 59.4323 8.68971 59.5966 8.24862C59.7609 7.80752 59.9771 7.44427 60.2453 7.15886C60.522 6.87344 60.8334 6.66587 61.1793 6.53613C61.534 6.39775 61.8929 6.32856 62.2561 6.32856C62.4637 6.32856 62.6756 6.35018 62.8918 6.39343C63.1081 6.42802 63.3156 6.48856 63.5146 6.57505C63.7135 6.66154 63.8951 6.77398 64.0594 6.91236C64.2324 7.04209 64.3751 7.19778 64.4876 7.3794H64.5135V3.95443H65.9925V13.2174ZM60.8291 9.93516C60.8291 10.2206 60.8637 10.5017 60.9329 10.7784C61.0107 11.0552 61.1231 11.3017 61.2702 11.5179C61.4258 11.7341 61.6204 11.9071 61.854 12.0368C62.0875 12.1666 62.3642 12.2314 62.6843 12.2314C63.0129 12.2314 63.294 12.1623 63.5275 12.0239C63.7697 11.8855 63.9643 11.7039 64.1113 11.479C64.267 11.2541 64.3794 11.0033 64.4486 10.7265C64.5265 10.4411 64.5654 10.1514 64.5654 9.85732C64.5654 9.11351 64.3967 8.53403 64.0594 8.11888C63.7308 7.70374 63.281 7.49616 62.7102 7.49616C62.3642 7.49616 62.0702 7.56968 61.828 7.71671C61.5945 7.85509 61.3999 8.04104 61.2442 8.27456C61.0972 8.49944 60.9891 8.7589 60.9199 9.05297C60.8593 9.33838 60.8291 9.63244 60.8291 9.93516Z" fill="#000C17"/>
<path d="M67.6443 3.95443H69.1233V5.35556H67.6443V3.95443ZM67.6443 6.51019H69.1233V13.2174H67.6443V6.51019Z" fill="#000C17"/>
<path d="M75.2624 8.75458C75.2019 8.33943 75.0332 8.02807 74.7565 7.8205C74.4884 7.60427 74.1467 7.49616 73.7316 7.49616C73.5413 7.49616 73.3381 7.53076 73.1218 7.59995C72.9056 7.66049 72.7067 7.78158 72.5251 7.9632C72.3434 8.13618 72.1921 8.38268 72.071 8.70269C71.9499 9.01405 71.8894 9.42487 71.8894 9.93516C71.8894 10.2119 71.9196 10.4887 71.9802 10.7655C72.0494 11.0422 72.1532 11.2887 72.2915 11.5049C72.4386 11.7212 72.6245 11.8985 72.8494 12.0368C73.0743 12.1666 73.3467 12.2314 73.6667 12.2314C74.0992 12.2314 74.4538 12.0974 74.7305 11.8293C75.0159 11.5612 75.1933 11.1849 75.2624 10.7006H76.7414C76.603 11.5741 76.27 12.2444 75.7425 12.7115C75.2235 13.1698 74.5316 13.399 73.6667 13.399C73.1391 13.399 72.6721 13.3126 72.2656 13.1396C71.8677 12.958 71.5304 12.7158 71.2537 12.4131C70.9769 12.1017 70.765 11.7341 70.618 11.3103C70.4796 10.8865 70.4104 10.4281 70.4104 9.93516C70.4104 9.43352 70.4796 8.96215 70.618 8.52106C70.7564 8.07996 70.9639 7.69941 71.2407 7.3794C71.5175 7.05074 71.8591 6.7956 72.2656 6.61397C72.6807 6.4237 73.1651 6.32856 73.7186 6.32856C74.1078 6.32856 74.4754 6.38045 74.8213 6.48424C75.176 6.57938 75.4873 6.72641 75.7554 6.92533C76.0322 7.12426 76.2571 7.37508 76.43 7.67779C76.603 7.9805 76.7068 8.33943 76.7414 8.75458H75.2624Z" fill="#000C17"/>
<path d="M83.561 11.7255C83.561 11.9071 83.5827 12.0368 83.6259 12.1147C83.6778 12.1925 83.7729 12.2314 83.9113 12.2314C83.9546 12.2314 84.0065 12.2314 84.067 12.2314C84.1275 12.2314 84.1967 12.2228 84.2746 12.2055V13.2304C84.2227 13.2477 84.1535 13.265 84.067 13.2823C83.9892 13.3082 83.907 13.3299 83.8205 13.3472C83.734 13.3644 83.6475 13.3774 83.561 13.3861C83.4745 13.3947 83.401 13.399 83.3405 13.399C83.0378 13.399 82.787 13.3385 82.588 13.2174C82.3891 13.0963 82.2594 12.8844 82.1988 12.5817C81.9048 12.8671 81.5415 13.0747 81.1091 13.2044C80.6853 13.3342 80.2745 13.399 79.8766 13.399C79.5739 13.399 79.2842 13.3558 79.0074 13.2693C78.7306 13.1915 78.4841 13.0747 78.2679 12.919C78.0603 12.7547 77.8917 12.5515 77.7619 12.3093C77.6409 12.0585 77.5803 11.7687 77.5803 11.4401C77.5803 11.0249 77.6538 10.6876 77.8009 10.4281C77.9565 10.1687 78.1555 9.96543 78.3976 9.8184C78.6485 9.67136 78.9252 9.56758 79.2279 9.50704C79.5393 9.43784 79.8507 9.38595 80.162 9.35135C80.4301 9.29946 80.6853 9.26486 80.9274 9.24757C81.1696 9.22162 81.3815 9.1827 81.5631 9.13081C81.7534 9.07891 81.9004 9.00107 82.0042 8.89729C82.1167 8.78485 82.1729 8.62052 82.1729 8.4043C82.1729 8.21402 82.1253 8.05834 82.0302 7.93726C81.9437 7.81617 81.8313 7.72536 81.6929 7.66482C81.5631 7.59563 81.4161 7.55238 81.2518 7.53508C81.0874 7.50914 80.9318 7.49616 80.7847 7.49616C80.3696 7.49616 80.028 7.58265 79.7598 7.75563C79.4917 7.92861 79.3404 8.19672 79.3058 8.55998H77.8268C77.8528 8.12753 77.9565 7.7686 78.1382 7.48319C78.3198 7.19778 78.549 6.96858 78.8258 6.7956C79.1112 6.62262 79.4312 6.50154 79.7858 6.43235C80.1404 6.36316 80.5037 6.32856 80.8756 6.32856C81.2042 6.32856 81.5285 6.36316 81.8486 6.43235C82.1686 6.50154 82.454 6.61397 82.7048 6.76965C82.9643 6.92533 83.1718 7.12858 83.3275 7.3794C83.4832 7.62157 83.561 7.91996 83.561 8.27456V11.7255ZM82.0821 9.85732C81.8572 10.0043 81.5804 10.0952 81.2518 10.1298C80.9231 10.1557 80.5945 10.1989 80.2658 10.2595C80.1101 10.2854 79.9588 10.3244 79.8117 10.3763C79.6647 10.4195 79.535 10.4844 79.4225 10.5709C79.3101 10.6487 79.2193 10.7568 79.1501 10.8952C79.0896 11.0249 79.0593 11.1849 79.0593 11.3752C79.0593 11.5395 79.1068 11.6779 79.202 11.7903C79.2971 11.9028 79.4096 11.9936 79.5393 12.0628C79.6777 12.1233 79.8247 12.1666 79.9804 12.1925C80.1447 12.2185 80.2918 12.2314 80.4215 12.2314C80.5858 12.2314 80.7631 12.2098 80.9534 12.1666C81.1437 12.1233 81.321 12.0498 81.4853 11.946C81.6583 11.8422 81.801 11.7125 81.9134 11.5568C82.0259 11.3925 82.0821 11.1936 82.0821 10.9601V9.85732Z" fill="#000C17"/>
<path d="M85.1913 3.95443H86.6703V13.2174H85.1913V3.95443Z" fill="#000C17"/>
<path d="M98.3532 6.89939C98.284 6.63127 98.1889 6.38478 98.0678 6.15991C97.9467 5.93503 97.791 5.74043 97.6008 5.5761C97.4105 5.41177 97.1856 5.28637 96.9261 5.19988C96.6753 5.10474 96.3813 5.05717 96.0439 5.05717C95.551 5.05717 95.1228 5.15663 94.7596 5.35556C94.405 5.55448 94.1152 5.8226 93.8904 6.15991C93.6655 6.48856 93.4968 6.86479 93.3844 7.28859C93.2806 7.71239 93.2287 8.14483 93.2287 8.58593C93.2287 9.02702 93.2806 9.45947 93.3844 9.88326C93.4968 10.3071 93.6655 10.6876 93.8904 11.0249C94.1152 11.3536 94.405 11.6174 94.7596 11.8163C95.1228 12.0152 95.551 12.1147 96.0439 12.1147C96.4072 12.1147 96.7272 12.0541 97.004 11.9331C97.2807 11.8033 97.5186 11.6303 97.7175 11.4141C97.9164 11.1892 98.0721 10.9298 98.1846 10.6357C98.297 10.3417 98.3705 10.026 98.4051 9.68866H99.9879C99.9533 10.2422 99.8322 10.7482 99.6246 11.2065C99.4257 11.6649 99.1532 12.0628 98.8073 12.4001C98.4613 12.7288 98.0548 12.9839 97.5878 13.1655C97.1207 13.3472 96.6061 13.438 96.0439 13.438C95.352 13.438 94.7293 13.3126 94.1758 13.0617C93.6309 12.8023 93.1682 12.452 92.7876 12.0109C92.4071 11.5698 92.113 11.0552 91.9054 10.4671C91.7065 9.87894 91.6071 9.25189 91.6071 8.58593C91.6071 7.92861 91.7065 7.30589 91.9054 6.71776C92.113 6.12963 92.4071 5.61502 92.7876 5.17393C93.1682 4.73284 93.6309 4.38255 94.1758 4.12309C94.7293 3.86362 95.352 3.73389 96.0439 3.73389C96.5629 3.73389 97.0515 3.8074 97.5099 3.95443C97.9683 4.09282 98.3705 4.30039 98.7165 4.57716C99.0711 4.84527 99.3565 5.17393 99.5727 5.56313C99.7889 5.95233 99.923 6.39775 99.9749 6.89939H98.3532Z" fill="#000C17"/>
<path d="M104.33 13.399C103.794 13.399 103.314 13.3126 102.89 13.1396C102.475 12.958 102.12 12.7115 101.826 12.4001C101.541 12.0887 101.32 11.7168 101.164 11.2844C101.017 10.8519 100.944 10.3762 100.944 9.85732C100.944 9.34703 101.017 8.87566 101.164 8.44322C101.32 8.01077 101.541 7.63887 101.826 7.32751C102.12 7.01615 102.475 6.77398 102.89 6.601C103.314 6.41937 103.794 6.32856 104.33 6.32856C104.866 6.32856 105.342 6.41937 105.757 6.601C106.181 6.77398 106.535 7.01615 106.821 7.32751C107.115 7.63887 107.335 8.01077 107.482 8.44322C107.638 8.87566 107.716 9.34703 107.716 9.85732C107.716 10.3762 107.638 10.8519 107.482 11.2844C107.335 11.7168 107.115 12.0887 106.821 12.4001C106.535 12.7115 106.181 12.958 105.757 13.1396C105.342 13.3126 104.866 13.399 104.33 13.399ZM104.33 12.2314C104.658 12.2314 104.944 12.1623 105.186 12.0239C105.428 11.8855 105.627 11.7039 105.783 11.479C105.938 11.2541 106.051 11.0033 106.12 10.7265C106.198 10.4411 106.237 10.1514 106.237 9.85732C106.237 9.5719 106.198 9.28649 106.12 9.00107C106.051 8.71566 105.938 8.46484 105.783 8.24862C105.627 8.02375 105.428 7.84212 105.186 7.70374C104.944 7.56535 104.658 7.49616 104.33 7.49616C104.001 7.49616 103.716 7.56535 103.474 7.70374C103.231 7.84212 103.032 8.02375 102.877 8.24862C102.721 8.46484 102.604 8.71566 102.526 9.00107C102.457 9.28649 102.423 9.5719 102.423 9.85732C102.423 10.1514 102.457 10.4411 102.526 10.7265C102.604 11.0033 102.721 11.2541 102.877 11.479C103.032 11.7039 103.231 11.8855 103.474 12.0239C103.716 12.1623 104.001 12.2314 104.33 12.2314Z" fill="#000C17"/>
<path d="M108.945 6.51019H110.346V7.49616L110.372 7.52211C110.597 7.15021 110.891 6.86047 111.255 6.65289C111.618 6.43667 112.02 6.32856 112.461 6.32856C113.196 6.32856 113.776 6.51884 114.2 6.89939C114.623 7.27994 114.835 7.85077 114.835 8.61187V13.2174H113.356V9.00107C113.339 8.47349 113.227 8.09294 113.019 7.85942C112.811 7.61725 112.487 7.49616 112.046 7.49616C111.795 7.49616 111.57 7.54373 111.371 7.63887C111.172 7.72536 111.004 7.85077 110.865 8.0151C110.727 8.17078 110.619 8.35673 110.541 8.57295C110.463 8.78918 110.424 9.01837 110.424 9.26054V13.2174H108.945V6.51019Z" fill="#000C17"/>
<path d="M120.923 8.75458C120.862 8.33943 120.693 8.02807 120.417 7.8205C120.149 7.60427 119.807 7.49616 119.392 7.49616C119.201 7.49616 118.998 7.53076 118.782 7.59995C118.566 7.66049 118.367 7.78158 118.185 7.9632C118.004 8.13618 117.852 8.38268 117.731 8.70269C117.61 9.01405 117.55 9.42487 117.55 9.93516C117.55 10.2119 117.58 10.4887 117.64 10.7655C117.71 11.0422 117.813 11.2887 117.952 11.5049C118.099 11.7212 118.285 11.8985 118.51 12.0368C118.734 12.1666 119.007 12.2314 119.327 12.2314C119.759 12.2314 120.114 12.0974 120.391 11.8293C120.676 11.5612 120.853 11.1849 120.923 10.7006H122.402C122.263 11.5741 121.93 12.2444 121.403 12.7115C120.884 13.1698 120.192 13.399 119.327 13.399C118.799 13.399 118.332 13.3126 117.926 13.1396C117.528 12.958 117.191 12.7158 116.914 12.4131C116.637 12.1017 116.425 11.7341 116.278 11.3103C116.14 10.8865 116.071 10.4281 116.071 9.93516C116.071 9.43352 116.14 8.96215 116.278 8.52106C116.417 8.07996 116.624 7.69941 116.901 7.3794C117.178 7.05074 117.519 6.7956 117.926 6.61397C118.341 6.4237 118.825 6.32856 119.379 6.32856C119.768 6.32856 120.136 6.38045 120.482 6.48424C120.836 6.57938 121.147 6.72641 121.416 6.92533C121.692 7.12426 121.917 7.37508 122.09 7.67779C122.263 7.9805 122.367 8.33943 122.402 8.75458H120.923Z" fill="#000C17"/>
<path d="M128.209 9.27351C128.192 9.03999 128.14 8.81512 128.054 8.5989C127.976 8.38268 127.863 8.19672 127.716 8.04104C127.578 7.87671 127.405 7.74698 127.197 7.65184C126.998 7.54806 126.774 7.49616 126.523 7.49616C126.263 7.49616 126.025 7.54373 125.809 7.63887C125.602 7.72536 125.42 7.85077 125.264 8.0151C125.117 8.17078 124.996 8.35673 124.901 8.57295C124.815 8.78918 124.767 9.0227 124.758 9.27351H128.209ZM124.758 10.2465C124.758 10.506 124.793 10.7568 124.862 10.999C124.94 11.2411 125.052 11.453 125.199 11.6347C125.346 11.8163 125.532 11.9633 125.757 12.0758C125.982 12.1795 126.25 12.2314 126.562 12.2314C126.994 12.2314 127.34 12.1406 127.6 11.959C127.868 11.7687 128.067 11.4876 128.196 11.1157H129.597C129.52 11.479 129.386 11.8033 129.195 12.0887C129.005 12.3741 128.776 12.6163 128.508 12.8152C128.24 13.0055 127.937 13.1482 127.6 13.2434C127.271 13.3472 126.925 13.399 126.562 13.399C126.034 13.399 125.567 13.3126 125.161 13.1396C124.754 12.9666 124.408 12.7244 124.123 12.4131C123.846 12.1017 123.634 11.7298 123.487 11.2974C123.349 10.8649 123.279 10.3892 123.279 9.87029C123.279 9.3946 123.353 8.94486 123.5 8.52106C123.656 8.08861 123.872 7.71239 124.149 7.39238C124.434 7.06372 124.776 6.80425 125.174 6.61397C125.571 6.4237 126.021 6.32856 126.523 6.32856C127.05 6.32856 127.522 6.441 127.937 6.66587C128.361 6.88209 128.711 7.17183 128.988 7.53508C129.264 7.89834 129.463 8.31781 129.584 8.7935C129.714 9.26054 129.749 9.74488 129.688 10.2465H124.758Z" fill="#000C17"/>
<path d="M130.851 6.51019H132.253V7.41832H132.279C132.486 7.02912 132.776 6.75236 133.148 6.58803C133.52 6.41505 133.922 6.32856 134.354 6.32856C134.882 6.32856 135.34 6.4237 135.729 6.61397C136.127 6.7956 136.456 7.05074 136.715 7.3794C136.975 7.69941 137.17 8.07564 137.299 8.50809C137.429 8.94053 137.494 9.40325 137.494 9.89623C137.494 10.346 137.433 10.7827 137.312 11.2065C137.2 11.6303 137.022 12.0066 136.78 12.3352C136.547 12.6552 136.248 12.9147 135.885 13.1136C135.522 13.3039 135.094 13.399 134.601 13.399C134.385 13.399 134.168 13.3774 133.952 13.3342C133.736 13.2996 133.528 13.239 133.329 13.1526C133.13 13.0661 132.945 12.9579 132.772 12.8282C132.607 12.6898 132.469 12.5298 132.356 12.3482H132.33V15.6953H130.851V6.51019ZM136.015 9.87029C136.015 9.56758 135.976 9.27351 135.898 8.9881C135.82 8.70269 135.704 8.45187 135.548 8.23564C135.392 8.01077 135.198 7.83347 134.964 7.70374C134.731 7.56535 134.462 7.49616 134.16 7.49616C133.537 7.49616 133.066 7.71239 132.746 8.14483C132.434 8.57728 132.279 9.15243 132.279 9.87029C132.279 10.2076 132.317 10.5233 132.395 10.8173C132.482 11.1028 132.607 11.3493 132.772 11.5568C132.936 11.7644 133.13 11.9287 133.355 12.0498C133.589 12.1709 133.857 12.2314 134.16 12.2314C134.497 12.2314 134.782 12.1623 135.016 12.0239C135.249 11.8855 135.44 11.7082 135.587 11.492C135.742 11.2671 135.851 11.0163 135.911 10.7395C135.98 10.4541 136.015 10.1644 136.015 9.87029Z" fill="#000C17"/>
<path d="M138.069 6.51019H139.185V4.49931H140.664V6.51019H142V7.61292H140.664V11.1936C140.664 11.3493 140.668 11.4833 140.677 11.5957C140.694 11.7082 140.724 11.8033 140.767 11.8812C140.819 11.959 140.893 12.0195 140.988 12.0628C141.083 12.0974 141.213 12.1147 141.377 12.1147C141.481 12.1147 141.585 12.1147 141.689 12.1147C141.792 12.106 141.896 12.0887 142 12.0628V13.2044C141.836 13.2217 141.676 13.239 141.52 13.2563C141.364 13.2736 141.204 13.2823 141.04 13.2823C140.651 13.2823 140.335 13.2477 140.093 13.1785C139.859 13.1007 139.673 12.9925 139.535 12.8542C139.405 12.7071 139.314 12.5255 139.262 12.3093C139.219 12.0931 139.193 11.8466 139.185 11.5698V7.61292H138.069V6.51019Z" fill="#000C17"/>
<path d="M42.7658 21.7335H45.4123C45.8015 21.7335 46.1259 21.6254 46.3854 21.4092C46.6448 21.1843 46.7746 20.8643 46.7746 20.4491C46.7746 19.9821 46.6578 19.6534 46.4243 19.4632C46.1908 19.2729 45.8534 19.1778 45.4123 19.1778H42.7658V21.7335ZM41.1441 17.8545H45.6459C46.4762 17.8545 47.1421 18.0447 47.6438 18.4253C48.1454 18.8058 48.3962 19.381 48.3962 20.1508C48.3962 20.6178 48.2795 21.02 48.0459 21.3573C47.8211 21.6859 47.4967 21.9411 47.0729 22.1227V22.1487C47.6438 22.2697 48.0762 22.5422 48.3703 22.966C48.6643 23.3811 48.8114 23.9044 48.8114 24.5358C48.8114 24.899 48.7465 25.2406 48.6168 25.5606C48.487 25.872 48.2838 26.1445 48.007 26.378C47.7303 26.6028 47.3757 26.7845 46.9432 26.9229C46.5108 27.0526 45.9961 27.1175 45.3994 27.1175H41.1441V17.8545ZM42.7658 25.7942H45.6329C46.1259 25.7942 46.5064 25.6688 46.7746 25.4179C47.0513 25.1585 47.1897 24.7952 47.1897 24.3282C47.1897 23.8698 47.0513 23.5195 46.7746 23.2773C46.5064 23.0265 46.1259 22.9011 45.6329 22.9011H42.7658V25.7942Z" fill="#000C17"/>
<path d="M55.961 27.1175H54.508V26.1834H54.482C54.3004 26.5207 54.028 26.7931 53.6647 27.0007C53.3101 27.1996 52.9469 27.2991 52.575 27.2991C51.6928 27.2991 51.0528 27.0829 50.6549 26.6504C50.2657 26.2093 50.0711 25.5477 50.0711 24.6655V20.4102H51.5501V24.5228C51.5501 25.1109 51.6625 25.5261 51.8874 25.7682C52.1122 26.0104 52.4279 26.1315 52.8344 26.1315C53.1458 26.1315 53.4053 26.0839 53.6128 25.9888C53.8204 25.8936 53.9891 25.7682 54.1188 25.6125C54.2485 25.4482 54.3393 25.2536 54.3912 25.0287C54.4518 24.8039 54.482 24.5617 54.482 24.3022V20.4102H55.961V27.1175Z" fill="#000C17"/>
<path d="M57.5596 17.8545H59.0385V19.2556H57.5596V17.8545ZM57.5596 20.4102H59.0385V27.1175H57.5596V20.4102Z" fill="#000C17"/>
<path d="M60.6889 17.8545H62.1679V27.1175H60.6889V17.8545Z" fill="#000C17"/>
<path d="M70.0973 27.1175H68.6962V26.2093H68.6702C68.4713 26.5985 68.1816 26.8796 67.801 27.0526C67.4205 27.2169 67.0183 27.2991 66.5945 27.2991C66.0669 27.2991 65.6042 27.2083 65.2064 27.0266C64.8172 26.8364 64.4928 26.5812 64.2334 26.2612C63.9739 25.9412 63.7793 25.565 63.6496 25.1325C63.5198 24.6914 63.455 24.2201 63.455 23.7184C63.455 23.113 63.5371 22.5897 63.7015 22.1487C63.8658 21.7076 64.082 21.3443 64.3501 21.0589C64.6269 20.7735 64.9382 20.5659 65.2842 20.4362C65.6388 20.2978 65.9977 20.2286 66.361 20.2286C66.5686 20.2286 66.7805 20.2502 66.9967 20.2935C67.2129 20.3281 67.4205 20.3886 67.6194 20.4751C67.8183 20.5616 68 20.674 68.1643 20.8124C68.3373 20.9421 68.48 21.0978 68.5924 21.2794H68.6184V17.8545H70.0973V27.1175ZM64.9339 23.8352C64.9339 24.1206 64.9685 24.4017 65.0377 24.6785C65.1155 24.9552 65.228 25.2017 65.375 25.4179C65.5307 25.6342 65.7253 25.8071 65.9588 25.9369C66.1923 26.0666 66.4691 26.1315 66.7891 26.1315C67.1178 26.1315 67.3989 26.0623 67.6324 25.9239C67.8745 25.7855 68.0692 25.6039 68.2162 25.379C68.3719 25.1542 68.4843 24.9033 68.5535 24.6266C68.6313 24.3412 68.6702 24.0514 68.6702 23.7574C68.6702 23.0135 68.5016 22.4341 68.1643 22.0189C67.8356 21.6038 67.3859 21.3962 66.8151 21.3962C66.4691 21.3962 66.175 21.4697 65.9329 21.6167C65.6993 21.7551 65.5047 21.9411 65.3491 22.1746C65.202 22.3995 65.0939 22.6589 65.0247 22.953C64.9642 23.2384 64.9339 23.5325 64.9339 23.8352Z" fill="#000C17"/>
<path d="M76.3158 23.1735C76.2985 22.94 76.2466 22.7152 76.1601 22.4989C76.0823 22.2827 75.9699 22.0968 75.8228 21.9411C75.6844 21.7767 75.5115 21.647 75.3039 21.5519C75.105 21.4481 74.8801 21.3962 74.6293 21.3962C74.3698 21.3962 74.132 21.4438 73.9157 21.5389C73.7082 21.6254 73.5265 21.7508 73.3709 21.9151C73.2238 22.0708 73.1028 22.2568 73.0076 22.473C72.9211 22.6892 72.8736 22.9227 72.8649 23.1735H76.3158ZM72.8649 24.1466C72.8649 24.406 72.8995 24.6568 72.9687 24.899C73.0465 25.1412 73.159 25.3531 73.306 25.5347C73.453 25.7163 73.639 25.8634 73.8639 25.9758C74.0887 26.0796 74.3568 26.1315 74.6682 26.1315C75.1006 26.1315 75.4466 26.0407 75.7061 25.859C75.9742 25.6688 76.1731 25.3877 76.3028 25.0158H77.704C77.6261 25.379 77.4921 25.7034 77.3018 25.9888C77.1115 26.2742 76.8823 26.5164 76.6142 26.7153C76.3461 26.9056 76.0434 27.0483 75.7061 27.1434C75.3774 27.2472 75.0315 27.2991 74.6682 27.2991C74.1406 27.2991 73.6736 27.2126 73.2671 27.0396C72.8606 26.8666 72.5146 26.6245 72.2292 26.3131C71.9524 26.0017 71.7405 25.6298 71.5935 25.1974C71.4551 24.7649 71.3859 24.2893 71.3859 23.7703C71.3859 23.2946 71.4595 22.8449 71.6065 22.4211C71.7622 21.9886 71.9784 21.6124 72.2552 21.2924C72.5406 20.9638 72.8822 20.7043 73.2801 20.514C73.6779 20.3237 74.1276 20.2286 74.6293 20.2286C75.1569 20.2286 75.6282 20.341 76.0434 20.5659C76.4672 20.7821 76.8175 21.0719 77.0942 21.4351C77.371 21.7984 77.5699 22.2178 77.691 22.6935C77.8207 23.1606 77.8553 23.6449 77.7948 24.1466H72.8649Z" fill="#000C17"/>
<path d="M78.9191 20.4102H80.3073V21.7076H80.3332C80.3764 21.5259 80.4586 21.3486 80.5797 21.1756C80.7094 21.0027 80.8608 20.847 81.0338 20.7086C81.2154 20.5616 81.4143 20.4448 81.6305 20.3583C81.8468 20.2718 82.0673 20.2286 82.2922 20.2286C82.4652 20.2286 82.5819 20.2329 82.6425 20.2416C82.7117 20.2502 82.7808 20.2589 82.85 20.2675V21.6946C82.7463 21.6773 82.6381 21.6643 82.5257 21.6557C82.4219 21.6384 82.3181 21.6297 82.2143 21.6297C81.9635 21.6297 81.7257 21.6816 81.5008 21.7854C81.2846 21.8805 81.0943 22.0276 80.93 22.2265C80.7656 22.4168 80.6359 22.6546 80.5408 22.94C80.4456 23.2254 80.3981 23.5541 80.3981 23.926V27.1175H78.9191V20.4102Z" fill="#000C17"/>
<defs>
<clipPath id="clip0_1417_140429">
<rect width="3.84065" height="3.70668" fill="white" transform="translate(85.5645 16.9238)"/>
</clipPath>
</defs>
</svg>
