<svg width="12" height="12" viewBox="0 0 12 12" fill="none" xmlns="http://www.w3.org/2000/svg">
<g clip-path="url(#clip0_3389_47644)">
<path d="M4.59282 8.75775C3.95008 8.75775 3.41342 9.19994 3.24493 9.80005H2.40874C2.18409 9.80005 1.99688 9.61686 1.99688 9.38313V6.6163C2.12168 6.6542 2.25273 6.67947 2.39002 6.67947H3.34477C3.5819 7.12165 4.03744 7.41855 4.56786 7.41855C5.34165 7.41855 5.97192 6.78054 5.97192 5.99723C5.97192 5.21393 5.34165 4.57591 4.56786 4.57591C3.92512 4.57591 3.38846 5.0181 3.21997 5.61821H2.38378C2.18409 5.61821 2.02184 5.47292 1.99064 5.2771V5.25815C1.99064 5.25815 1.97816 5.22024 1.97816 5.20129V3.2683C2.5273 3.05352 2.92044 2.51658 2.92044 1.88488C2.92044 1.06367 2.26521 0.400391 1.45398 0.400391C0.642746 0.400391 0 1.06367 0 1.88488C0 2.51658 0.386895 3.0472 0.936037 3.26198V5.19498C0.936037 5.24551 0.948518 5.29605 0.948518 5.34658V9.38313C0.948518 10.198 1.60374 10.8613 2.40874 10.8613H3.36349C3.60062 11.3035 4.05616 11.6004 4.58658 11.6004C5.36037 11.6004 5.99064 10.9624 5.99064 10.1791C5.99064 9.39577 5.36037 8.75775 4.58658 8.75775H4.59282Z" fill="#8C8C8C"/>
<path d="M11.3879 0.912109H4.77951C4.44177 0.912109 4.16797 1.18927 4.16797 1.53117V2.21341C4.16797 2.55531 4.44177 2.83247 4.77951 2.83247H11.3879C11.7257 2.83247 11.9995 2.55531 11.9995 2.21341V1.53117C11.9995 1.18927 11.7257 0.912109 11.3879 0.912109Z" fill="#8C8C8C"/>
<path d="M11.3838 5.0625H7.65842C7.32067 5.0625 7.04688 5.33966 7.04688 5.68156V6.3638C7.04688 6.7057 7.32067 6.98286 7.65842 6.98286H11.3838C11.7216 6.98286 11.9954 6.7057 11.9954 6.3638V5.68156C11.9954 5.33966 11.7216 5.0625 11.3838 5.0625Z" fill="#8C8C8C"/>
<path d="M11.3838 9.33301H7.65842C7.32067 9.33301 7.04688 9.61017 7.04688 9.95207V10.6343C7.04688 10.9762 7.32067 11.2534 7.65842 11.2534H11.3838C11.7216 11.2534 11.9954 10.9762 11.9954 10.6343V9.95207C11.9954 9.61017 11.7216 9.33301 11.3838 9.33301Z" fill="#8C8C8C"/>
</g>
<defs>
<clipPath id="clip0_3389_47644">
<rect width="12" height="11.2" fill="white" transform="translate(0 0.400391)"/>
</clipPath>
</defs>
</svg>
