<?xml version="1.0" encoding="utf-8"?>
<!-- Generator: Adobe Illustrator 26.4.1, SVG Export Plug-In . SVG Version: 6.00 Build 0)  -->
<svg version="1.1" id="Ebene_1" xmlns="http://www.w3.org/2000/svg" xmlns:xlink="http://www.w3.org/1999/xlink" x="0px" y="0px"
	  style="enable-background:new 0 0 16 16;" xml:space="preserve">
<style type="text/css">
	.st0{fill:#8C8C8C;}
</style>
<path class="st0" d="M11.6,3.7l0.6,0.6c0.1,0.1,0.1,0.1,0.1,0.2l-7.8,7.8c-0.1,0.1-0.1,0.1-0.1,0l-0.7-0.7c-0.1-0.1-0.1-0.1,0-0.1
	l7.8-7.8C11.5,3.6,11.5,3.6,11.6,3.7z"/>
<path class="st0" d="M4.7,3.9l7.4,7.4c0.1,0.1,0.1,0.1,0,0.1l-0.6,0.6c-0.1,0.1-0.1,0.1-0.1,0L3.9,4.7c-0.1,0-0.1,0-0.1-0.1L4.5,4
	C4.6,3.9,4.6,3.8,4.7,3.9z"/>
</svg>
