<?xml version="1.0" encoding="utf-8"?>
<!-- Generator: Adobe Illustrator 26.4.1, SVG Export Plug-In . SVG Version: 6.00 Build 0)  -->
<svg version="1.1" id="Ebene_1" xmlns="http://www.w3.org/2000/svg" xmlns:xlink="http://www.w3.org/1999/xlink" x="0px" y="0px"
	  xml:space="preserve">
<style type="text/css">
	.st0{fill:#8C8C8C;}
</style>
<g>
	<defs>
		<rect id="SVGID_1_" y="0" width="16" height="16"/>
	</defs>
	<clipPath id="SVGID_00000034798683055841732250000017074776420965764995_">
		<use xlink:href="#SVGID_1_"  style="overflow:visible;"/>
	</clipPath>
</g>
<g>
	<path class="st0" d="M12,2.6H4C3.2,2.6,2.6,3.2,2.6,4v8c0,0.8,0.6,1.4,1.4,1.4h8c0.8,0,1.4-0.6,1.4-1.4V4C13.4,3.2,12.8,2.6,12,2.6
		z M3.6,4c0-0.2,0.2-0.4,0.4-0.4h1.3v8.8H4c-0.2,0-0.4-0.2-0.4-0.4V4z M12.4,4v8c0,0.2-0.2,0.4-0.4,0.4H6.4V3.6H12
		C12.2,3.6,12.4,3.8,12.4,4z"/>
	<path class="st0" d="M8.9,8.1l2.2-2.2c0.1-0.1,0-0.2,0-0.3l-0.6-0.6c0,0-0.1-0.1-0.3,0L7.4,8c0,0-0.1,0.1,0,0.2c0,0,0,0.1,0,0.1
		l2.9,2.9c0,0,0.1,0,0.1,0c0.1,0,0.2-0.1,0.2-0.1l0.5-0.5c0,0,0.1-0.1,0-0.3L8.9,8.1z"/>
</g>
</svg>
