<svg width="12" height="12" viewBox="0 0 12 12" fill="none" xmlns="http://www.w3.org/2000/svg">
<path d="M11.723 4.12656L7.87302 0.276562C7.77146 0.175 7.63865 0.125 7.50583 0.125C7.37302 0.125 7.24021 0.175 7.13865 0.276562L4.62146 2.79531C4.43083 2.77344 4.23865 2.76406 4.04646 2.76406C2.90271 2.76406 1.75896 3.14063 0.819896 3.89375C0.76303 3.93941 0.716421 3.99654 0.683105 4.06141C0.649789 4.12629 0.630513 4.19745 0.626533 4.27027C0.622553 4.34309 0.633958 4.41593 0.660005 4.48405C0.686053 4.55217 0.726158 4.61404 0.777709 4.66563L3.61677 7.50469L0.251146 10.8672C0.209904 10.9082 0.18445 10.9624 0.179271 11.0203L0.126146 11.6016C0.112084 11.7484 0.229271 11.8734 0.374584 11.8734C0.382396 11.8734 0.390209 11.8734 0.398021 11.8719L0.979271 11.8188C1.03708 11.8141 1.09177 11.7875 1.1324 11.7469L4.49802 8.38125L7.33708 11.2203C7.43865 11.3219 7.57146 11.3719 7.70427 11.3719C7.85583 11.3719 8.00583 11.3063 8.10896 11.1781C8.98865 10.0797 9.35427 8.70469 9.20584 7.375L11.723 4.85781C11.9246 4.65781 11.9246 4.32969 11.723 4.12656V4.12656ZM8.40896 6.58281L8.02615 6.96563L8.08552 7.50313C8.17863 8.33448 8.01274 9.1743 7.61052 9.90781L2.09333 4.3875C2.2949 4.27656 2.50427 4.18281 2.72302 4.10781C3.14802 3.96094 3.59333 3.8875 4.04646 3.8875C4.19646 3.8875 4.34802 3.89531 4.49802 3.9125L5.03552 3.97188L5.41833 3.58906L7.5074 1.5L10.4996 4.49219L8.40896 6.58281Z" fill="#8C8C8C"/>
</svg>
