<?xml version="1.0" encoding="utf-8"?>
<!-- Generator: Adobe Illustrator 26.4.1, SVG Export Plug-In . SVG Version: 6.00 Build 0)  -->
<svg version="1.1" id="Ebene_1" xmlns="http://www.w3.org/2000/svg" xmlns:xlink="http://www.w3.org/1999/xlink" x="0px" y="0px"
	 viewBox="0 0 16 16" style="enable-background:new 0 0 16 16;" xml:space="preserve">
<style type="text/css">
	.st0{fill:#8C8C8C;}
</style>
<path class="st0" d="M7.5,2.4h0.9c0.1,0,0.2,0,0.2,0.1l0,11c0,0.1,0,0.1-0.1,0.1h-1c-0.1,0-0.1,0-0.1-0.1v-11
	C7.4,2.4,7.4,2.4,7.5,2.4z"/>
<path class="st0" d="M2.7,7.4h10.5c0.1,0,0.1,0,0.1,0.1v0.9c0,0.1,0,0.1-0.1,0.1H2.7c-0.1,0.1-0.1,0.1-0.1,0V7.6
	C2.6,7.5,2.6,7.4,2.7,7.4z"/>
</svg>
