<svg width="16" height="16" viewBox="0 0 16 16" fill="none" xmlns="http://www.w3.org/2000/svg">
<g id="Group 3633">
<g id="Vector">
<mask id="path-1-inside-1_3511_132161" fill="white">
<path d="M13.7094 13.3437L13.564 13.1982C13.0549 12.6164 12.4367 12.1073 11.7822 11.7437L11.6367 11.671L11.6731 11.5255C12.0004 10.4346 12.1822 9.23459 12.1822 7.99822V7.81641H15.8185V7.99822C15.8185 9.9255 15.1276 11.78 13.8185 13.1982L13.7094 13.3437ZM12.0731 11.4891C12.6549 11.8528 13.2004 12.2891 13.7094 12.7982C14.8004 11.4891 15.4185 9.85277 15.4913 8.14368H12.5822C12.5458 9.34368 12.364 10.471 12.0731 11.4891Z"/>
</mask>
<path d="M13.7094 13.3437L13.1438 13.9094L13.796 14.5616L14.3494 13.8237L13.7094 13.3437ZM13.564 13.1982L12.9619 13.725L12.9795 13.7451L12.9983 13.7639L13.564 13.1982ZM11.7822 11.7437L12.1707 11.0444L12.1555 11.0359L12.1399 11.0281L11.7822 11.7437ZM11.6367 11.671L10.8606 11.4769L10.705 12.0995L11.2789 12.3865L11.6367 11.671ZM11.6731 11.5255L10.9068 11.2956L10.9015 11.3134L10.897 11.3315L11.6731 11.5255ZM12.1822 7.81641V7.01641H11.3822V7.81641H12.1822ZM15.8185 7.81641H16.6185V7.01641H15.8185V7.81641ZM13.8185 13.1982L13.2307 12.6556L13.203 12.6856L13.1785 12.7182L13.8185 13.1982ZM12.0731 11.4891L11.3039 11.2694L11.1384 11.8484L11.6491 12.1675L12.0731 11.4891ZM13.7094 12.7982L13.1438 13.3639L13.7632 13.9834L14.324 13.3104L13.7094 12.7982ZM15.4913 8.14368L16.2905 8.17769L16.326 7.34368H15.4913V8.14368ZM12.5822 8.14368V7.34368H11.806L11.7825 8.11945L12.5822 8.14368ZM14.2751 12.778L14.1297 12.6325L12.9983 13.7639L13.1438 13.9094L14.2751 12.778ZM14.1661 12.6714C13.6007 12.0254 12.9116 11.456 12.1707 11.0444L11.3937 12.443C11.9619 12.7587 12.5091 13.2075 12.9619 13.725L14.1661 12.6714ZM12.1399 11.0281L11.9945 10.9554L11.2789 12.3865L11.4244 12.4592L12.1399 11.0281ZM12.4128 11.865L12.4492 11.7195L10.897 11.3315L10.8606 11.4769L12.4128 11.865ZM12.4393 11.7554C12.7892 10.5893 12.9822 9.3118 12.9822 7.99822H11.3822C11.3822 9.15738 11.2115 10.2799 10.9068 11.2956L12.4393 11.7554ZM12.9822 7.99822V7.81641H11.3822V7.99822H12.9822ZM12.1822 8.61641H15.8185V7.01641H12.1822V8.61641ZM15.0185 7.81641V7.99822H16.6185V7.81641H15.0185ZM15.0185 7.99822C15.0185 9.73399 14.397 11.3921 13.2307 12.6556L14.4064 13.7408C15.8583 12.168 16.6185 10.117 16.6185 7.99822H15.0185ZM13.1785 12.7182L13.0694 12.8637L14.3494 13.8237L14.4585 13.6782L13.1785 12.7182ZM11.6491 12.1675C12.1771 12.4975 12.6754 12.8955 13.1438 13.3639L14.2751 12.2325C13.7253 11.6827 13.1327 11.208 12.4971 10.8107L11.6491 12.1675ZM14.324 13.3104C15.5303 11.8629 16.2106 10.0574 16.2905 8.17769L14.692 8.10967C14.6265 9.64816 14.0704 11.1154 13.0949 12.2861L14.324 13.3104ZM15.4913 7.34368H12.5822V8.94368H15.4913V7.34368ZM11.7825 8.11945C11.7481 9.25438 11.5763 10.3159 11.3039 11.2694L12.8423 11.7089C13.1517 10.626 13.3435 9.43298 13.3818 8.16791L11.7825 8.11945Z" fill="white" mask="url(#path-1-inside-1_3511_132161)"/>
</g>
<g id="Vector_2">
<mask id="path-3-inside-2_3511_132161" fill="white">
<path d="M11.7455 4.69269L11.6727 4.4745C10.9455 2.0745 9.52727 0.54723 8 0.54723V0.183594C10.2182 0.183594 12.3636 1.12905 13.8182 2.80178L13.9273 2.91087L13.8182 3.01996C13.2727 3.63814 12.6182 4.14723 11.9273 4.54723L11.7455 4.69269ZM9.70909 0.729048C10.6545 1.38359 11.4545 2.54723 11.9636 4.11087C12.5091 3.78359 13.0182 3.34723 13.4545 2.8745C12.4364 1.81996 11.1273 1.09268 9.70909 0.729048Z"/>
</mask>
<path d="M11.7455 4.69269L10.9865 4.94567L11.3493 6.03409L12.2452 5.31738L11.7455 4.69269ZM11.6727 4.4745L10.9071 4.70651L10.9103 4.71704L10.9138 4.72749L11.6727 4.4745ZM8 0.54723H7.2V1.34723H8V0.54723ZM8 0.183594V-0.616406H7.2V0.183594H8ZM13.8182 2.80178L13.2145 3.32672L13.2328 3.34775L13.2525 3.36746L13.8182 2.80178ZM13.9273 2.91087L14.493 3.47655L15.0586 2.91087L14.493 2.34518L13.9273 2.91087ZM13.8182 3.01996L13.2525 2.45427L13.2348 2.47193L13.2183 2.49066L13.8182 3.01996ZM11.9273 4.54723L11.5264 3.85489L11.4744 3.885L11.4275 3.92254L11.9273 4.54723ZM9.70909 0.729048L9.90779 -0.0458827L9.25372 1.3868L9.70909 0.729048ZM11.9636 4.11087L11.2029 4.35854L11.5139 5.31366L12.3752 4.79686L11.9636 4.11087ZM13.4545 2.8745L14.0424 3.41713L14.5547 2.86216L14.0301 2.31883L13.4545 2.8745ZM12.5044 4.4397L12.4317 4.22152L10.9138 4.72749L10.9865 4.94567L12.5044 4.4397ZM12.4383 4.2425C12.0487 2.9568 11.4608 1.85747 10.7212 1.06501C9.98104 0.271974 9.04653 -0.25277 8 -0.25277V1.34723C8.48075 1.34723 9.01896 1.58612 9.55152 2.15672C10.0846 2.7279 10.5694 3.59221 10.9071 4.70651L12.4383 4.2425ZM8.8 0.54723V0.183594H7.2V0.54723H8.8ZM8 0.983594C9.99462 0.983594 11.9171 1.83466 13.2145 3.32672L14.4219 2.27683C12.8102 0.423438 10.4417 -0.616406 8 -0.616406V0.983594ZM13.2525 3.36746L13.3616 3.47655L14.493 2.34518L14.3839 2.23609L13.2525 3.36746ZM13.3616 2.34518L13.2525 2.45427L14.3839 3.58564L14.493 3.47655L13.3616 2.34518ZM13.2183 2.49066C12.7379 3.03507 12.1538 3.49166 11.5264 3.85489L12.3281 5.23957C13.0825 4.8028 13.8075 4.24121 14.4181 3.54925L13.2183 2.49066ZM11.4275 3.92254L11.2457 4.06799L12.2452 5.31738L12.427 5.17193L11.4275 3.92254ZM9.25372 1.3868C10.0138 1.913 10.73 2.90591 11.2029 4.35854L12.7243 3.8632C12.1791 2.18855 11.2953 0.854189 10.1645 0.0712947L9.25372 1.3868ZM12.3752 4.79686C12.998 4.42323 13.5648 3.93448 14.0424 3.41713L12.8667 2.33188C12.4715 2.75998 12.0202 3.14396 11.552 3.42487L12.3752 4.79686ZM14.0301 2.31883C12.9013 1.14977 11.4584 0.351699 9.90779 -0.0458827L9.51039 1.50398C10.7962 1.83367 11.9714 2.49015 12.879 3.43018L14.0301 2.31883Z" fill="white" mask="url(#path-3-inside-2_3511_132161)"/>
</g>
<g id="Vector_3">
<mask id="path-5-inside-3_3511_132161" fill="white">
<path d="M12.5476 8.18089H7.82031V5.2718H8.00213C9.31122 5.2718 10.6203 4.90817 11.7476 4.25362L11.9294 4.14453L12.0021 4.36271C12.3294 5.48999 12.5112 6.72635 12.5112 7.99908V8.18089H12.5476ZM8.18395 7.81726H12.1839C12.1839 6.72635 12.0021 5.63544 11.7476 4.68999C10.6567 5.2718 9.45668 5.59908 8.18395 5.63544V7.81726Z"/>
</mask>
<path d="M7.82031 8.18089H7.02031V8.9809H7.82031V8.18089ZM7.82031 5.2718V4.4718H7.02031V5.2718H7.82031ZM11.7476 4.25362L12.1493 4.94553L12.1592 4.93962L11.7476 4.25362ZM11.9294 4.14453L12.6883 3.89155L12.373 2.94543L11.5178 3.45854L11.9294 4.14453ZM12.0021 4.36271L12.7704 4.13967L12.766 4.12461L12.7611 4.10973L12.0021 4.36271ZM12.5112 8.18089H11.7112V8.9809H12.5112V8.18089ZM8.18395 7.81726H7.38395V8.61726H8.18395V7.81726ZM12.1839 7.81726V8.61726H12.9839V7.81726H12.1839ZM11.7476 4.68999L12.5201 4.48201L12.2586 3.51078L11.3711 3.9841L11.7476 4.68999ZM8.18395 5.63544L8.1611 4.83577L7.38395 4.85797V5.63544H8.18395ZM12.5476 7.38089H7.82031V8.9809H12.5476V7.38089ZM8.62031 8.18089V5.2718H7.02031V8.18089H8.62031ZM7.82031 6.0718H8.00213V4.4718H7.82031V6.0718ZM8.00213 6.0718C9.45652 6.0718 10.9037 5.66871 12.1493 4.94545L11.3459 3.56179C10.3369 4.14762 9.16592 4.4718 8.00213 4.4718V6.0718ZM12.1592 4.93962L12.341 4.83052L11.5178 3.45854L11.336 3.56763L12.1592 4.93962ZM11.1705 4.39751L11.2432 4.6157L12.7611 4.10973L12.6883 3.89155L11.1705 4.39751ZM11.2339 4.58576C11.54 5.64011 11.7112 6.80136 11.7112 7.99908H13.3112C13.3112 6.65133 13.1189 5.33986 12.7704 4.13967L11.2339 4.58576ZM11.7112 7.99908V8.18089H13.3112V7.99908H11.7112ZM12.5112 8.9809H12.5476V7.38089H12.5112V8.9809ZM8.18395 8.61726H12.1839V7.01726H8.18395V8.61726ZM12.9839 7.81726C12.9839 6.64183 12.7888 5.47994 12.5201 4.48201L10.9751 4.89796C11.2155 5.79094 11.3839 6.81087 11.3839 7.81726H12.9839ZM11.3711 3.9841C10.3875 4.5087 9.30831 4.80299 8.1611 4.83577L8.2068 6.43511C9.60504 6.39516 10.9259 6.0349 12.1241 5.39587L11.3711 3.9841ZM7.38395 5.63544V7.81726H8.98395V5.63544H7.38395Z" fill="white" mask="url(#path-5-inside-3_3511_132161)"/>
</g>
<g id="Vector_4">
<mask id="path-7-inside-4_3511_132161" fill="white">
<path d="M11.9724 11.8528L11.7906 11.7437C10.6633 11.0891 9.35419 10.7255 8.0451 10.7255H7.86328V7.81641H12.5906V7.99822C12.5906 9.27095 12.4087 10.5437 12.0815 11.6346L11.9724 11.8528ZM8.19055 10.3619C9.42692 10.3982 10.6633 10.7255 11.7542 11.3073C12.0451 10.3255 12.1906 9.27095 12.1906 8.18004H8.19055V10.3619Z"/>
</mask>
<path d="M11.9724 11.8528L11.5608 12.5388L12.3016 12.9832L12.6879 12.2105L11.9724 11.8528ZM11.7906 11.7437L12.2022 11.0576L12.1923 11.0518L11.7906 11.7437ZM7.86328 10.7255H7.06328V11.5255H7.86328V10.7255ZM7.86328 7.81641V7.01641H7.06328V7.81641H7.86328ZM12.5906 7.81641H13.3906V7.01641H12.5906V7.81641ZM12.0815 11.6346L12.797 11.9924L12.8279 11.9306L12.8477 11.8645L12.0815 11.6346ZM8.19055 10.3619H7.39055V11.1387L8.16703 11.1615L8.19055 10.3619ZM11.7542 11.3073L11.3777 12.0132L12.2427 12.4745L12.5212 11.5346L11.7542 11.3073ZM12.1906 8.18004H12.9906V7.38004H12.1906V8.18004ZM8.19055 8.18004V7.38004H7.39055V8.18004H8.19055ZM12.384 11.1668L12.2022 11.0577L11.379 12.4297L11.5608 12.5388L12.384 11.1668ZM12.1923 11.0518C10.9467 10.3286 9.49949 9.9255 8.0451 9.9255V11.5255C9.20889 11.5255 10.3799 11.8497 11.3888 12.4355L12.1923 11.0518ZM8.0451 9.9255H7.86328V11.5255H8.0451V9.9255ZM8.66328 10.7255V7.81641H7.06328V10.7255H8.66328ZM7.86328 8.61641H12.5906V7.01641H7.86328V8.61641ZM11.7906 7.81641V7.99822H13.3906V7.81641H11.7906ZM11.7906 7.99822C11.7906 9.19959 11.6183 10.3944 11.3152 11.4047L12.8477 11.8645C13.1992 10.693 13.3906 9.34232 13.3906 7.99822H11.7906ZM11.3659 11.2768L11.2568 11.495L12.6879 12.2105L12.797 11.9924L11.3659 11.2768ZM8.16703 11.1615C9.28063 11.1943 10.3961 11.4897 11.3777 12.0132L12.1307 10.6014C10.9304 9.96131 9.5732 9.60218 8.21407 9.56221L8.16703 11.1615ZM12.5212 11.5346C12.8357 10.4731 12.9906 9.34154 12.9906 8.18004H11.3906C11.3906 9.20036 11.2545 10.1779 10.9872 11.08L12.5212 11.5346ZM12.1906 7.38004H8.19055V8.98004H12.1906V7.38004ZM7.39055 8.18004V10.3619H8.99055V8.18004H7.39055Z" fill="white" mask="url(#path-7-inside-4_3511_132161)"/>
</g>
<g id="Vector_5">
<mask id="path-9-inside-5_3511_132161" fill="white">
<path d="M8.18033 15.8178H7.99851C6.28942 15.8178 4.76215 14.2178 3.96215 11.636L3.92578 11.4906L4.03487 11.4178C5.23487 10.7269 6.58033 10.3633 7.96215 10.3633H8.14396V15.8178H8.18033ZM4.36215 11.6724C5.08942 13.9269 6.36215 15.3451 7.81669 15.4542V10.7269C6.61669 10.7633 5.41669 11.0906 4.36215 11.6724Z"/>
</mask>
<path d="M3.96215 11.636L3.18603 11.83L3.19142 11.8516L3.19799 11.8728L3.96215 11.636ZM3.92578 11.4906L3.48203 10.8249L3.01293 11.1376L3.14967 11.6846L3.92578 11.4906ZM4.03487 11.4178L3.6357 10.7245L3.61296 10.7376L3.59112 10.7522L4.03487 11.4178ZM8.14396 10.3633H8.94396V9.56328H8.14396V10.3633ZM8.14396 15.8178H7.34396V16.6178H8.14396V15.8178ZM4.36215 11.6724L3.97568 10.9719L3.39835 11.2904L3.60078 11.918L4.36215 11.6724ZM7.81669 15.4542L7.75686 16.252L8.61669 16.3164V15.4542H7.81669ZM7.81669 10.7269H8.61669V9.90231L7.79246 9.92728L7.81669 10.7269ZM8.18033 15.0178H7.99851V16.6178H8.18033V15.0178ZM7.99851 15.0178C6.83777 15.0178 5.4963 13.8842 4.7263 11.3992L3.19799 11.8728C4.02799 14.5514 5.74107 16.6178 7.99851 16.6178V15.0178ZM4.73826 11.442L4.7019 11.2965L3.14967 11.6846L3.18603 11.83L4.73826 11.442ZM4.36954 12.1562L4.47863 12.0835L3.59112 10.7522L3.48203 10.8249L4.36954 12.1562ZM4.43404 12.1111C5.51411 11.4893 6.72213 11.1633 7.96215 11.1633V9.56328C6.43852 9.56328 4.95564 9.96457 3.6357 10.7245L4.43404 12.1111ZM7.96215 11.1633H8.14396V9.56328H7.96215V11.1633ZM7.34396 10.3633V15.8178H8.94396V10.3633H7.34396ZM8.14396 16.6178H8.18033V15.0178H8.14396V16.6178ZM3.60078 11.918C4.35455 14.2547 5.79221 16.1046 7.75686 16.252L7.87652 14.6564C6.93208 14.5856 5.82429 13.5992 5.12351 11.4268L3.60078 11.918ZM8.61669 15.4542V10.7269H7.01669V15.4542H8.61669ZM7.79246 9.92728C6.46591 9.96748 5.1417 10.3286 3.97568 10.9719L4.74861 12.3728C5.69168 11.8525 6.76748 11.5591 7.84092 11.5266L7.79246 9.92728Z" fill="white" mask="url(#path-9-inside-5_3511_132161)"/>
</g>
<g id="Vector_6">
<mask id="path-11-inside-6_3511_132161" fill="white">
<path d="M8.17912 5.63814H7.9973C6.61548 5.63814 5.23367 5.2745 4.07003 4.58359L3.96094 4.51087L3.9973 4.36541C4.7973 1.78359 6.32457 0.183594 8.03366 0.183594H8.21548V5.63814H8.17912ZM4.36094 4.32905C5.41548 4.91087 6.61548 5.23814 7.81548 5.2745V0.54723C6.3973 0.656321 5.08821 2.0745 4.36094 4.32905Z"/>
</mask>
<path d="M4.07003 4.58359L3.62627 5.24923L3.64364 5.26082L3.6616 5.27148L4.07003 4.58359ZM3.96094 4.51087L3.18482 4.31684L3.04809 4.86378L3.51718 5.17651L3.96094 4.51087ZM3.9973 4.36541L3.23314 4.12863L3.22657 4.14984L3.22119 4.17138L3.9973 4.36541ZM8.21548 0.183594H9.01548V-0.616406H8.21548V0.183594ZM8.21548 5.63814V6.43814H9.01548V5.63814H8.21548ZM4.36094 4.32905L3.59957 4.08345L3.39714 4.71098L3.97448 5.02951L4.36094 4.32905ZM7.81548 5.2745L7.79125 6.07414L8.61548 6.09911V5.2745H7.81548ZM7.81548 0.54723H8.61548V-0.316672L7.75413 -0.250413L7.81548 0.54723ZM8.17912 4.83814H7.9973V6.43814H8.17912V4.83814ZM7.9973 4.83814C6.75152 4.83814 5.51204 4.5094 4.47846 3.89571L3.6616 5.27148C4.95529 6.03961 6.47944 6.43814 7.9973 6.43814V4.83814ZM4.51379 3.91795L4.4047 3.84523L3.51718 5.17651L3.62627 5.24923L4.51379 3.91795ZM4.73705 4.7049L4.77342 4.55944L3.22119 4.17138L3.18482 4.31684L4.73705 4.7049ZM4.76146 4.60219C5.53145 2.11721 6.87292 0.983594 8.03366 0.983594V-0.616406C5.77622 -0.616406 4.06315 1.44998 3.23314 4.12863L4.76146 4.60219ZM8.03366 0.983594H8.21548V-0.616406H8.03366V0.983594ZM7.41548 0.183594V5.63814H9.01548V0.183594H7.41548ZM8.21548 4.83814H8.17912V6.43814H8.21548V4.83814ZM3.97448 5.02951C5.14049 5.67283 6.4647 6.03394 7.79125 6.07414L7.83971 4.47487C6.76627 4.44234 5.69048 4.14891 4.7474 3.62859L3.97448 5.02951ZM8.61548 5.2745V0.54723H7.01548V5.2745H8.61548ZM7.75413 -0.250413C5.83119 -0.102495 4.35551 1.74002 3.59957 4.08345L5.1223 4.57465C5.82091 2.40899 6.96342 1.41514 7.87684 1.34487L7.75413 -0.250413Z" fill="white" mask="url(#path-11-inside-6_3511_132161)"/>
</g>
<g id="Vector_7">
<mask id="path-13-inside-7_3511_132161" fill="white">
<path d="M3.81605 8.17962H0.179688V7.9978C0.179688 6.07053 0.870597 4.21598 2.17969 2.7978L2.32514 2.65234L2.4706 2.7978C2.97969 3.37962 3.59787 3.88871 4.25241 4.25234L4.36151 4.32507L4.32514 4.47053C3.99787 5.56143 3.81605 6.76144 3.81605 7.9978V8.17962ZM0.543324 7.81598H3.45241C3.45241 6.65234 3.63423 5.52507 3.92514 4.50689C3.34332 4.14325 2.79787 3.70689 2.28878 3.1978C1.19787 4.47053 0.579687 6.10689 0.543324 7.81598Z"/>
</mask>
<path d="M3.81605 8.17962V8.97962H4.61605V8.17962H3.81605ZM0.179688 8.17962H-0.620313V8.97962H0.179688V8.17962ZM2.17969 2.7978L1.614 2.23211L1.60269 2.24342L1.59184 2.25517L2.17969 2.7978ZM2.32514 2.65234L2.89083 2.08666L2.32514 1.52097L1.75945 2.08666L2.32514 2.65234ZM2.4706 2.7978L3.07266 2.271L3.05512 2.25095L3.03628 2.23211L2.4706 2.7978ZM4.25241 4.25234L4.69617 3.5867L4.66923 3.56874L4.64093 3.55302L4.25241 4.25234ZM4.36151 4.32507L5.13762 4.5191L5.27436 3.97216L4.80526 3.65943L4.36151 4.32507ZM4.32514 4.47053L5.0914 4.7004L5.09675 4.68259L5.10126 4.66456L4.32514 4.47053ZM0.543324 7.81598L-0.256495 7.79896L-0.273879 8.61598H0.543324V7.81598ZM3.45241 7.81598V8.61598H4.25241V7.81598H3.45241ZM3.92514 4.50689L4.69436 4.72667L4.85979 4.14765L4.34914 3.82849L3.92514 4.50689ZM2.28878 3.1978L2.85446 2.63211L2.24359 2.02124L1.68137 2.67717L2.28878 3.1978ZM3.81605 7.37962H0.179688V8.97962H3.81605V7.37962ZM0.979688 8.17962V7.9978H-0.620313V8.17962H0.979688ZM0.979688 7.9978C0.979688 6.26203 1.60123 4.60391 2.76753 3.34042L1.59184 2.25517C0.139963 3.82805 -0.620313 5.87902 -0.620313 7.9978H0.979688ZM2.74537 3.36348L2.89083 3.21803L1.75945 2.08666L1.614 2.23211L2.74537 3.36348ZM1.75945 3.21803L1.90491 3.36348L3.03628 2.23211L2.89083 2.08666L1.75945 3.21803ZM1.86853 3.3246C2.43384 3.97066 3.123 4.54006 3.8639 4.95167L4.64093 3.55302C4.07274 3.23736 3.52554 2.78857 3.07266 2.271L1.86853 3.3246ZM3.80866 4.91799L3.91775 4.99071L4.80526 3.65943L4.69617 3.5867L3.80866 4.91799ZM3.58539 4.13104L3.54903 4.2765L5.10126 4.66456L5.13762 4.5191L3.58539 4.13104ZM3.55888 4.24065C3.20905 5.40675 3.01605 6.68423 3.01605 7.9978H4.61605C4.61605 6.83864 4.78669 5.71612 5.0914 4.7004L3.55888 4.24065ZM3.01605 7.9978V8.17962H4.61605V7.9978H3.01605ZM0.543324 8.61598H3.45241V7.01598H0.543324V8.61598ZM4.25241 7.81598C4.25241 6.73437 4.42165 5.68117 4.69436 4.72667L3.15592 4.28711C2.84682 5.36897 2.65241 6.57032 2.65241 7.81598H4.25241ZM4.34914 3.82849C3.82113 3.49848 3.32285 3.1005 2.85446 2.63211L1.72309 3.76348C2.27289 4.31328 2.86552 4.78802 3.50114 5.18529L4.34914 3.82849ZM1.68137 2.67717C0.467324 4.09356 -0.216282 5.90893 -0.256495 7.79896L1.34314 7.833C1.37566 6.30485 1.92841 4.8475 2.89618 3.71843L1.68137 2.67717Z" fill="white" mask="url(#path-13-inside-7_3511_132161)"/>
</g>
<g id="Vector_8">
<mask id="path-15-inside-8_3511_132161" fill="white">
<path d="M2.28878 13.3437L2.17969 13.1982C0.90696 11.78 0.179688 9.9255 0.179688 7.99822V7.81641H3.81605V7.99822C3.81605 9.23459 3.99787 10.471 4.32514 11.5255L4.36151 11.671L4.25241 11.7437C3.59787 12.1437 2.97969 12.6164 2.4706 13.1982L2.28878 13.3437ZM0.543324 8.18004C0.579687 9.88913 1.19787 11.5255 2.32514 12.8346C2.79787 12.3255 3.34332 11.8891 3.96151 11.5255C3.6706 10.5073 3.48878 9.34368 3.48878 8.21641H0.543324V8.18004Z"/>
</mask>
<path d="M2.28878 13.3437L1.64878 13.8237L2.14401 14.484L2.78854 13.9684L2.28878 13.3437ZM2.17969 13.1982L2.81969 12.7182L2.79858 12.6901L2.77508 12.6639L2.17969 13.1982ZM0.179688 7.81641V7.01641H-0.620313V7.81641H0.179688ZM3.81605 7.81641H4.61605V7.01641H3.81605V7.81641ZM4.32514 11.5255L5.10126 11.3315L5.09583 11.3098L5.08919 11.2884L4.32514 11.5255ZM4.36151 11.671L4.80527 12.3366L5.27436 12.0239L5.13762 11.4769L4.36151 11.671ZM4.25241 11.7437L4.66957 12.4263L4.68304 12.4181L4.69618 12.4093L4.25241 11.7437ZM2.4706 13.1982L2.97035 13.8229L3.02585 13.7785L3.07266 13.725L2.4706 13.1982ZM0.543324 8.18004L1.34314 8.16303L-0.256676 8.18004H0.543324ZM2.32514 12.8346L1.71893 13.3566L2.30266 14.0345L2.91138 13.3789L2.32514 12.8346ZM3.96151 11.5255L4.36712 12.215L4.90083 11.9011L4.73072 11.3057L3.96151 11.5255ZM3.48878 8.21641H4.28878V7.41641H3.48878V8.21641ZM0.543324 8.21641H-0.256676V9.01641H0.543324V8.21641ZM2.92878 12.8637L2.81969 12.7182L1.53969 13.6782L1.64878 13.8237L2.92878 12.8637ZM2.77508 12.6639C1.63164 11.3898 0.979688 9.72461 0.979688 7.99822H-0.620313C-0.620313 10.1264 0.182279 12.1703 1.58429 13.7326L2.77508 12.6639ZM0.979688 7.99822V7.81641H-0.620313V7.99822H0.979688ZM0.179688 8.61641H3.81605V7.01641H0.179688V8.61641ZM3.01605 7.81641V7.99822H4.61605V7.81641H3.01605ZM3.01605 7.99822C3.01605 9.30791 3.20798 10.6248 3.56109 11.7626L5.08919 11.2884C4.78776 10.3171 4.61605 9.16127 4.61605 7.99822H3.01605ZM3.54903 11.7195L3.58539 11.865L5.13762 11.4769L5.10126 11.3315L3.54903 11.7195ZM3.91774 11.0053L3.80865 11.078L4.69618 12.4093L4.80527 12.3366L3.91774 11.0053ZM3.83525 11.0611C3.13502 11.489 2.44653 12.0109 1.86853 12.6714L3.07266 13.725C3.51285 13.222 4.06072 12.7984 4.66957 12.4263L3.83525 11.0611ZM1.97084 12.5735L1.78902 12.719L2.78854 13.9684L2.97035 13.8229L1.97084 12.5735ZM-0.256495 8.19706C-0.21622 10.09 0.469246 11.9054 1.71893 13.3566L2.93136 12.3126C1.92649 11.1456 1.37559 9.68826 1.34314 8.16303L-0.256495 8.19706ZM2.91138 13.3789C3.32957 12.9286 3.81369 12.5406 4.36712 12.215L3.55589 10.836C2.87296 11.2377 2.26617 11.7224 1.73891 12.2902L2.91138 13.3789ZM4.73072 11.3057C4.45837 10.3525 4.28878 9.26286 4.28878 8.21641H2.68878C2.68878 9.4245 2.88282 10.6621 3.19229 11.7453L4.73072 11.3057ZM3.48878 7.41641H0.543324V9.01641H3.48878V7.41641ZM1.34332 8.21641V8.18004H-0.256676V8.21641H1.34332Z" fill="white" mask="url(#path-15-inside-8_3511_132161)"/>
</g>
<g id="Vector_9">
<mask id="path-17-inside-9_3511_132161" fill="white">
<path d="M8.00154 5.81678C6.58336 5.81678 5.16518 5.45314 3.96518 4.72587C3.23791 4.32587 2.61973 3.78042 2.03791 3.16223C1.89245 3.01678 1.92882 2.7986 2.07427 2.65314C2.21973 2.50769 2.43791 2.54405 2.58336 2.68951C3.09245 3.27133 3.67427 3.74405 4.32882 4.10769C5.45609 4.76223 6.69245 5.08951 8.00154 5.08951C9.31064 5.08951 10.547 4.76223 11.6743 4.10769C12.3288 3.74405 12.9106 3.23496 13.4197 2.68951C13.5652 2.54405 13.7834 2.54405 13.9288 2.65314C14.0743 2.7986 14.0743 3.01678 13.9652 3.16223C13.3834 3.78042 12.7652 4.32587 12.0379 4.72587C10.8379 5.45314 9.41973 5.81678 8.00154 5.81678Z"/>
</mask>
<path d="M3.96518 4.72587L4.37982 4.04171L4.36545 4.033L4.35072 4.0249L3.96518 4.72587ZM2.03791 3.16223L2.62047 2.61394L2.61216 2.60512L2.60359 2.59655L2.03791 3.16223ZM2.58336 2.68951L3.18542 2.1627L3.16788 2.14266L3.14905 2.12382L2.58336 2.68951ZM4.32882 4.10769L4.73053 3.41586L4.72396 3.41205L4.71733 3.40836L4.32882 4.10769ZM11.6743 4.10769L11.2858 3.40836L11.2791 3.41205L11.2726 3.41586L11.6743 4.10769ZM13.4197 2.68951L12.854 2.12382L12.8443 2.13357L12.8349 2.14365L13.4197 2.68951ZM13.9288 2.65314L14.4945 2.08746L14.4543 2.04726L14.4088 2.01314L13.9288 2.65314ZM13.9652 3.16223L14.5477 3.71053L14.5784 3.67798L14.6052 3.64223L13.9652 3.16223ZM12.0379 4.72587L11.6524 4.0249L11.6376 4.033L11.6233 4.04171L12.0379 4.72587ZM8.00154 5.01678C6.71619 5.01678 5.44382 4.68656 4.37982 4.04171L3.55054 5.41003C4.88654 6.21973 6.45054 6.61678 8.00154 6.61678V5.01678ZM4.35072 4.0249C3.72439 3.68042 3.17166 3.19958 2.62047 2.61394L1.45535 3.71053C2.0678 4.36125 2.75143 4.97133 3.57965 5.42684L4.35072 4.0249ZM2.60359 2.59655C2.71143 2.70439 2.75624 2.85521 2.74303 2.98729C2.73144 3.10323 2.68041 3.17838 2.63996 3.21883L1.50859 2.08746C1.16214 2.4339 0.913507 3.1692 1.47222 3.72792L2.60359 2.59655ZM2.63996 3.21883C2.53212 3.32667 2.38129 3.37147 2.24921 3.35826C2.13328 3.34667 2.05813 3.29564 2.01768 3.25519L3.14905 2.12382C2.80261 1.77738 2.0673 1.52874 1.50859 2.08746L2.63996 3.21883ZM1.9813 3.21631C2.5491 3.86522 3.20255 4.39715 3.9403 4.80701L4.71733 3.40836C4.14599 3.09095 3.63581 2.67743 3.18542 2.1627L1.9813 3.21631ZM3.92711 4.79952C5.17871 5.52626 6.55405 5.88951 8.00154 5.88951V4.28951C6.83086 4.28951 5.73347 3.99821 4.73053 3.41586L3.92711 4.79952ZM8.00154 5.88951C9.44904 5.88951 10.8244 5.52626 12.076 4.79952L11.2726 3.41586C10.2696 3.99821 9.17223 4.28951 8.00154 4.28951V5.88951ZM12.0628 4.80701C12.8146 4.38934 13.4611 3.81769 14.0046 3.23536L12.8349 2.14365C12.3602 2.65223 11.843 3.09877 11.2858 3.40836L12.0628 4.80701ZM13.9854 3.25519C13.8287 3.41195 13.5979 3.40493 13.4488 3.29314L14.4088 2.01314C13.9689 1.68318 13.3017 1.67615 12.854 2.12382L13.9854 3.25519ZM13.3631 3.21883C13.2064 3.06207 13.2134 2.83128 13.3252 2.68223L14.6052 3.64223C14.9352 3.20228 14.9422 2.53513 14.4945 2.08746L13.3631 3.21883ZM13.3826 2.61394C12.8314 3.19958 12.2787 3.68042 11.6524 4.0249L12.4234 5.42684C13.2517 4.97133 13.9353 4.36125 14.5477 3.71053L13.3826 2.61394ZM11.6233 4.04171C10.5593 4.68656 9.2869 5.01678 8.00154 5.01678V6.61678C9.55255 6.61678 11.1166 6.21972 12.4525 5.41003L11.6233 4.04171Z" fill="white" mask="url(#path-17-inside-9_3511_132161)"/>
</g>
<path id="Vector_10" d="M13.6733 13.1026L13.6815 13.1109L13.6733 13.1026Z" stroke="white" stroke-width="0.8"/>
<path id="Vector_11" d="M9.22484 15.5005C10.9144 15.2095 12.4676 14.3582 13.6307 13.0434C14.8993 11.658 15.5879 9.81617 15.5879 7.93939C15.5879 7.52799 15.5548 7.11826 15.4898 6.71465C15.5627 7.13691 15.6 7.56666 15.6 8C15.6 9.86267 14.9107 11.6592 13.6656 13.0786C12.4889 14.3661 10.9293 15.2213 9.22484 15.5005Z" stroke="white" stroke-width="0.8"/>
<g id="Vector_12">
<mask id="path-21-inside-10_3511_132161" fill="white">
<path d="M7.9968 16C6.21499 16 4.61499 14.3636 3.81499 11.7091C3.45135 10.5818 3.26953 9.30909 3.26953 8C3.26953 6.72727 3.45135 5.41818 3.81499 4.29091C4.61499 1.63636 6.21499 0 7.9968 0C9.77862 0 11.3786 1.63636 12.1786 4.29091C12.5423 5.41818 12.7241 6.69091 12.7241 8C12.7241 9.27273 12.5423 10.5818 12.1786 11.7091C11.3786 14.3636 9.77862 16 7.9968 16ZM7.9968 0.727273C6.54226 0.727273 5.1968 2.18182 4.50589 4.50909C4.17862 5.56364 3.9968 6.8 3.9968 8C3.9968 9.2 4.17862 10.4364 4.50589 11.4909C5.1968 13.8182 6.54226 15.2727 7.9968 15.2727C9.45135 15.2727 10.7968 13.8182 11.4877 11.4909C11.815 10.4364 11.9968 9.23636 11.9968 8C11.9968 6.76364 11.815 5.56364 11.4877 4.50909C10.7968 2.18182 9.45135 0.727273 7.9968 0.727273Z"/>
</mask>
<path d="M3.81499 11.7091L4.58096 11.4783L4.57873 11.4708L4.57635 11.4635L3.81499 11.7091ZM3.81499 4.29091L4.57635 4.53651L4.57873 4.52915L4.58096 4.52175L3.81499 4.29091ZM12.1786 4.29091L11.4127 4.52175L11.4149 4.52915L11.4173 4.53651L12.1786 4.29091ZM12.1786 11.7091L11.4173 11.4635L11.4149 11.4708L11.4127 11.4783L12.1786 11.7091ZM4.50589 4.50909L5.27 4.74623L5.27281 4.73677L4.50589 4.50909ZM4.50589 11.4909L5.27287 11.2632L5.26995 11.2538L4.50589 11.4909ZM11.4877 11.4909L10.7236 11.2538L10.7208 11.2632L11.4877 11.4909ZM11.4877 4.50909L10.7207 4.73679L10.7237 4.74621L11.4877 4.50909ZM7.9968 15.2C6.75552 15.2 5.34624 14.0176 4.58096 11.4783L3.04901 11.9399C3.88373 14.7097 5.67445 16.8 7.9968 16.8V15.2ZM4.57635 11.4635C4.24185 10.4265 4.06953 9.23807 4.06953 8H2.46953C2.46953 9.38011 2.66085 10.7371 3.05362 11.9547L4.57635 11.4635ZM4.06953 8C4.06953 6.79709 4.24217 5.57248 4.57635 4.53651L3.05362 4.04531C2.66053 5.26389 2.46953 6.65745 2.46953 8H4.06953ZM4.58096 4.52175C5.34624 1.98239 6.75552 0.8 7.9968 0.8V-0.8C5.67445 -0.8 3.88373 1.29034 3.04901 4.06007L4.58096 4.52175ZM7.9968 0.8C9.23809 0.8 10.6474 1.98239 11.4127 4.52175L12.9446 4.06007C12.1099 1.29034 10.3192 -0.8 7.9968 -0.8V0.8ZM11.4173 4.53651C11.7518 5.57346 11.9241 6.76193 11.9241 8H13.5241C13.5241 6.61989 13.3328 5.2629 12.94 4.04531L11.4173 4.53651ZM11.9241 8C11.9241 9.20291 11.7514 10.4275 11.4173 11.4635L12.94 11.9547C13.3331 10.7361 13.5241 9.34255 13.5241 8H11.9241ZM11.4127 11.4783C10.6474 14.0176 9.23809 15.2 7.9968 15.2V16.8C10.3192 16.8 12.1099 14.7097 12.9446 11.9399L11.4127 11.4783ZM7.9968 -0.0727273C6.98559 -0.0727273 6.08646 0.434851 5.3773 1.20266C4.66929 1.96922 4.10957 3.03309 3.73898 4.28141L5.27281 4.73677C5.59313 3.65782 6.05159 2.83078 6.55267 2.28825C7.0526 1.74697 7.55348 1.52727 7.9968 1.52727V-0.0727273ZM3.74184 4.27197C3.38907 5.4087 3.1968 6.72546 3.1968 8H4.7968C4.7968 6.87454 4.96818 5.71857 5.26995 4.74621L3.74184 4.27197ZM3.1968 8C3.1968 9.27454 3.38907 10.5913 3.74184 11.728L5.26995 11.2538C4.96818 10.2814 4.7968 9.12546 4.7968 8H3.1968ZM3.73898 11.7186C4.10957 12.9669 4.66929 14.0308 5.3773 14.7973C6.08646 15.5651 6.98559 16.0727 7.9968 16.0727V14.4727C7.55348 14.4727 7.0526 14.253 6.55267 13.7118C6.05159 13.1692 5.59313 12.3422 5.27281 11.2632L3.73898 11.7186ZM7.9968 16.0727C9.00802 16.0727 9.90715 15.5651 10.6163 14.7973C11.3243 14.0308 11.884 12.9669 12.2546 11.7186L10.7208 11.2632C10.4005 12.3422 9.94202 13.1692 9.44094 13.7118C8.941 14.253 8.44013 14.4727 7.9968 14.4727V16.0727ZM12.2518 11.728C12.6042 10.5924 12.7968 9.31214 12.7968 8H11.1968C11.1968 9.16059 11.0258 10.2803 10.7237 11.2538L12.2518 11.728ZM12.7968 8C12.7968 6.68786 12.6042 5.40759 12.2518 4.27197L10.7237 4.74621C11.0258 5.71968 11.1968 6.83941 11.1968 8H12.7968ZM12.2546 4.28141C11.884 3.03309 11.3243 1.96922 10.6163 1.20266C9.90715 0.434851 9.00802 -0.0727273 7.9968 -0.0727273V1.52727C8.44013 1.52727 8.941 1.74697 9.44094 2.28825C9.94202 2.83078 10.4005 3.65782 10.7208 4.73677L12.2546 4.28141Z" fill="white" mask="url(#path-21-inside-10_3511_132161)"/>
</g>
<g id="Vector_13">
<mask id="path-23-inside-11_3511_132161" fill="white">
<path d="M8.00036 16C7.78217 16 7.63672 15.8545 7.63672 15.6364V0.363636C7.63672 0.145455 7.78217 0 8.00036 0C8.21854 0 8.36399 0.145455 8.36399 0.363636V15.6364C8.36399 15.8545 8.21854 16 8.00036 16Z"/>
</mask>
<path d="M8.00036 15.2C8.07306 15.2 8.19582 15.2277 8.3024 15.3343C8.40899 15.4409 8.43672 15.5637 8.43672 15.6364H6.83672C6.83672 15.9273 6.93717 16.2318 7.17103 16.4657C7.40489 16.6995 7.70947 16.8 8.00036 16.8V15.2ZM8.43672 15.6364V0.363636H6.83672V15.6364H8.43672ZM8.43672 0.363636C8.43672 0.436344 8.40899 0.559098 8.3024 0.665685C8.19582 0.772272 8.07306 0.8 8.00036 0.8V-0.8C7.70947 -0.8 7.40489 -0.699545 7.17103 -0.465685C6.93717 -0.231826 6.83672 0.0727473 6.83672 0.363636H8.43672ZM8.00036 0.8C7.92765 0.8 7.80489 0.772272 7.69831 0.665685C7.59172 0.559098 7.56399 0.436344 7.56399 0.363636H9.16399C9.16399 0.0727473 9.06354 -0.231826 8.82968 -0.465685C8.59582 -0.699545 8.29124 -0.8 8.00036 -0.8V0.8ZM7.56399 0.363636V15.6364H9.16399V0.363636H7.56399ZM7.56399 15.6364C7.56399 15.5637 7.59172 15.4409 7.69831 15.3343C7.80489 15.2277 7.92765 15.2 8.00036 15.2V16.8C8.29124 16.8 8.59582 16.6995 8.82968 16.4657C9.06354 16.2318 9.16399 15.9273 9.16399 15.6364H7.56399Z" fill="white" mask="url(#path-23-inside-11_3511_132161)"/>
</g>
<g id="Vector_14">
<mask id="path-25-inside-12_3511_132161" fill="white">
<path d="M15.6364 8.36399H0.363636C0.145455 8.36399 0 8.21854 0 8.00036C0 7.78217 0.145455 7.63672 0.363636 7.63672H15.6364C15.8545 7.63672 16 7.78217 16 8.00036C16 8.21854 15.8545 8.36399 15.6364 8.36399Z"/>
</mask>
<path d="M15.6364 7.56399H0.363636V9.16399H15.6364V7.56399ZM0.363636 7.56399C0.436344 7.56399 0.559098 7.59172 0.665685 7.69831C0.772272 7.80489 0.8 7.92765 0.8 8.00036H-0.8C-0.8 8.29124 -0.699545 8.59582 -0.465685 8.82968C-0.231826 9.06354 0.0727473 9.16399 0.363636 9.16399V7.56399ZM0.8 8.00036C0.8 8.07306 0.772272 8.19582 0.665685 8.3024C0.559098 8.40899 0.436344 8.43672 0.363636 8.43672V6.83672C0.0727473 6.83672 -0.231826 6.93717 -0.465685 7.17103C-0.699545 7.40489 -0.8 7.70947 -0.8 8.00036H0.8ZM0.363636 8.43672H15.6364V6.83672H0.363636V8.43672ZM15.6364 8.43672C15.5637 8.43672 15.4409 8.40899 15.3343 8.3024C15.2277 8.19582 15.2 8.07306 15.2 8.00036H16.8C16.8 7.70947 16.6995 7.40489 16.4657 7.17103C16.2318 6.93717 15.9273 6.83672 15.6364 6.83672V8.43672ZM15.2 8.00036C15.2 7.92765 15.2277 7.80489 15.3343 7.69831C15.4409 7.59172 15.5637 7.56399 15.6364 7.56399V9.16399C15.9273 9.16399 16.2318 9.06354 16.4657 8.82968C16.6995 8.59582 16.8 8.29124 16.8 8.00036H15.2Z" fill="white" mask="url(#path-25-inside-12_3511_132161)"/>
</g>
<path id="Ellipse 138 (Stroke)" d="M8 15.25C12.0041 15.25 15.25 12.0041 15.25 8C15.25 3.99594 12.0041 0.75 8 0.75C3.99594 0.75 0.75 3.99594 0.75 8C0.75 12.0041 3.99594 15.25 8 15.25ZM15.55 8C15.55 12.1697 12.1697 15.55 8 15.55C3.83025 15.55 0.45 12.1697 0.45 8C0.45 3.83025 3.83025 0.45 8 0.45C12.1697 0.45 15.55 3.83025 15.55 8Z" stroke="white" stroke-width="0.9"/>
</g>
</svg>
