<svg width="12" height="12" viewBox="0 0 12 12" fill="none" xmlns="http://www.w3.org/2000/svg">
<g id="Actions / Operations / search / 21">
<g id="Fill">
<path fill-rule="evenodd" clip-rule="evenodd" d="M11.2494 10.7207L8.41819 7.87444C9.82418 6.178 9.64874 3.67608 8.01975 2.19247C6.39075 0.708853 3.88338 0.767376 2.32538 2.32538C0.767376 3.88338 0.708853 6.39075 2.19247 8.01975C3.67608 9.64874 6.178 9.82418 7.87444 8.41819L10.7207 11.2494L11.2494 10.7207ZM1.87444 5.24944C1.87444 3.38547 3.38547 1.87444 5.24944 1.87444C7.1134 1.87444 8.62444 3.38547 8.62444 5.24944C8.62444 7.1134 7.1134 8.62444 5.24944 8.62444C3.38547 8.62444 1.87444 7.1134 1.87444 5.24944Z"/>
<path d="M11.2494 10.7207L11.4262 10.8975L11.6025 10.7212L11.4267 10.5444L11.2494 10.7207ZM8.41819 7.87444L8.2257 7.71491L8.08079 7.88975L8.24094 8.05074L8.41819 7.87444ZM7.87444 8.41819L8.05074 8.24094L7.88975 8.08079L7.71491 8.2257L7.87444 8.41819ZM10.7207 11.2494L10.5444 11.4267L10.7212 11.6025L10.8975 11.4262L10.7207 11.2494ZM1.87444 5.24944H2.12444H1.87444ZM11.4267 10.5444L8.59543 7.69813L8.24094 8.05074L11.0722 10.897L11.4267 10.5444ZM8.61067 8.03397C10.1019 6.23471 9.9158 3.58117 8.18808 2.00764L7.85141 2.3773C9.38168 3.771 9.54649 6.12128 8.2257 7.71491L8.61067 8.03397ZM8.18808 2.00764C6.46036 0.434105 3.80103 0.496175 2.1486 2.1486L2.50215 2.50215C3.96573 1.03858 6.32114 0.983601 7.85141 2.3773L8.18808 2.00764ZM2.1486 2.1486C0.496175 3.80103 0.434105 6.46036 2.00764 8.18808L2.3773 7.85141C0.983601 6.32114 1.03858 3.96573 2.50215 2.50215L2.1486 2.1486ZM2.00764 8.18808C3.58117 9.9158 6.23471 10.1019 8.03397 8.61067L7.71491 8.2257C6.12128 9.54649 3.771 9.38168 2.3773 7.85141L2.00764 8.18808ZM7.69813 8.59543L10.5444 11.4267L10.897 11.0722L8.05074 8.24094L7.69813 8.59543ZM10.8975 11.4262L11.4262 10.8975L11.0727 10.5439L10.5439 11.0727L10.8975 11.4262ZM2.12444 5.24944C2.12444 3.52355 3.52355 2.12444 5.24944 2.12444V1.62444C3.2474 1.62444 1.62444 3.2474 1.62444 5.24944H2.12444ZM5.24944 2.12444C6.97533 2.12444 8.37444 3.52355 8.37444 5.24944H8.87444C8.87444 3.2474 7.25147 1.62444 5.24944 1.62444V2.12444ZM8.37444 5.24944C8.37444 6.97533 6.97533 8.37444 5.24944 8.37444V8.87444C7.25147 8.87444 8.87444 7.25147 8.87444 5.24944H8.37444ZM5.24944 8.37444C3.52355 8.37444 2.12444 6.97533 2.12444 5.24944H1.62444C1.62444 7.25147 3.2474 8.87444 5.24944 8.87444V8.37444Z"/>
</g>
</g>
</svg>
