<svg width="21" height="22" viewBox="0 0 21 22" fill="none" xmlns="http://www.w3.org/2000/svg">
<path d="M10.5007 21.4791C4.74753 21.4791 0.0839844 16.8155 0.0839844 11.0624C0.0839844 5.30929 4.74753 0.645752 10.5007 0.645752C16.2538 0.645752 20.9173 5.30929 20.9173 11.0624C20.9173 16.8155 16.2538 21.4791 10.5007 21.4791ZM5.30586 17.5791C6.78039 18.7579 8.61282 19.3988 10.5007 19.3958C12.5527 19.3958 14.4309 18.6541 15.8829 17.4249C15.2045 16.7288 14.3934 16.1758 13.4976 15.7987C12.6017 15.4215 11.6393 15.2278 10.6673 15.2291C9.6596 15.2279 8.66263 15.4362 7.73968 15.8408C6.81672 16.2453 5.98792 16.8373 5.30586 17.5791ZM3.85065 16.0833C4.72612 15.1542 5.7826 14.4142 6.95496 13.909C8.12733 13.4038 9.39073 13.144 10.6673 13.1458C11.8982 13.1442 13.1173 13.3857 14.2546 13.8566C15.3918 14.3274 16.4249 15.0183 17.2944 15.8895C18.1861 14.6344 18.7128 13.1568 18.8158 11.6207C18.9189 10.0845 18.5944 8.5498 17.8782 7.18685C17.1621 5.8239 16.0824 4.68598 14.759 3.89934C13.4355 3.1127 11.9199 2.70808 10.3804 2.73039C8.84099 2.7527 7.3378 3.20105 6.03765 4.02571C4.73751 4.85037 3.69123 6.01909 3.01491 7.40221C2.33859 8.78534 2.05867 10.3288 2.20619 11.8613C2.35371 13.3939 2.92291 14.8556 3.85065 16.0843V16.0833ZM10.5007 12.1041C9.39558 12.1041 8.33577 11.6651 7.55437 10.8837C6.77297 10.1023 6.33398 9.04249 6.33398 7.93742C6.33398 6.83235 6.77297 5.77254 7.55437 4.99114C8.33577 4.20974 9.39558 3.77075 10.5007 3.77075C11.6057 3.77075 12.6655 4.20974 13.4469 4.99114C14.2283 5.77254 14.6673 6.83235 14.6673 7.93742C14.6673 9.04249 14.2283 10.1023 13.4469 10.8837C12.6655 11.6651 11.6057 12.1041 10.5007 12.1041ZM10.5007 10.0208C11.0532 10.0208 11.5831 9.80126 11.9738 9.41056C12.3645 9.01986 12.584 8.48995 12.584 7.93742C12.584 7.38488 12.3645 6.85498 11.9738 6.46428C11.5831 6.07358 11.0532 5.85409 10.5007 5.85409C9.94812 5.85409 9.41821 6.07358 9.02751 6.46428C8.63681 6.85498 8.41732 7.38488 8.41732 7.93742C8.41732 8.48995 8.63681 9.01986 9.02751 9.41056C9.41821 9.80126 9.94812 10.0208 10.5007 10.0208Z" fill="black"/>
</svg>
