<svg width="24" height="24" viewBox="0 0 24 24" fill="none" xmlns="http://www.w3.org/2000/svg">
<mask id="mask0_3105_133698" style="mask-type:luminance" maskUnits="userSpaceOnUse" x="3" y="3" width="18" height="18">
<path d="M21 3H3V21H21V3Z" fill="white"/>
</mask>
<g mask="url(#mask0_3105_133698)">
<path d="M20.2 6.7002H15.8V6.4002C15.8 4.8002 14.9 3.7002 13 3.7002H11C9.5 3.7002 8.2 4.9002 8.2 6.4002V6.7002H3.8C3.4 6.7002 3 7.1002 3 7.6002V20.2002C3 20.6002 3.4 21.0002 3.8 21.0002H20.2C20.6 21.0002 21 20.6002 21 20.1002V7.6002C21 7.1002 20.6 6.7002 20.2 6.7002ZM9.6 6.4002C9.6 5.6002 10.2 4.9002 11 4.9002H13C13.8 4.9002 14.4 5.6002 14.4 6.4002V6.7002H9.6V6.4002ZM19.6 8.0002V12.7002H4.3V8.0002H19.6ZM11.8 13.9002H12.1V14.3002H11.8V13.9002ZM4.2 19.7002V13.9002H10.7V15.0002H13.2V13.9002H19.6V19.7002H4.2Z" fill="#262626"/>
</g>
</svg>
