<svg width="24" height="24" viewBox="0 0 24 24" fill="none" xmlns="http://www.w3.org/2000/svg">
<rect x="0.5" y="0.5" width="23" height="23" rx="11.5" stroke=""/>
<rect width="24" height="24" rx="12" fill=""/>
<g clip-path="url(#clip0_3927_180029)">
<g opacity="0.8">
<path d="M15.9141 4.64647H16.6261V4.39438C16.6268 4.20824 16.5567 4.02951 16.4306 3.89682C16.304 3.76375 16.132 3.68726 15.9516 3.68414C15.3734 3.67595 14.8244 3.94326 14.464 4.40882C14.45 4.42755 14.436 4.44667 14.4227 4.46618C13.9972 5.07808 13.9927 5.9011 14.3829 6.53797L15.0597 7.64157C15.3526 8.11961 15.3806 8.72955 15.1063 9.21852C15.0286 9.35706 14.9305 9.48194 14.8153 9.58847L14.4295 9.94749C14.5947 10.2441 14.7224 10.561 14.8092 10.8911L15.4416 10.303C15.7701 9.99705 16.0111 9.60408 16.1384 9.16701C16.2657 8.72994 16.2748 8.26556 16.1642 7.82381C16.1199 7.65093 16.0494 7.48625 15.9554 7.33601L15.1097 5.96392C15.0998 5.94753 15.0911 5.93036 15.0839 5.91241C14.9668 5.63027 14.9975 5.30637 15.165 5.05232C15.3329 4.79672 15.6144 4.64452 15.9141 4.64647Z" fill="white"/>
<path d="M10.9386 8.36462C9.55221 8.36462 8.34538 9.12754 7.71714 10.2542C6.51675 11.4436 5.62897 13.0116 5.10645 14.0883C5.01627 14.2736 5.02574 14.4941 5.13146 14.6705C5.23755 14.8469 5.42473 14.9542 5.62631 14.9542C5.83092 14.9538 6.02038 14.8426 6.12572 14.6619L7.30451 12.6186C7.35377 12.9222 7.44054 13.2134 7.56027 13.4873C7.44167 13.7082 7.32762 13.9314 7.2185 14.157C7.12831 14.3427 7.13779 14.5628 7.24388 14.7392C7.3496 14.916 7.53678 15.0233 7.73798 15.0233C7.94297 15.0233 8.13243 14.9117 8.23739 14.7306L8.31393 14.5983C8.98195 15.2742 9.91103 15.6937 10.939 15.6937C12.9723 15.6937 14.6205 14.0532 14.6205 12.0294C14.6205 10.0056 12.9723 8.36501 10.939 8.36501L10.9386 8.36462Z" fill="white"/>
</g>
<path d="M14.5222 8.00327C14.6298 8.16912 14.6756 8.36932 14.6514 8.56717C14.6271 8.76502 14.5343 8.94726 14.3903 9.08033L14.0675 9.38043C13.3252 8.45283 12.2188 7.91547 11.051 7.91547C10.7247 7.91547 10.5137 7.93147 10.2105 8.00951L10.0381 8.05244C7.30429 8.80248 5.41656 11.9584 4.5318 13.7812C4.33894 14.1784 4.3594 14.6502 4.58637 15.028C4.81295 15.4057 5.21346 15.6356 5.64466 15.6356C6.06071 15.634 6.44833 15.4202 6.67985 15.0643C6.68591 15.0752 6.69159 15.0861 6.69803 15.0971C6.92008 15.4697 7.31225 15.6992 7.73663 15.7047C8.19132 15.7062 8.61191 15.4576 8.84077 15.053L8.94763 14.868L9.36216 14.1503C9.45764 13.9899 9.41369 13.7808 9.2625 13.6758C9.18672 13.6262 9.09502 13.6102 9.00749 13.6317C8.92035 13.6532 8.84494 13.7097 8.79909 13.7894L8.25574 14.7302C8.15078 14.9113 7.96132 15.0221 7.75633 15.0225C7.55475 15.0225 7.36795 14.9152 7.26185 14.7388C7.15576 14.5624 7.14629 14.3419 7.23647 14.1566C7.51269 13.586 7.81809 13.0315 8.15229 12.4949C8.19056 12.5039 8.22959 12.5125 8.26862 12.5207C8.60774 12.5917 8.95293 12.6272 9.29888 12.6272C10.3682 12.6272 11.7061 12.2858 13.116 11.092C13.2551 10.9777 13.2843 10.7716 13.1831 10.6206C13.1293 10.5441 13.0474 10.4938 12.9565 10.4821C12.8656 10.47 12.7739 10.4973 12.7034 10.5574C11.337 11.7176 9.89869 12.1546 8.42852 11.8569C8.34478 11.8401 8.26369 11.8206 8.18488 11.8003L8.17692 11.814C8.02498 11.7176 7.82643 11.7625 7.72753 11.9154L6.14331 14.6612C6.03835 14.8422 5.84852 14.9531 5.64391 14.9538C5.44232 14.9538 5.25552 14.8465 5.14943 14.6701C5.04371 14.4937 5.03386 14.2733 5.12404 14.0879C5.92619 12.4356 7.58885 9.62433 9.92105 8.80365L9.93469 8.79897C10.292 8.66356 10.6698 8.59604 11.0506 8.60034C12.2112 8.6019 13.2831 9.24033 13.8629 10.2756C14.443 11.3109 14.443 12.5862 13.8629 13.6216C13.2831 14.6569 12.2112 15.2953 11.0506 15.2969C10.5481 15.2984 10.0525 15.179 9.60314 14.9476C9.5213 14.9054 9.42657 14.9004 9.34056 14.9328C9.25492 14.9651 9.18596 15.0327 9.14997 15.1193C9.08328 15.2894 9.15641 15.4838 9.31669 15.5634C9.70128 15.7601 10.1151 15.8892 10.5409 15.9458L9.78426 17.5833H6.85415C6.67682 17.5809 6.52752 17.7199 6.51199 17.9021C6.50593 17.9965 6.53813 18.089 6.60065 18.1581C6.66317 18.2272 6.75108 18.2662 6.84278 18.2662H9.46977L7.96928 21.5134C7.90828 21.6449 7.93556 21.8018 8.03635 21.9036C8.10152 21.9676 8.18829 22.0027 8.27847 22.0012H10.1617C10.339 22.0035 10.4883 21.8646 10.5038 21.6823C10.5099 21.5879 10.4777 21.4954 10.4151 21.4264C10.3522 21.3573 10.2647 21.3183 10.173 21.3183H8.79379L10.2045 18.2658H12.9069C12.9834 18.267 13.0577 18.242 13.1187 18.1948C13.2358 18.1015 13.2786 17.9396 13.224 17.7983L12.4226 15.7238C13.1691 15.4354 13.8125 14.9195 14.2668 14.2448C14.7211 13.57 14.9651 12.7689 14.9659 11.9478C14.9659 11.8616 14.9628 11.7761 14.9579 11.6914L15.9059 10.8099C16.3489 10.397 16.6664 9.86081 16.8199 9.26609C16.9733 8.67136 16.9563 8.04347 16.7706 7.4585C16.7278 7.32425 16.6691 7.19586 16.5956 7.07606L15.7074 5.6271C15.6858 5.56115 15.696 5.48856 15.7358 5.43198C15.7817 5.36642 15.8555 5.32818 15.934 5.32974H19.2582C19.4355 5.33208 19.5848 5.19315 19.6003 5.0113C19.6064 4.91686 19.5742 4.82438 19.5117 4.7553C19.4491 4.68623 19.3612 4.64721 19.2695 4.64721H17.309V4.39472C17.309 4.02595 17.1673 3.67239 16.9146 3.41132C16.6611 3.1483 16.3182 3.00118 15.9601 3C15.1746 2.99844 14.4263 3.36878 13.9591 3.98926C13.942 4.0119 13.9254 4.03492 13.9091 4.05834C13.3214 4.89618 13.3104 6.02553 13.8458 6.89967L14.5225 8.00366L14.5222 8.00327ZM12.4268 17.5817H10.5197L11.2635 15.972C11.4367 15.9622 11.6095 15.9408 11.78 15.9076L12.4268 17.5817ZM14.402 6.53636C14.0118 5.89949 14.0163 5.07647 14.4418 4.46458C14.4551 4.44545 14.4691 4.42633 14.4831 4.4076C14.8435 3.94204 15.3925 3.67473 15.9707 3.68292C16.1515 3.68605 16.3231 3.76253 16.4497 3.89522C16.5759 4.02829 16.6463 4.20702 16.6452 4.39277V4.64526H15.9332C15.6335 4.64291 15.352 4.79511 15.1837 5.05111C15.0163 5.30476 14.9856 5.62905 15.1027 5.91119C15.1099 5.92915 15.1186 5.94632 15.1284 5.96271L15.9741 7.33479C16.0681 7.48542 16.1382 7.64971 16.1825 7.82259C16.2932 8.26434 16.2841 8.72873 16.1568 9.16579C16.0295 9.60286 15.7885 9.99584 15.46 10.3018L14.8276 10.8899C14.7404 10.5601 14.6127 10.2432 14.4475 9.94666L14.8336 9.58764C14.9488 9.48072 15.0466 9.35584 15.1242 9.2177C15.399 8.72834 15.3705 8.11878 15.0776 7.64074L14.4009 6.53714L14.402 6.53636Z" class="stroke"/>
</g>
<defs>
<clipPath id="clip0_3927_180029">
<rect width="15.2" height="19" fill="" transform="translate(4.40039 3)"/>
</clipPath>
</defs>
</svg>
