<svg width="24" height="24" viewBox="0 0 24 24" fill="none" xmlns="http://www.w3.org/2000/svg">
<rect x="0.5" y="0.5" width="23" height="23" rx="11.5" stroke=""/>
<rect width="24" height="24" rx="12" fill=""/>
<g clip-path="url(#clip0_3927_180050)">
<path opacity="0.8" d="M6.13321 8.59788C6.13321 9.40026 6.37644 10.1223 6.38019 10.923C6.41768 10.9116 6.45933 10.9125 6.50139 10.9168C6.50264 11.019 6.50597 11.1207 6.51056 11.2224C6.75754 11.3931 7.06033 11.4241 7.34312 11.5158C8.32022 11.8323 9.28357 10.6078 10.2761 10.8666C10.5605 10.9409 10.8038 11.1312 11.0732 11.2521C11.94 11.6415 12.9358 11.2752 13.7888 10.8531C13.92 10.7881 14.0545 10.7204 14.1999 10.7082C14.6605 10.6684 14.9799 11.1648 15.3885 11.3914C15.7613 11.5979 16.2078 11.5734 16.6293 11.5437C16.6976 11.5389 16.7675 11.5337 16.8313 11.5062C16.9291 11.4638 16.9899 11.3853 17.0266 11.2879C17.0478 11.2931 17.0703 11.291 17.0936 11.2801C17.1386 11.2587 17.1644 11.2098 17.1874 11.1639C17.5889 10.3458 17.8721 9.52774 17.8721 8.59788C17.8721 5.52849 15.239 3.03186 12.0028 3.03186C8.7667 3.03186 6.13363 5.52893 6.13363 8.59788H6.13321Z" fill="white"/>
<path d="M17.1902 10.331C17.0982 10.3009 17.0207 10.2336 16.9762 10.1437C16.9316 10.0538 16.922 9.94902 16.9508 9.85254C17.0745 9.43607 17.1373 9.00214 17.1373 8.56602C17.1373 5.91791 14.8325 3.76396 11.9999 3.76396C9.16734 3.76396 6.86246 5.91834 6.86246 8.56602C6.86246 9.00257 6.92535 9.43607 7.04905 9.85254C7.10903 10.0538 7.00157 10.2681 6.80957 10.331C6.61757 10.3939 6.41307 10.2812 6.35309 10.08C6.20732 9.58973 6.1336 9.07941 6.1336 8.56602C6.1336 5.49663 8.76542 3 11.9999 3C15.2344 3 17.8662 5.49707 17.8662 8.56602C17.8662 9.07941 17.7925 9.58973 17.6467 10.08C17.5867 10.2812 17.3827 10.3939 17.1902 10.331Z" class="stroke"/>
<path d="M7.57601 12.0593C6.89213 12.0593 6.52978 11.7463 6.23823 11.4948C5.97584 11.2682 5.78592 11.1045 5.36401 11.1045C5.16285 11.1045 4.99958 10.9338 4.99958 10.7226C4.99958 10.5113 5.16285 10.3406 5.36401 10.3406C6.0479 10.3406 6.41025 10.6536 6.70179 10.905C6.96418 11.1316 7.1541 11.2953 7.57601 11.2953C7.99792 11.2953 8.18784 11.1316 8.45023 10.905C8.74177 10.6536 9.10412 10.3406 9.78801 10.3406C10.4719 10.3406 10.8342 10.6536 11.1258 10.905C11.3882 11.1316 11.5777 11.2953 12 11.2953C12.4223 11.2953 12.6118 11.1316 12.8742 10.905C13.1658 10.6536 13.5281 10.3406 14.212 10.3406C14.8959 10.3406 15.2582 10.6536 15.5498 10.905C15.8122 11.1316 16.0017 11.2953 16.424 11.2953C16.8463 11.2953 17.0358 11.1316 17.2982 10.905C17.5898 10.6536 17.9521 10.3406 18.6356 10.3406C18.8367 10.3406 19 10.5117 19 10.7226C19 10.9334 18.8367 11.1045 18.6356 11.1045C18.2132 11.1045 18.0237 11.2682 17.7613 11.4948C17.4698 11.7463 17.1075 12.0593 16.4236 12.0593C15.7397 12.0593 15.3773 11.7463 15.0858 11.4948C14.8234 11.2682 14.6339 11.1045 14.2116 11.1045C13.7893 11.1045 13.5998 11.2682 13.3374 11.4948C13.0458 11.7463 12.6835 12.0593 11.9996 12.0593C11.3157 12.0593 10.9534 11.7463 10.6618 11.4948C10.3994 11.2682 10.2099 11.1045 9.78759 11.1045C9.36526 11.1045 9.17576 11.2682 8.91337 11.4948C8.62224 11.7467 8.25947 12.0593 7.57559 12.0593H7.57601Z" class="stroke"/>
<path d="M13.3153 12.4666C13.5164 12.4666 13.6797 12.6377 13.6797 12.8485V21.618C13.6797 21.8288 13.5164 21.9999 13.3153 21.9999C13.1141 21.9999 12.9508 21.8288 12.9508 21.618V12.8485C12.9508 12.7473 12.9891 12.6499 13.0574 12.5783C13.1258 12.5067 13.2186 12.4666 13.3153 12.4666Z" class="stroke"/>
<path d="M10.6844 12.4666C10.8856 12.4666 11.0488 12.6377 11.0488 12.8485V21.618C11.0488 21.8288 10.8856 21.9999 10.6844 21.9999C10.4832 21.9999 10.32 21.8288 10.32 21.618V12.8485C10.32 12.7473 10.3583 12.6499 10.4266 12.5783C10.4949 12.5067 10.5878 12.4666 10.6844 12.4666Z" class="stroke"/>
<path d="M15.0616 12.4666C15.2632 12.4666 15.426 12.6377 15.426 12.8485V17.8898C15.426 18.2085 15.5881 18.5027 15.8513 18.6621C16.1145 18.8214 16.439 18.8214 16.7022 18.6621C16.9654 18.5027 17.1274 18.2085 17.1274 17.8898V17.1678C17.1278 16.774 17.2774 16.3964 17.5431 16.1179C17.8088 15.8393 18.1691 15.6831 18.5447 15.6822C18.7459 15.6822 18.9092 15.8533 18.9092 16.0642C18.9092 16.275 18.7459 16.4461 18.5447 16.4461C18.3623 16.4461 18.1874 16.5225 18.0583 16.6579C17.9296 16.7928 17.8567 16.9761 17.8567 17.1678V17.8898C17.8567 18.4813 17.5556 19.0279 17.067 19.3235C16.5785 19.6194 15.9762 19.6194 15.4873 19.3235C14.9987 19.0279 14.6976 18.4813 14.6976 17.8898V12.8485C14.6976 12.7473 14.7359 12.6499 14.8046 12.5783C14.8729 12.5067 14.9654 12.4666 15.062 12.4666H15.0616Z" class="stroke"/>
<path d="M5.45517 15.6827C5.83085 15.6831 6.19111 15.8398 6.45684 16.1184C6.72256 16.3969 6.87166 16.7745 6.8725 17.1683V17.8903C6.8725 18.209 7.03451 18.5032 7.29774 18.6626C7.56096 18.8219 7.88541 18.8219 8.14863 18.6626C8.41186 18.5032 8.57387 18.209 8.57387 17.8903V12.849C8.57387 12.6382 8.73714 12.467 8.9383 12.467C9.13947 12.467 9.30273 12.6382 9.30273 12.849V17.8903C9.30273 18.4818 9.00161 19.0284 8.51306 19.3239C8.02452 19.6199 7.42185 19.6199 6.93331 19.3239C6.44476 19.0284 6.14363 18.4818 6.14363 17.8903V17.1683C6.14363 16.977 6.07075 16.7937 5.94164 16.6584C5.81294 16.523 5.63801 16.4471 5.45517 16.4466C5.254 16.4466 5.09074 16.2755 5.09074 16.0647C5.09074 15.8538 5.254 15.6827 5.45517 15.6827Z" class="stroke"/>
</g>
<defs>
<clipPath id="clip0_3927_180050">
<rect width="14" height="19" fill="" transform="matrix(-1 0 0 1 19 3)"/>
</clipPath>
</defs>
</svg>
