<svg width="24" height="24" viewBox="0 0 24 24" fill="none" xmlns="http://www.w3.org/2000/svg">
<rect width="24" height="24" rx="12" fill=""/>
<path opacity="0.8" d="M18.3471 6.16454C18.0818 5.91851 17.7676 5.61539 17.4382 5.45808C17.354 5.41783 16.7371 5.3402 16.7403 5.34595C16.6545 5.19932 16.496 5.09992 16.3148 5.09992H16.2737V5.01778C16.2737 4.7467 16.052 4.5249 15.7809 4.5249H7.85419C7.67059 4.5249 7.50999 4.62676 7.42497 4.77668C7.33009 4.76641 7.2348 4.76066 7.13828 4.76066C4.83778 4.76066 2.97266 7.70519 2.97266 11.3373C2.97266 14.9694 4.68458 17.6654 6.85118 17.8983V19.9417H9.56857V16.9692C9.56857 16.6981 9.79037 16.4763 10.0615 16.4763H16.9313C17.2024 16.4763 17.4242 16.6981 17.4242 16.9692V19.9417H20.1732V15.4676C20.1732 14.1352 20.1436 12.7991 20.1732 11.4671C20.2151 9.57442 19.7711 7.48586 18.3471 6.16413V6.16454Z" fill="white"/>
<path d="M16.2207 15.7958H10.6582C10.2425 15.7962 9.8441 15.9617 9.55043 16.2554C9.25634 16.5491 9.09123 16.9475 9.09082 17.3631V19.6065C9.09082 19.8049 9.25183 19.9659 9.45021 19.9659C9.64859 19.9659 9.8096 19.8049 9.8096 19.6065V17.3631C9.8096 17.138 9.89955 16.9224 10.0585 16.7635C10.2179 16.6045 10.4331 16.515 10.6582 16.5146H16.2207C16.4458 16.5146 16.6614 16.6045 16.8204 16.7635C16.9793 16.9228 17.0688 17.138 17.0688 17.3631V19.6065C17.0688 19.8049 17.2299 19.9659 17.4282 19.9659C17.6266 19.9659 17.7876 19.8049 17.7876 19.6065V17.3631C17.7872 16.9475 17.6217 16.5491 17.328 16.2554C17.0343 15.9617 16.6359 15.7962 16.2203 15.7958H16.2207Z" class="stroke"/>
<path d="M8.75487 8.20752C9.03417 8.48682 9.03417 8.93944 8.75487 9.21833C8.47557 9.49721 8.02295 9.49762 7.74365 9.21833C7.46436 8.93903 7.46436 8.48641 7.74365 8.20752C8.02295 7.92822 8.47557 7.92822 8.75487 8.20752Z" class="stroke"/>
<path d="M19.2104 5.94805C19.8237 5.93121 20.4184 6.15834 20.8649 6.57975C21.3109 7.00075 21.5721 7.58194 21.5906 8.19516L21.6095 8.84C21.6153 9.03838 21.4592 9.20391 21.2608 9.20966C21.2571 9.20966 21.2534 9.20966 21.2501 9.20966C21.0559 9.20966 20.8965 9.05481 20.8912 8.86054L20.8723 8.21569C20.8599 7.79264 20.68 7.39136 20.372 7.10056C20.0639 6.81017 19.6528 6.65368 19.2297 6.66601L19.0963 6.66888C19.9239 7.78935 20.3695 9.14641 20.3679 10.5392V19.6061C20.3679 19.8044 20.2069 19.9655 20.0085 19.9655C19.8101 19.9655 19.6491 19.8044 19.6491 19.6061V10.5396C19.6475 8.99649 19.0334 7.51663 17.9421 6.42573C16.8508 5.33442 15.3713 4.72038 13.8278 4.71873H12.281C13.2175 5.37426 13.8295 6.39862 13.9625 7.53429C14.0956 8.66996 13.7366 9.80768 12.9764 10.6616C12.2161 11.5155 11.1273 12.0039 9.98421 12.0034C9.78583 12.0034 9.62482 11.8429 9.62482 11.6441C9.62482 11.4453 9.78583 11.2847 9.98421 11.2847C11.1338 11.2847 12.2001 10.6842 12.7957 9.70089C13.3912 8.7176 13.4294 7.49445 12.8967 6.47584C12.364 5.45682 11.3376 4.79102 10.19 4.71914H8.93068C7.38757 4.72079 5.90771 5.33483 4.8164 6.42614C3.72509 7.51745 3.11105 8.9969 3.1094 10.54V11.6892C3.10694 12.8569 3.42731 14.0025 4.0356 14.9989C4.64389 15.9957 5.51587 16.8045 6.55543 17.3355V13.2139C6.06625 13.4681 5.52491 13.6053 4.97371 13.6143C4.97083 13.6143 4.96796 13.6143 4.96549 13.6143C4.76875 13.6143 4.60816 13.4558 4.6061 13.2586C4.60405 13.0619 4.76095 12.8997 4.95769 12.8956C6.33076 12.8643 7.01791 11.9484 7.02448 11.939C7.14236 11.7796 7.36662 11.7455 7.5264 11.8626C7.68617 11.9796 7.72067 12.2039 7.60444 12.3641C7.50586 12.491 7.39537 12.6085 7.27462 12.7144V19.6402C7.27462 19.8385 7.11361 19.9995 6.91523 19.9995C6.71685 19.9995 6.55584 19.8385 6.55584 19.6402V18.1328C5.31461 17.5738 4.2615 16.6685 3.5226 15.525C2.78369 14.3828 2.39062 13.0504 2.39062 11.6892V10.54C2.39062 6.9338 5.32447 4.00037 8.93027 4.00037H13.8274C15.587 3.99955 17.2726 4.7097 18.5003 5.97023L19.2104 5.94805Z" class="stroke"/>
</svg>
