<svg width="24" height="24" viewBox="0 0 24 24" fill="none" xmlns="http://www.w3.org/2000/svg">
<rect width="24" height="24" rx="12" fill=""/>
<path opacity="0.8" d="M22.0753 12.1368V11.6708C22.0753 10.2559 21.0974 9.14457 19.7497 9.02859C19.6481 9.02075 19.5539 8.97279 19.4881 8.89518C19.4222 8.81757 19.39 8.71685 19.3987 8.61527C19.4018 8.57951 19.41 8.5442 19.4227 8.5115C19.2199 8.47618 19.0111 8.457 18.7975 8.457C18.7835 8.457 18.7691 8.45743 18.7552 8.45787C19.3128 9.51691 19.6289 10.722 19.6289 11.9995C19.6289 12.2101 19.458 12.381 19.2474 12.381C19.0368 12.381 18.8659 12.2101 18.8659 11.9995C18.8659 8.21327 15.7856 5.13293 11.9993 5.13293C8.21313 5.13293 5.13322 8.21327 5.13322 11.9995C5.13322 12.1007 5.09311 12.1979 5.02161 12.2694C4.9501 12.3409 4.85288 12.381 4.75172 12.381C4.65057 12.381 4.55334 12.3409 4.48184 12.2694C4.41034 12.1979 4.37022 12.1007 4.37022 11.9995C4.37022 10.7229 4.68589 9.51866 5.24266 8.46005C5.19775 8.45831 5.15284 8.457 5.1075 8.457C4.92482 8.457 4.74518 8.47051 4.56991 8.49667C4.58604 8.53417 4.59694 8.57428 4.60043 8.6157C4.60915 8.71685 4.57689 8.81801 4.51105 8.89561C4.44478 8.97322 4.3506 9.02118 4.24945 9.02903C2.90178 9.14501 1.92383 10.2564 1.92383 11.6712V12.1373C1.9247 12.8405 2.20418 13.5146 2.70165 14.0116C3.19869 14.5091 3.87275 14.7886 4.57602 14.7895H5.50513C5.69741 14.7895 5.8596 14.9329 5.88358 15.1239C6.6614 16.6451 7.97812 17.8218 9.5765 18.4248C11.1753 19.0274 12.9415 19.0126 14.5299 18.3834C16.1182 17.7538 17.4153 16.5553 18.1674 15.021C18.2394 14.8849 18.378 14.7973 18.5315 14.7895H19.4231C20.1264 14.7886 20.8004 14.5091 21.2975 14.0116C21.795 13.5146 22.0744 12.8401 22.0753 12.1368ZM16.5752 12.8388C16.2547 13.1732 15.8636 13.4318 15.4302 13.5966C15.602 14.0605 15.6897 14.551 15.6888 15.0458C15.6888 16.1703 15.2388 17.2446 14.454 17.9932C14.3808 18.0634 14.2827 18.1013 14.1815 18.0991C14.0804 18.097 13.984 18.0542 13.9138 17.981C13.8768 17.9422 13.8493 17.8964 13.8314 17.8471C13.3108 18.2949 12.6612 18.5613 11.9557 18.5613C11.2503 18.5613 10.6517 18.315 10.142 17.8986C10.1263 17.9274 10.1071 17.9548 10.0831 17.9797C9.93794 18.1318 9.69683 18.1379 9.54467 17.9932C8.75987 17.2446 8.30992 16.1703 8.30992 15.0458C8.30948 14.551 8.39712 14.0605 8.56847 13.5966C7.7623 13.2896 7.11833 12.664 6.78828 11.8674C6.45779 11.0708 6.47044 10.1731 6.82272 9.38568C7.17501 8.59826 7.83555 7.99091 8.65 7.70621C9.46401 7.4215 10.3596 7.48472 11.1256 7.88061C11.6732 8.16488 12.325 8.16488 12.8727 7.88061C13.3575 7.62947 13.8999 7.50957 14.4457 7.53181C15.2319 7.56756 15.9765 7.8963 16.532 8.45351C17.0879 9.01072 17.4149 9.75584 17.4485 10.5424C17.4847 11.3952 17.169 12.2258 16.5752 12.8388Z" fill="white"/>
<path d="M4.57641 15.5525H5.24785C6.11505 17.2006 7.55516 18.475 9.29698 19.1351C11.0388 19.7952 12.9616 19.7952 14.7034 19.1351C16.4452 18.475 17.8853 17.201 18.7529 15.5525H19.4235C20.3291 15.5512 21.1972 15.1911 21.8372 14.551C22.4773 13.9105 22.8378 13.0429 22.8387 12.1373V11.6712C22.8448 10.8241 22.5427 10.004 21.9885 9.36348C21.4335 8.73084 20.6543 8.338 19.8155 8.26868C19.7143 8.25909 19.6132 8.29004 19.5347 8.35544C19.4841 8.3973 19.4462 8.45136 19.4231 8.51197C21.0528 8.7945 22.2893 10.1605 22.2893 11.8042C22.2893 13.6524 20.7263 15.1509 18.7979 15.1509C18.6418 15.1509 18.4887 15.14 18.3383 15.1213C17.172 17.5507 14.7404 19.2219 11.9295 19.2219C9.11866 19.2219 6.69057 17.5533 5.52297 15.1265C5.3865 15.1422 5.24829 15.1509 5.10746 15.1509C3.17947 15.1509 1.61597 13.6524 1.61597 11.8042C1.61597 10.1308 2.89694 8.74479 4.56987 8.49714C4.54633 8.44308 4.51057 8.39425 4.46436 8.35588C4.38588 8.29048 4.28516 8.25952 4.18357 8.26912C3.34471 8.33888 2.56558 8.73128 2.01055 9.36391C1.45727 10.004 1.15512 10.8241 1.16122 11.6712V12.1373C1.1621 13.0429 1.52267 13.911 2.16272 14.551C2.80276 15.1911 3.67084 15.5512 4.57641 15.5525Z" class="stroke"/>
<path d="M1.61719 11.8038C1.61719 13.652 3.18025 15.1506 5.10868 15.1506C5.2495 15.1506 5.38771 15.1418 5.52418 15.1262C6.69179 17.5529 9.12162 19.2215 11.9308 19.2215C14.7399 19.2215 17.1732 17.5503 18.3395 15.1209C18.4899 15.1401 18.6434 15.1506 18.7991 15.1506C20.7271 15.1506 22.2906 13.652 22.2906 11.8038C22.2906 10.1601 21.0541 8.79413 19.4243 8.5116C19.4117 8.54473 19.4034 8.57961 19.4003 8.61537C19.3916 8.71652 19.4239 8.81767 19.4897 8.89528C19.556 8.97289 19.6501 9.02085 19.7513 9.02869C21.099 9.14467 22.0769 10.256 22.0769 11.6709V12.1369C22.076 12.8402 21.7966 13.5143 21.2991 14.0113C20.8021 14.5088 20.128 14.7883 19.4247 14.7891H18.5331C18.3796 14.797 18.241 14.885 18.1691 15.0206C17.417 16.5549 16.1199 17.7535 14.5315 18.3831C12.9432 19.0122 11.1769 19.027 9.57811 18.4245C7.9793 17.8219 6.66258 16.6447 5.88519 15.1235C5.86121 14.9326 5.69902 14.7891 5.50674 14.7891H4.57763C3.87436 14.7883 3.2003 14.5088 2.70326 14.0113C2.20579 13.5143 1.92631 12.8402 1.92544 12.1369V11.6709C1.92544 10.256 2.90339 9.14467 4.25106 9.02869C4.35265 9.02085 4.44683 8.97289 4.51266 8.89528C4.5785 8.81767 4.61076 8.71695 4.60204 8.61537C4.59856 8.57395 4.58809 8.53383 4.57152 8.49634C2.89859 8.74399 1.61762 10.1305 1.61762 11.8034L1.61719 11.8038Z" class="stroke"/>
<path d="M11.9297 4.51257C14.6948 4.51257 17.0923 6.12925 18.2804 8.49412C18.4356 8.47188 18.5948 8.45968 18.7561 8.45793C17.4782 6.02985 14.9293 4.37 12.0003 4.37C9.07124 4.37 6.52064 6.03072 5.24316 8.46011C5.3574 8.46447 5.47076 8.47406 5.58194 8.48889C6.77091 6.12664 9.16716 4.51257 11.9297 4.51257Z" class="stroke"/>
<path d="M4.48173 12.2694C4.55324 12.341 4.65047 12.3811 4.75162 12.3811C4.85277 12.3811 4.95 12.341 5.0215 12.2694C5.09301 12.1979 5.13312 12.1007 5.13312 11.9996C5.13312 8.21334 8.21346 5.133 11.9997 5.133C15.7859 5.133 18.8662 8.21334 18.8662 11.9996C18.8662 12.2102 19.0372 12.3811 19.2477 12.3811C19.4583 12.3811 19.6292 12.2102 19.6292 11.9996C19.6292 10.7221 19.3131 9.51698 18.7555 8.45794C18.5942 8.45968 18.4355 8.47189 18.2798 8.49412C17.0922 6.12926 14.6942 4.51257 11.929 4.51257C9.16394 4.51257 6.7703 6.12665 5.58132 8.48846C5.46971 8.47407 5.35678 8.46404 5.24255 8.45968C4.68578 9.51829 4.37012 10.7225 4.37012 11.9991C4.37012 12.1003 4.41023 12.1979 4.48173 12.2694Z" class="stroke"/>
<path d="M9.6204 11.3281C10.0394 11.3281 10.379 10.9885 10.379 10.5691C10.379 10.1496 10.0394 9.81042 9.6204 9.81042C9.20141 9.81042 8.86133 10.1501 8.86133 10.5691C8.86133 10.9881 9.20097 11.3281 9.6204 11.3281Z" class="stroke"/>
<path d="M14.4378 11.3281C14.8568 11.3281 15.1964 10.9885 15.1964 10.5691C15.1964 10.1496 14.8568 9.81042 14.4378 9.81042C14.0188 9.81042 13.6787 10.1501 13.6787 10.5691C13.6787 10.9881 14.0184 11.3281 14.4378 11.3281Z" class="stroke"/>
<path d="M8.57003 13.5966C8.39824 14.0605 8.31061 14.5514 8.31148 15.0458C8.31148 16.1703 8.76143 17.2446 9.54623 17.9932C9.69883 18.1379 9.9395 18.1318 10.0847 17.9797C10.2299 17.8275 10.2246 17.5864 10.0729 17.4412C9.52182 16.9049 9.17607 16.1921 9.09672 15.4273H14.9055C14.8262 16.1921 14.4804 16.9049 13.9293 17.4412C13.8557 17.511 13.8129 17.6069 13.8107 17.7085C13.8081 17.8096 13.8461 17.9077 13.9158 17.9814C13.986 18.0547 14.0819 18.0974 14.1835 18.0996C14.2847 18.1018 14.3828 18.0638 14.456 17.9936C15.2408 17.245 15.6908 16.1707 15.6908 15.0463C15.6912 14.5514 15.6036 14.0609 15.4322 13.597C15.8652 13.4326 16.2567 13.1736 16.5772 12.8392C17.171 12.2262 17.4871 11.3956 17.4509 10.5428C17.4173 9.75672 17.0903 9.01159 16.5344 8.45395C15.9785 7.89674 15.2343 7.56799 14.4482 7.53224C13.9023 7.50957 13.3604 7.62991 12.8751 7.88104C12.3275 8.16531 11.6757 8.16531 11.128 7.88104C10.362 7.48472 9.46644 7.42193 8.65243 7.70664C7.83798 7.99135 7.17744 8.59914 6.82516 9.38612C6.47287 10.1735 6.46066 11.0708 6.79071 11.8678C7.12076 12.6644 7.76474 13.2901 8.5709 13.597L8.57003 13.5966ZM9.09628 14.6643C9.1983 13.7391 9.6657 12.9352 10.3371 12.4281C10.4649 12.9238 10.8067 13.3367 11.2697 13.5547C11.7328 13.7727 12.2691 13.7727 12.7321 13.5547C13.1951 13.3367 13.5369 12.9238 13.6647 12.4281C14.3361 12.9347 14.8035 13.7391 14.9055 14.6643H9.09628ZM11.0478 12.0357C11.6617 11.8033 12.3392 11.8033 12.9531 12.0357C12.9409 12.3679 12.7569 12.6696 12.467 12.8323C12.1771 12.9949 11.8235 12.9949 11.5335 12.8323C11.2436 12.6696 11.0596 12.3675 11.0474 12.0357H11.0478ZM7.50532 9.72663C7.76561 9.12146 8.2657 8.65233 8.88569 8.4304C9.50568 8.20891 10.1902 8.2547 10.7749 8.55728C11.5431 8.95578 12.4574 8.95578 13.2256 8.55728C13.8103 8.25513 14.4944 8.20935 15.1144 8.43128C15.7339 8.6532 16.234 9.12234 16.4943 9.72707C16.7546 10.3318 16.752 11.0172 16.4874 11.6197C16.2227 12.2223 15.7191 12.6879 15.0978 12.9051C14.4399 11.8186 13.2976 11.0979 12.0005 11.0979C10.7034 11.0979 9.56106 11.8186 8.90313 12.9051C8.2814 12.6884 7.77782 12.2227 7.51273 11.6197C7.24764 11.0168 7.24502 10.3309 7.50532 9.7262V9.72663Z" class="stroke"/>
</svg>
