<svg width="24" height="24" viewBox="0 0 24 24" fill="none" xmlns="http://www.w3.org/2000/svg">
<rect x="0.5" y="0.5" width="23" height="23" rx="11.5" stroke=""/>
<rect width="24" height="24" rx="12" fill=""/>
<g clip-path="url(#clip0_3937_155104)">
<path opacity="0.8" d="M18.4719 5.65143C18.4395 5.52054 18.3987 5.38116 18.2929 5.29753C18.2359 5.25228 18.1656 5.22804 18.0966 5.20542C17.0866 4.87535 15.9699 4.37035 14.9433 4.64507C14.3814 4.79536 13.7338 4.51094 13.4647 3.99544C13.3782 3.82939 13.3209 3.63628 13.1722 3.52276C13.0219 3.40802 12.8175 3.40519 12.6288 3.40721C12.2325 3.41166 11.8358 3.41772 11.4394 3.42539C11.2475 3.42903 11.0451 3.4359 10.8811 3.53609C10.7522 3.61487 10.6621 3.74253 10.5761 3.86656C10.3082 4.25198 10.0311 4.66365 10.0044 5.13229C9.98505 5.46882 10.0978 5.81748 9.99232 6.13785C9.90909 6.39156 9.70911 6.59517 9.51075 6.77415C9.18028 6.75839 8.83769 6.81091 8.55489 6.98221C8.38359 7.08603 8.24017 7.22905 8.09837 7.37085C7.51903 7.94979 6.93808 8.53114 6.44157 9.18239C5.77012 10.0635 5.20412 11.0565 4.96616 12.1385C4.87405 12.5574 4.78194 12.9759 4.68982 13.3949C4.6474 13.5876 4.60498 13.7807 4.57792 13.9762C4.53752 14.2687 4.53186 14.5657 4.48419 14.8574C4.3941 15.4076 4.22846 15.9486 4.24421 16.5057C4.25916 17.0333 4.33794 17.5589 4.47894 18.0671C4.50924 18.1766 4.54681 18.2922 4.63528 18.3637C4.71932 18.432 4.83324 18.4469 4.94071 18.4594C5.35562 18.5079 5.77052 18.5568 6.18503 18.6053C6.94374 18.6942 7.70447 18.783 8.46843 18.7891C8.9908 18.7931 9.51237 18.758 10.0335 18.7232C11.2694 18.6404 12.5048 18.5576 13.7406 18.4744C13.9596 18.4598 14.2569 18.3431 14.1959 18.1322C14.1668 18.0312 14.0618 17.9758 13.9701 17.9253C13.592 17.7161 13.1702 17.4078 13.2623 16.9509C13.3459 16.5384 13.6485 16.1005 13.7709 15.6815C13.7972 15.5918 13.8214 15.5017 13.8449 15.4117C14.3313 14.7887 14.993 14.3023 15.5606 13.7411C16.0976 13.2103 16.5549 12.6055 17.0102 12.0031C17.8162 10.937 18.7175 9.80091 18.7652 8.46488C18.7987 7.51953 18.6997 6.56972 18.4723 5.65184L18.4719 5.65143Z" fill="white"/>
<path d="M12.0092 6.23846C12.1894 6.23846 12.3619 6.16695 12.4892 6.03969C12.6164 5.91243 12.6879 5.73952 12.6879 5.55974C12.6879 5.37996 12.6164 5.20705 12.4892 5.07938C12.3619 4.95212 12.189 4.88062 12.0092 4.88062C11.8294 4.88062 11.6565 4.95212 11.5288 5.07938C11.4016 5.20664 11.3301 5.37955 11.3301 5.55974C11.3301 5.73992 11.4016 5.91243 11.5288 6.03969C11.6561 6.16695 11.829 6.23846 12.0092 6.23846Z" class="stroke"/>
<path d="M17.031 12.9731C16.6626 13.4939 16.4723 14.1201 16.4884 14.7576C16.5252 15.9171 17.0908 17.2002 17.8952 17.95C18.0382 18.0833 18.0459 18.3071 17.9125 18.4497C17.7796 18.5928 17.5558 18.6004 17.4128 18.4671C16.465 17.5836 15.8243 16.136 15.7814 14.7798C15.7778 14.663 15.7786 14.5483 15.7835 14.4364C15.2776 14.9406 14.7258 15.3959 14.1347 15.7971C14.1271 15.8023 14.1194 15.8068 14.1117 15.8112L13.4584 17.1097L15.8667 18.331C16.0125 18.4049 16.0889 18.5689 16.0505 18.7285C16.0125 18.8877 15.8703 18.9996 15.7067 18.9996C15.7039 18.9996 15.7014 18.9996 15.6986 18.9996H4.51106C4.31593 18.9951 4.1612 18.8335 4.16564 18.638C4.17008 18.4429 4.33168 18.2881 4.52722 18.2926L14.1586 18.257L12.8254 17.5807C12.6517 17.4927 12.5818 17.2806 12.6694 17.1064L13.6863 15.0856C13.6891 15.08 13.6924 15.0739 13.6956 15.0683C14.4095 13.828 13.8972 12.6693 13.2419 12.054C12.5955 11.4472 11.4235 11.0153 10.2479 11.7947C8.17736 13.1674 6.62721 15.7801 6.61186 15.8064C6.51247 15.9736 6.29674 16.029 6.12908 15.9304C5.96142 15.8318 5.90486 15.6165 6.00222 15.4484C6.06848 15.3357 7.64812 12.6701 9.85719 11.2052C10.5004 10.779 11.2219 10.6004 11.9442 10.6893C12.6125 10.7778 13.2358 11.0747 13.7255 11.5381C14.224 12.0031 14.5626 12.6136 14.6935 13.2822C14.7694 13.6858 14.7617 14.1003 14.6708 14.5006C15.8307 13.5133 16.766 12.2891 17.4144 10.9107C18.0624 9.53225 18.4086 8.03099 18.4292 6.50791C17.757 7.44963 16.4541 8.82283 14.0814 9.96049C13.997 10.0017 13.8992 10.0074 13.8103 9.97625C13.7214 9.94514 13.6487 9.8801 13.6079 9.79526C13.5671 9.71042 13.5619 9.61265 13.5934 9.52417C13.6249 9.43529 13.6907 9.36298 13.7756 9.32298C15.701 8.39984 16.8561 7.3147 17.4855 6.56649C17.7683 6.23521 18.018 5.87686 18.2313 5.4967C17.3086 5.2442 16.3559 5.11654 15.3988 5.11694C14.9876 5.11694 14.5767 5.14078 14.1683 5.18764C14.0046 5.20622 13.8495 5.10967 13.7946 4.95413C13.5744 4.33237 13.0439 3.87222 12.3971 3.74213C11.7507 3.61245 11.0833 3.83182 10.6401 4.32025C10.1974 4.80869 10.0434 5.49428 10.2357 6.12492C10.2838 6.28248 10.2167 6.45216 10.0741 6.53417C8.44238 7.47105 7.08656 8.82162 6.14362 10.4501C5.20109 12.0787 4.70538 13.927 4.70579 15.8088C4.70579 16.1558 4.72316 16.5089 4.7571 16.8592C4.76639 16.9525 4.7377 17.0458 4.67832 17.1182C4.61893 17.1905 4.53288 17.2365 4.43955 17.2454C4.42784 17.2466 4.41652 17.247 4.40481 17.247C4.22301 17.247 4.0711 17.1085 4.05333 16.9275C4.01858 16.557 4 16.1805 4 15.8108C3.99919 13.8502 4.50419 11.9223 5.46692 10.2138C6.42925 8.50528 7.81618 7.07432 9.49318 6.05866C9.37926 5.44054 9.49399 4.80222 9.81558 4.26208C10.1372 3.72193 10.6442 3.31712 11.2417 3.1228C11.8344 2.93292 12.4755 2.96362 13.0476 3.20925C13.6192 3.45489 14.083 3.89848 14.3537 4.45882C14.7036 4.42691 15.0542 4.41075 15.3997 4.41075C16.566 4.40994 17.7255 4.5881 18.8377 4.93918C18.9726 4.9816 19.0692 5.10078 19.0829 5.24178C19.1193 5.61386 19.1379 5.99079 19.1379 6.36085C19.1387 8.66284 18.4418 10.9115 17.1389 12.8095L17.0306 12.9731H17.031Z" class="stroke"/>
</g>
<defs>
<clipPath id="clip0_3937_155104">
<rect width="15.1379" height="16" fill="" transform="translate(4 3)"/>
</clipPath>
</defs>
</svg>
