<svg width="24" height="24" viewBox="0 0 24 24" fill="none" xmlns="http://www.w3.org/2000/svg">
<rect x="0.5" y="0.5" width="23" height="23" rx="11.5" stroke=""/>
<rect width="24" height="24" rx="12" fill=""/>
<g clip-path="url(#clip0_3937_155159)">
<path opacity="0.8" d="M16.9122 10.4564C16.8556 10.5185 16.826 10.6008 16.8299 10.6849C16.8343 10.769 16.8718 10.848 16.9342 10.9043C18.0098 11.8857 18.5143 13.3452 18.2747 14.7809C18.0354 16.2166 17.0844 17.4332 15.7494 18.0125C16.5629 17.3427 17.0966 16.3924 17.2457 15.3486C17.3944 14.3052 17.1472 13.2434 16.5531 12.3725C15.9587 11.5016 15.06 10.8845 14.0339 10.6427L13.585 9.98797C13.5947 9.96199 13.6005 9.93528 13.603 9.90785C13.6817 9.05501 14.1585 8.28952 14.8893 7.8427C15.6198 7.39589 16.5188 7.32082 17.3136 7.63951C18.1083 7.9582 18.7063 8.63347 18.9258 9.4614C19.1452 10.2893 18.9608 11.1721 18.4284 11.8431C18.1599 11.314 17.7979 10.8383 17.3601 10.438C17.2984 10.3806 17.2165 10.3503 17.1324 10.3539C17.0483 10.3575 16.9689 10.3944 16.9122 10.4564Z" fill="white"/>
<path opacity="0.8" d="M16.6551 14.7899C16.636 16.7678 14.9946 18.3471 13.0168 18.3471H8.18991V15.8001C8.18991 15.2959 8.39021 14.8123 8.7468 14.4557C9.10338 14.0992 9.587 13.8989 10.0912 13.8989H10.1479C10.3168 13.901 10.459 13.7725 10.4738 13.604C10.4795 13.5166 10.4489 13.4311 10.3893 13.3672C10.3294 13.3033 10.246 13.2673 10.1587 13.2673H10.0912C9.57654 13.2673 9.07848 13.4243 8.65946 13.7112C8.65043 13.6711 8.62914 13.6379 8.58799 13.6238C8.56237 13.6152 8.53422 13.6166 8.50715 13.6199C8.38877 13.6339 8.28519 13.6888 8.16861 13.6924C8.03977 13.6964 7.92608 13.7548 7.80734 13.7982C7.61678 13.8678 7.40889 13.8898 7.20786 13.8617C7.14037 13.8523 7.07216 13.8364 7.01405 13.8007C6.95595 13.765 6.90939 13.7054 6.90253 13.6376C6.89531 13.5657 6.93249 13.4979 6.96858 13.4351C6.99456 13.39 7.02127 13.3438 7.06133 13.3106C7.12521 13.2579 7.19776 13.2875 7.25911 13.242C7.32696 13.1918 7.38254 13.1077 7.44534 13.0496C7.57527 12.9291 7.71855 12.823 7.87158 12.7335C8.16861 12.5599 8.53602 12.4209 8.88358 12.4104C9.05393 12.4054 9.18964 12.2654 9.18964 12.095V9.46359C9.18783 9.29071 9.04708 9.15104 8.87384 9.15104L7.48829 9.1496C7.19848 9.15248 6.92707 9.00884 6.76611 8.76811C6.61055 8.53352 6.58565 8.23577 6.6997 7.97843L7.57058 5.96923C8.16681 4.7959 9.49605 4.53821 10.4391 4.9677C10.481 4.98683 10.5257 4.99585 10.5698 4.99585C10.6521 4.99585 10.7329 4.96409 10.7935 4.90345C10.8332 4.86267 10.8617 4.8125 10.8765 4.75765C10.9697 4.45051 11.1537 4.17838 11.4046 3.97807C11.6554 3.77777 11.9614 3.6583 12.2816 3.63557C12.3101 3.6334 12.339 3.63232 12.3678 3.63196C12.4433 3.9741 12.4028 4.33105 12.2531 4.64793C12.1033 4.96445 11.8525 5.22214 11.5403 5.38058C11.4915 5.40404 11.4486 5.43905 11.4161 5.48236C11.3414 5.58522 11.3356 5.72309 11.4017 5.83172C11.7756 6.44058 11.8236 7.19525 11.5302 7.84706C11.5262 7.85572 11.5229 7.86439 11.5201 7.87341C11.5193 7.87521 11.5186 7.87738 11.5179 7.87954L11.5125 7.89903C11.5114 7.90336 11.5103 7.9077 11.5096 7.91203C11.5085 7.916 11.5081 7.91997 11.5074 7.9243C11.5063 7.93079 11.5053 7.93765 11.5045 7.94415V7.94956C11.498 8.02896 11.5219 8.108 11.5713 8.17044L13.1911 10.5326C13.1525 10.5315 13.1138 10.5305 13.0749 10.5305C12.9042 10.5272 12.7601 10.6579 12.7468 10.8282C12.7417 10.9148 12.7728 11 12.8323 11.0632C12.8919 11.1263 12.9753 11.162 13.0622 11.162C14.0208 11.1631 14.9393 11.5468 15.6139 12.2282C16.2884 12.9092 16.6631 13.8317 16.6548 14.7903L16.6551 14.7899Z" fill="white"/>
<path d="M8.27051 6.78991C8.27051 6.97506 8.38203 7.14216 8.5531 7.2129C8.72418 7.28364 8.92087 7.24466 9.05188 7.11365C9.1829 6.98264 9.22187 6.78558 9.15114 6.61487C9.0804 6.4438 8.91329 6.33228 8.72815 6.33228C8.60652 6.33228 8.4903 6.38064 8.40441 6.46617C8.31851 6.55207 8.27051 6.66865 8.27051 6.78991Z" class="stroke"/>
<path d="M14.04 19C15.6291 19.001 17.1207 18.2348 18.0454 16.9428C18.9704 15.6507 19.214 13.9916 18.7005 12.488C19.3108 11.8661 19.6511 11.0285 19.6479 10.1569C19.6479 9.07015 19.1191 8.0513 18.2313 7.42511C17.3434 6.79893 16.2066 6.64265 15.183 7.00681C14.1591 7.37098 13.3763 8.2101 13.0832 9.25639L12.1766 7.934C12.4397 7.23563 12.4094 6.46075 12.0929 5.78476C12.491 5.5065 12.7865 5.1048 12.9338 4.64211C13.081 4.17906 13.0717 3.68028 12.9071 3.22336C12.8667 3.10967 12.7649 3.02883 12.6454 3.01475C12.1849 2.96134 11.7193 3.05373 11.3147 3.2793C10.9098 3.50487 10.5861 3.85207 10.3894 4.27181C9.81875 4.09028 9.20556 4.09352 8.63676 4.2812C7.92468 4.51399 7.33603 5.02287 7.00291 5.69381L6.99569 5.70897L6.1212 7.72684C5.9245 8.18086 5.96925 8.70347 6.24066 9.11743C6.51207 9.5314 6.97331 9.78079 7.46813 9.78115L8.55845 9.78224V11.8167C7.7269 11.9668 6.99425 12.4523 6.53156 13.1589C6.44061 13.2964 6.46876 13.4805 6.59652 13.5845C6.66618 13.6397 6.75568 13.6628 6.84339 13.6483C6.93109 13.6339 7.00868 13.5834 7.05705 13.5087C7.46488 12.8814 8.13834 12.4765 8.88363 12.4104C9.05398 12.405 9.18968 12.2653 9.18968 12.0946V9.46319C9.18788 9.29031 9.04712 9.15064 8.87424 9.15064L7.48834 9.14919C7.19852 9.15172 6.92712 9.00844 6.76615 8.76771C6.6106 8.53312 6.58569 8.23536 6.69974 7.97803L7.57027 5.96883C8.16649 4.7955 9.49574 4.53781 10.4392 4.96729C10.559 5.02179 10.7001 4.99617 10.7936 4.90305C10.8329 4.86227 10.8614 4.8121 10.8766 4.75724C10.9697 4.44974 11.1538 4.17798 11.4046 3.97767C11.6554 3.77736 11.9611 3.6579 12.2816 3.6348C12.3101 3.633 12.339 3.63155 12.3679 3.63119C12.4433 3.97334 12.4029 4.33064 12.2531 4.64716C12.1033 4.96369 11.8525 5.22138 11.5403 5.38018C11.4912 5.40364 11.4486 5.43829 11.4158 5.48196C11.3411 5.58482 11.3357 5.72269 11.4014 5.83132C11.7753 6.44054 11.8236 7.19485 11.5298 7.84666C11.5262 7.85568 11.5226 7.86398 11.5197 7.87301C11.519 7.87517 11.5183 7.87698 11.5176 7.87914C11.5158 7.88564 11.514 7.89213 11.5122 7.89863C11.5111 7.90296 11.51 7.90729 11.5089 7.91162C11.5082 7.91559 11.5075 7.91956 11.5071 7.92389C11.506 7.93075 11.5049 7.93725 11.5042 7.94374C11.5042 7.94555 11.5042 7.94735 11.5042 7.9488C11.4977 8.0282 11.5215 8.10724 11.571 8.16968L13.1908 10.5319C13.1521 10.5308 13.1135 10.53 13.0749 10.5297C12.9042 10.5264 12.7602 10.6571 12.7468 10.8274C12.7418 10.9141 12.7728 10.9992 12.8327 11.0624C12.8923 11.1256 12.9753 11.1613 13.0623 11.1613C14.0209 11.1624 14.9397 11.546 15.6139 12.2274C16.2885 12.9088 16.6631 13.831 16.6548 14.7895C16.6357 16.7673 14.9942 18.3471 13.0164 18.3471H8.19067V15.8001C8.19067 15.2959 8.39098 14.8119 8.74756 14.4557C9.10415 14.0995 9.58777 13.8988 10.092 13.8988H10.1483C10.3175 13.901 10.4594 13.7725 10.4742 13.6039C10.4799 13.5166 10.4493 13.4311 10.3897 13.3672C10.3298 13.3033 10.2464 13.2672 10.1591 13.2672H10.092C9.42031 13.2672 8.77608 13.5339 8.30075 14.0089C7.82579 14.4839 7.55908 15.1284 7.55908 15.8001V18.3471H6.52795C6.35904 18.3449 6.21684 18.4734 6.20204 18.6419C6.19627 18.7293 6.22695 18.8148 6.2865 18.8787C6.34641 18.9426 6.42978 18.9787 6.51712 18.9787L14.0404 18.9996L14.04 19ZM15.7486 18.0132C16.5624 17.343 17.0966 16.3927 17.2453 15.349C17.394 14.3052 17.1471 13.2434 16.5527 12.3729C15.9586 11.502 15.0599 10.8848 14.0335 10.643L13.5845 9.98832C13.5943 9.96269 13.6 9.93562 13.6026 9.90856C13.6812 9.05572 14.158 8.29022 14.8885 7.84341C15.619 7.3966 16.518 7.32153 17.3128 7.64022C18.1075 7.9589 18.7055 8.63453 18.925 9.46211C19.1444 10.29 18.96 11.1728 18.4276 11.8434C18.1591 11.3147 17.7971 10.8386 17.3593 10.4384C17.2976 10.381 17.2157 10.351 17.1316 10.3546C17.0475 10.3579 16.9681 10.3951 16.9114 10.4571C16.8548 10.5192 16.8252 10.6015 16.8291 10.6856C16.8335 10.7697 16.871 10.8487 16.9334 10.9047C18.0086 11.886 18.5132 13.3455 18.2739 14.7812C18.0342 16.2173 17.0836 17.434 15.7478 18.0132H15.7486Z" class="stroke"/>
</g>
<defs>
<clipPath id="clip0_3937_155159">
<rect width="13.6476" height="16" fill="" transform="translate(6 3)"/>
</clipPath>
</defs>
</svg>
