<svg width="24" height="24" viewBox="0 0 24 24" fill="none" xmlns="http://www.w3.org/2000/svg">
<rect x="0.5" y="0.5" width="23" height="23" rx="11.5" stroke=""/>
<rect width="24" height="24" rx="12" fill=""/>
<g clip-path="url(#clip0_3927_180071)">
<g opacity="0.8">
<path d="M19.8384 9.2828C19.7351 9.3664 19.6298 9.4508 19.5068 9.49983C19.1547 9.6401 18.7536 9.45643 18.4658 9.21005C18.178 8.96367 17.9445 8.64937 17.6186 8.45564C17.3883 8.31859 17.1122 8.24102 16.9393 8.03644C16.5109 7.52962 17.1258 5.53247 15.8658 6.13334C15.6624 6.23021 15.6873 6.41187 15.5567 6.53044C15.4205 6.65423 15.2179 6.70688 15.07 6.82786C14.7786 7.0666 14.5591 7.3801 14.2903 7.64376C13.7099 8.21328 12.9302 8.52397 12.1729 8.82059C11.9471 8.90901 11.7144 8.99783 11.4784 9.06254C10.8623 8.91665 10.1995 8.83707 9.5082 8.83707C8.81087 8.83707 8.13002 8.76231 7.43389 8.79406L5.39655 8.88771C4.98378 8.9066 4.55895 8.9283 4.18476 9.10314C3.63413 9.35956 3.27762 9.90618 3.02441 10.4584C2.4569 11.6947 2.26277 13.0994 2.47338 14.4435C2.60159 14.4925 2.72177 14.3562 2.78286 14.2333C3.08631 13.6215 3.09515 12.9077 3.0437 12.2269C3.03285 12.0814 3.0212 11.9262 3.09073 11.798C3.41227 11.204 3.80816 11.9407 3.86523 12.253C3.96571 12.802 4.09192 13.3635 4.16868 13.9173C4.35437 15.2529 4.50067 16.5998 4.46168 17.9502C4.45244 18.2681 4.4661 18.6512 4.73981 18.8136C4.95725 18.9422 5.25065 18.8541 5.43152 18.6777C5.61238 18.5013 5.70724 18.2569 5.79686 18.0206L6.23777 16.8586C6.52474 16.1014 6.77072 16.2159 7.37963 16.4294C8.03436 16.6589 8.82253 16.6938 9.50901 16.6938C9.74654 16.6938 9.98086 16.6842 10.2108 16.6661C10.5504 16.8952 11.0218 16.941 11.4479 16.9523C11.9941 16.9663 12.6066 16.9896 12.982 17.3871C13.2288 17.6484 13.3156 18.0173 13.4736 18.3405C13.6315 18.6636 13.9354 18.9775 14.2915 18.9293C14.7444 18.8682 14.9128 18.3095 14.9687 17.8558C15.0929 16.8466 15.158 15.8301 15.1697 14.8132C15.1705 14.7614 15.1524 14.3788 15.1351 13.9318C15.3067 13.5633 15.3992 13.1714 15.3992 12.7654C15.3992 12.6481 15.3911 12.5323 15.3759 12.4178C16.0788 12.583 16.6889 13.2216 17.4112 13.1308C17.6105 13.1059 17.7982 13.0251 17.9783 12.9367C19.8959 11.997 21.2781 10.042 21.5244 7.92069C20.9626 8.37486 20.4003 8.82903 19.8384 9.2832V9.2828Z" fill="white"/>
</g>
<path d="M16.7474 9.43875C16.7474 9.24783 16.6325 9.07541 16.456 9.00226C16.2796 8.92911 16.0762 8.9697 15.9412 9.10475C15.8061 9.2398 15.7655 9.44317 15.8387 9.61961C15.9118 9.79605 16.0843 9.91141 16.2752 9.91141C16.536 9.91141 16.7474 9.69959 16.7474 9.43875Z" class="stroke"/>
<path d="M21.9896 7.30225C21.9775 7.166 21.8879 7.04904 21.7597 7.00242C21.6311 6.9558 21.4872 6.98755 21.3907 7.08441L19.0037 9.47142L16.9121 7.48191L17.2453 5.22271C17.2674 5.0728 17.1907 4.92529 17.0552 4.85737C16.9198 4.78944 16.7558 4.81557 16.6485 4.92288L15.7192 5.85212C14.8057 6.7677 13.7197 7.49317 12.5244 7.98673C11.3302 8.4827 10.0493 8.73751 8.75594 8.73631H3.86415C3.77211 8.73631 3.68329 8.77248 3.61778 8.83719C2.54344 9.89223 1.87183 12.106 2.02054 14.1008C2.03421 14.2844 2.18694 14.4263 2.37102 14.4263C2.37986 14.4263 2.3887 14.4263 2.39754 14.4255C2.59127 14.411 2.73636 14.2422 2.72189 14.0485C2.59408 12.3347 3.14472 10.3902 4.01327 9.43927H8.75594C10.1418 9.44088 11.5139 9.16757 12.7936 8.63623C14.0742 8.1073 15.2377 7.32999 16.2164 6.3489L16.3936 6.17165L16.1891 7.55989C16.1726 7.67283 16.2116 7.78697 16.2944 7.86575L18.767 10.2174C18.9053 10.3488 19.1231 10.3464 19.2581 10.2114L21.2605 8.20899C21.2038 8.74354 21.0792 9.26805 20.8895 9.77085C20.2645 11.4095 19.0214 12.5485 17.1927 13.159L14.0062 10.8163C13.9311 10.7608 13.837 10.7379 13.745 10.7519C13.6529 10.766 13.5697 10.8163 13.5147 10.8914C13.3997 11.0478 13.4331 11.268 13.5898 11.383L15.0155 12.4312L14.3587 18.6091C14.3483 18.7019 14.3752 18.7956 14.4339 18.8683C14.4926 18.9415 14.5782 18.9881 14.671 18.9982C14.7639 19.0082 14.8575 18.9805 14.9303 18.9214C15.003 18.8623 15.0488 18.7767 15.0585 18.6835L15.6718 12.9131L16.9214 13.8319C17.0114 13.8982 17.1272 13.9175 17.2341 13.8845C19.9105 13.0537 21.0628 11.309 21.5583 9.99191C22.0929 8.57032 21.9944 7.3533 21.99 7.30225H21.9896Z" class="stroke"/>
<path d="M13.3837 16.6614C13.3387 16.4733 13.1502 16.3571 12.9617 16.4005C12.9163 16.411 8.41434 17.4234 6.28375 15.1288C6.22025 15.0601 6.13223 15.0195 6.03898 15.0159C5.94574 15.0123 5.8545 15.046 5.78617 15.1095C5.71785 15.173 5.67725 15.2615 5.67404 15.3547C5.67082 15.448 5.70458 15.5392 5.76849 15.6075C6.7741 16.6907 8.37133 17.2879 10.3874 17.3354C11.1884 17.3519 11.9886 17.2908 12.778 17.1537L13.1542 18.728C13.1992 18.9169 13.3893 19.0335 13.5782 18.9885C13.7671 18.9435 13.8837 18.7534 13.8387 18.5645L13.3841 16.6614H13.3837Z" class="stroke"/>
<path d="M6.29183 16.4009C6.10293 16.3559 5.91322 16.4724 5.86821 16.6613L5.41323 18.5644C5.39113 18.6553 5.4064 18.7509 5.45503 18.8305C5.50366 18.9101 5.58204 18.9672 5.67327 18.9889C5.76411 19.0106 5.85977 18.9953 5.93935 18.9463C6.01893 18.8972 6.0756 18.8189 6.0973 18.728L6.55228 16.8249C6.57398 16.7341 6.55871 16.6384 6.51007 16.5589C6.46144 16.4793 6.38307 16.4226 6.29223 16.4009H6.29183Z" class="stroke"/>
<path d="M4.13143 11.5484C4.11053 11.3555 3.9373 11.2156 3.74397 11.2361C3.55105 11.257 3.41118 11.4307 3.43168 11.6236L4.19252 18.6837C4.21181 18.8622 4.36213 18.9972 4.54179 18.9976C4.55465 18.9976 4.56711 18.9968 4.57997 18.9956C4.67241 18.9856 4.75762 18.9393 4.8163 18.8666C4.87498 18.7939 4.90231 18.701 4.89226 18.6082L4.13143 11.548V11.5484Z" class="stroke"/>
</g>
<defs>
<clipPath id="clip0_3927_180071">
<rect width="20" height="14.1806" fill="" transform="translate(2 4.81946)"/>
</clipPath>
</defs>
</svg>
