<svg width="24" height="24" viewBox="0 0 24 24" fill="none" xmlns="http://www.w3.org/2000/svg">
<rect x="0.5" y="0.5" width="23" height="23" rx="11.5" stroke=""/>
<rect width="24" height="24" rx="12" fill=""/>
<g clip-path="url(#clip0_3937_155266)">
<path opacity="0.8" d="M18.067 15.299C17.8587 15.0836 17.5857 14.876 17.4384 14.6105C17.2658 14.2995 17.3599 14.1957 17.4641 13.8703C17.6697 13.2268 17.7584 12.5364 17.7584 11.8623C17.7584 11.4202 17.6736 10.9141 17.9216 10.5187C18.1098 10.2185 18.4546 10.065 18.7517 9.87215C19.9382 9.10239 20.4444 7.43574 19.8865 6.13608C19.8635 6.08282 19.8367 6.02762 19.7881 5.99651C19.7244 5.95608 19.6416 5.96775 19.5677 5.9833C18.588 6.1874 17.7358 6.74101 16.8047 7.08118C16.3561 7.24524 16.1131 7.35759 15.7418 7.06213C15.3717 6.76705 15.0319 6.47159 14.6105 6.24494C14.1588 6.00235 14.0686 6.03578 14.046 5.49889C14.0262 5.02887 13.9578 4.56312 13.8337 4.10943C13.7649 3.85829 13.679 3.60908 13.5402 3.38865C13.3217 3.0407 12.987 2.78489 12.6597 2.53647C12.4439 2.37319 12.178 2.20057 11.9226 2.29038C11.8094 2.33042 11.7196 2.41712 11.6341 2.50148C11.3997 2.73202 11.1652 2.96295 10.9308 3.19349C10.5669 3.55155 10.6252 3.99124 10.5502 4.46982C10.5311 4.59111 10.5121 4.71241 10.4934 4.83371C10.4437 5.15055 10.5133 5.74731 10.3169 5.99729C10.161 6.19595 9.69879 6.31764 9.47992 6.45876C8.96985 6.78727 8.51771 7.20131 8.13594 7.6725C8.05663 7.57608 7.96022 7.49172 7.8572 7.42291C7.60916 7.25768 7.32186 7.1636 7.047 7.04736C6.59447 6.85608 6.16877 6.60066 5.787 6.2912C5.56657 6.11276 5.32903 5.90399 5.04601 5.91682C4.60709 5.93625 4.3991 6.45487 4.33612 6.88952C4.28441 7.24563 4.36527 7.60991 4.4959 7.94502C4.78437 8.68485 5.30648 9.30649 5.83715 9.89703C6.13961 10.2337 6.4483 10.5649 6.76203 10.8911C6.71694 11.2126 6.694 11.5376 6.694 11.8626C6.694 12.7094 6.85573 13.5305 7.14381 14.3247C7.29659 14.7454 7.27676 14.8192 6.92493 15.1407C6.65823 15.3845 6.35966 15.5909 6.10229 15.8452C5.21434 16.7207 4.89011 18.1226 5.30337 19.299C6.20571 19.0661 7.06605 18.6723 7.83154 18.1409C8.39331 17.7509 9.18445 17.022 9.8854 17.4147C10.6384 17.8361 11.3355 18.0865 12.2262 18.0865C13.23 18.0865 14.1712 17.7859 14.9826 17.2599C16.11 17.997 17.2771 18.6739 18.4776 19.2842C18.6105 19.3519 18.7664 19.4199 18.9029 19.3604C18.9842 19.3251 19.0413 19.2508 19.088 19.1754C19.4087 18.6572 19.3869 17.9939 19.2376 17.403C19.039 16.6161 18.6311 15.8833 18.067 15.2998V15.299Z" fill="white"/>
<path d="M5.66352 10.2365C5.7405 10.2839 5.8338 10.2987 5.92166 10.2773C6.00953 10.2559 6.08534 10.2003 6.13238 10.1226C6.17942 10.0448 6.19341 9.95189 6.17125 9.86403C6.14909 9.77617 6.09311 9.70075 6.01497 9.65449C5.44581 9.31004 5.01972 8.77237 4.81445 8.13945C4.60957 7.50654 4.63912 6.82114 4.89842 6.20844L6.93713 7.38563C7.01527 7.43189 7.10858 7.44511 7.19644 7.42179C7.2843 7.39885 7.35933 7.34131 7.40482 7.26278C7.4503 7.18425 7.46236 7.09055 7.43825 7.00308C7.41415 6.91561 7.35622 6.84135 7.2773 6.79665L4.92642 5.43868C4.84827 5.39358 4.75536 5.38114 4.66827 5.40446C4.58119 5.42779 4.50693 5.48494 4.46184 5.56308C4.01086 6.34451 3.88374 7.27133 4.10883 8.14529C4.33354 9.01885 4.89143 9.76995 5.66352 10.2369V10.2365Z" class="stroke"/>
<path d="M19.9226 5.56312C19.8289 5.40022 19.6205 5.34463 19.458 5.43871L17.1067 6.79629C16.9462 6.89115 16.8918 7.09759 16.9851 7.25931C17.0784 7.42065 17.2844 7.47703 17.4469 7.38528L19.4856 6.20808C19.7445 6.82078 19.7745 7.50657 19.5696 8.1391C19.3647 8.77201 18.9386 9.30968 18.3691 9.65413C18.2913 9.70039 18.2349 9.77582 18.2128 9.86368C18.1906 9.95154 18.2046 10.0448 18.2517 10.1222C18.2987 10.1996 18.3745 10.2556 18.4624 10.2769C18.5506 10.2983 18.6435 10.2835 18.7205 10.2361C19.4926 9.76921 20.0509 9.01849 20.2756 8.14454C20.5003 7.27059 20.3736 6.34376 19.9222 5.56273L19.9226 5.56312Z" class="stroke"/>
<path d="M8.07201 17.6946L5.49175 19.1844C5.24294 18.5927 5.20678 17.9329 5.38989 17.3175C5.573 16.7021 5.96372 16.1695 6.49555 15.8099C6.57097 15.7597 6.62346 15.6816 6.64134 15.5929C6.65922 15.5039 6.64056 15.4118 6.59002 15.3367C6.53948 15.2617 6.46134 15.2096 6.37231 15.1925C6.28328 15.175 6.19154 15.1941 6.1165 15.245C5.39339 15.7337 4.88138 16.4782 4.68467 17.3284C4.48795 18.1786 4.62013 19.0724 5.05477 19.8294C5.09987 19.9075 5.17413 19.9646 5.26121 19.988C5.3483 20.0113 5.44121 19.9992 5.51935 19.9538L8.41218 18.2836C8.4911 18.2389 8.54903 18.1646 8.57313 18.0768C8.59685 17.9893 8.5848 17.8956 8.5397 17.8171C8.49421 17.7386 8.41918 17.681 8.33132 17.6581C8.24346 17.6351 8.15015 17.648 8.07201 17.6942V17.6946Z" class="stroke"/>
<path d="M18.2686 15.2454C18.1858 15.1898 18.0823 15.1731 17.9863 15.2007C17.8903 15.2279 17.8106 15.2959 17.7694 15.3869C17.7021 15.5428 17.7569 15.7247 17.9 15.8173C18.4283 16.1781 18.8163 16.7099 18.9971 17.3238C19.1783 17.9376 19.1413 18.595 18.8933 19.1848L16.6077 17.8653C16.4452 17.7716 16.2369 17.8272 16.1432 17.9897C16.0495 18.1526 16.1051 18.3606 16.2676 18.4543L18.8657 19.9546C18.9439 19.9996 19.0364 20.0121 19.1239 19.9888C19.2109 19.9654 19.2852 19.9083 19.3303 19.8301C19.7653 19.0732 19.8975 18.1798 19.7004 17.3292C19.5033 16.4786 18.9917 15.7345 18.2682 15.2458L18.2686 15.2454Z" class="stroke"/>
<path d="M17.8122 12.8086V11.1396C17.811 10.0246 17.4786 8.93529 16.8573 8.00963C16.2361 7.08359 15.354 6.3632 14.323 5.93944C14.5943 5.13663 14.4804 4.25413 14.0147 3.54618C13.7017 3.07421 13.3289 2.64501 12.9047 2.26946C12.708 2.09529 12.4545 1.99927 12.1917 1.99927C11.9289 1.99927 11.6754 2.09529 11.4787 2.26946C11.0546 2.64501 10.6817 3.07421 10.3688 3.54618C9.90304 4.25374 9.78952 5.13663 10.0605 5.93905C9.02947 6.36281 8.14736 7.0832 7.52611 8.00925C6.90485 8.93491 6.57246 10.0246 6.57129 11.1392V12.8082C6.57129 15.9071 9.09246 18.4283 12.1913 18.4283C15.2902 18.4283 17.8114 15.9071 17.8114 12.8082L17.8122 12.8086ZM10.9364 3.92251C11.2167 3.49992 11.5506 3.11542 11.9305 2.77914C12.0798 2.64696 12.3045 2.64696 12.4538 2.77914C12.8332 3.11542 13.1675 3.49953 13.4478 3.92251C13.7969 4.45434 13.8817 5.11681 13.6784 5.7194C12.7053 5.4527 11.6789 5.4527 10.7058 5.7194C10.5025 5.11681 10.5873 4.45434 10.9364 3.92251ZM12.1921 17.7487C10.8823 17.7471 9.62701 17.2262 8.70097 16.3001C7.77492 15.3741 7.25397 14.1184 7.25241 12.809V11.14C7.25241 9.37499 8.19401 7.74449 9.72226 6.86199C11.2505 5.97948 13.1337 5.97948 14.662 6.86199C16.1902 7.74449 17.1318 9.37499 17.1318 11.14V12.809C17.1303 14.1187 16.6093 15.3741 15.6833 16.3001C14.7572 17.2262 13.5015 17.7471 12.1921 17.7487Z" class="stroke"/>
<path d="M16.0835 10.1206C16.2441 10.0257 16.2985 9.81928 16.2052 9.65755C16.1119 9.49621 15.9059 9.43984 15.7433 9.53159L14.6532 10.161L12.5329 8.93677V7.67794C12.5329 7.49017 12.3805 7.33777 12.1927 7.33777C12.0049 7.33777 11.8525 7.49017 11.8525 7.67794V8.93677L9.7322 10.161L8.6421 9.53159C8.47959 9.43984 8.27354 9.49621 8.18024 9.65755C8.08693 9.81928 8.14136 10.0257 8.30192 10.1206L9.39203 10.75V13.1985L8.30192 13.8275C8.22261 13.8722 8.16469 13.9465 8.14097 14.0343C8.11687 14.1218 8.12931 14.2155 8.17441 14.294C8.21989 14.3725 8.29454 14.4301 8.38279 14.453C8.47065 14.476 8.56395 14.4631 8.6421 14.4169L9.7322 13.7874L11.8525 15.0117V16.2705C11.8525 16.4583 12.0049 16.6107 12.1927 16.6107C12.3805 16.6107 12.5329 16.4583 12.5329 16.2705V15.0117L14.6532 13.7874L15.7433 14.4169C15.9059 14.5086 16.1119 14.4522 16.2052 14.2905C16.2985 14.1288 16.2441 13.9223 16.0835 13.8275L14.9934 13.1981V10.7496L16.0835 10.1202V10.1206ZM14.3131 13.1985L12.1927 14.4227L10.0724 13.1985V10.75L12.1927 9.52576L14.3131 10.75V13.1985Z" class="stroke"/>
</g>
<defs>
<clipPath id="clip0_3937_155266">
<rect width="16.3847" height="18" fill="white" transform="translate(4 2)"/>
</clipPath>
</defs>
</svg>
