<svg width="24" height="24" viewBox="0 0 24 24" fill="none" xmlns="http://www.w3.org/2000/svg">
<rect x="0.5" y="0.5" width="23" height="23" rx="11.5" stroke=""/>
<rect width="24" height="24" rx="12" fill=""/>
<path d="M17.0782 12.1737C17.3097 12.3012 17.394 12.592 17.2669 12.8235C17.1394 13.055 16.8486 13.1394 16.6171 13.0123C16.3856 12.8847 16.3012 12.594 16.4283 12.3624C16.5555 12.1309 16.8466 12.0466 17.0782 12.1737Z" class="stroke"/>
<path opacity="0.8" d="M18.8613 16.7617C17.8952 18.0661 16.5273 19.0169 14.9675 19.4666C14.3887 19.6334 13.7915 19.7275 13.1895 19.7464C13.0019 19.7523 12.854 19.9073 12.8568 20.0948C12.8583 20.1996 12.907 20.2926 12.9819 20.3546L12.1485 20.3621L12.0821 20.3287C12.648 19.8562 13.053 19.2127 13.2307 18.4879L13.9221 15.6736C13.9657 15.49 13.8531 15.3059 13.6698 15.2608C13.487 15.2161 13.3017 15.3271 13.2554 15.5096L12.564 18.3239C12.4008 18.9851 12.0017 19.5639 11.4421 19.952C10.8822 20.3401 10.2002 20.5104 9.52367 20.4311L10.1845 17.7431C10.2296 17.5591 10.1174 17.3735 9.93294 17.328C9.74891 17.2829 9.56291 17.3955 9.51778 17.5795L9.2325 18.7395C9.03787 18.6272 8.84794 18.506 8.6643 18.3769C8.48065 18.2478 8.3025 18.1104 8.13063 17.9652C7.13274 17.1243 6.37736 16.0315 5.94336 14.8009C5.50936 13.5699 5.41205 12.2452 5.66162 10.964C5.69026 10.8156 5.61885 10.6661 5.48582 10.5955C4.81873 10.2415 4.28938 9.6753 3.98134 8.98585C3.6733 8.29678 3.60424 7.52453 3.78553 6.79191C3.79102 6.76915 3.79691 6.74639 3.8028 6.72363C3.87147 6.7358 3.93896 6.75032 4.00488 6.7664H4.00528C5.15267 7.04462 6.07129 7.90242 6.42681 9.02862C6.4633 9.14202 6.55591 9.22874 6.67206 9.25739C6.78782 9.28564 6.91025 9.25229 6.99501 9.16831C7.83201 8.33524 9.04336 8.00052 10.1892 8.2858C10.2555 8.30228 10.3218 8.32072 10.3885 8.34152C10.3834 8.36467 10.3779 8.38743 10.3724 8.41019C10.2834 8.77238 10.1354 9.11456 9.93726 9.42495C9.7391 9.73534 9.4907 10.0132 9.19954 10.2466C8.6176 10.7132 7.89793 10.9749 7.15197 10.9918C7.05583 10.9938 6.96479 11.0362 6.90122 11.1088C6.83765 11.181 6.80744 11.2767 6.81803 11.3725C6.82471 11.4352 6.83098 11.498 6.83726 11.5604C6.88906 12.0804 6.94753 12.669 7.38663 13.0849C7.66916 13.3521 8.03684 13.5181 8.29544 13.6099C8.76319 13.7744 9.27096 13.7861 9.74577 13.6445L19.0234 10.9494C19.311 10.8655 19.6214 10.9165 19.8671 11.088C19.9385 11.1378 20.0032 11.1967 20.0593 11.263C19.8168 11.8049 18.4646 14.4509 14.652 15.8757C14.5139 15.9271 14.4287 16.0585 14.4287 16.1975C14.4287 16.2375 14.4354 16.2779 14.4503 16.3175C14.5166 16.4953 14.7148 16.5856 14.8922 16.5192C17.2536 15.6363 18.7142 14.3033 19.5237 13.34C19.8137 12.9966 20.0774 12.6317 20.3117 12.2479C20.3368 13.8709 19.827 15.457 18.8617 16.7617H18.8613Z" fill="white"/>
<path d="M17.0782 12.1737C17.3097 12.3012 17.394 12.592 17.2669 12.8235C17.1394 13.055 16.8486 13.1394 16.6171 13.0123C16.3856 12.8847 16.3012 12.594 16.4283 12.3624C16.5555 12.1309 16.8466 12.0466 17.0782 12.1737Z" class="stroke"/>
<path d="M20.9793 11.7903C20.944 11.283 20.6811 10.8188 20.264 10.5276C19.8472 10.2364 19.321 10.1493 18.8321 10.2902L9.55446 12.9848C9.21817 13.0865 8.85795 13.0786 8.52597 12.9632C8.24854 12.8644 8.01153 12.7305 7.85928 12.5861C7.63639 12.375 7.5791 12.0427 7.5375 11.6534C8.36548 11.5588 9.14519 11.2131 9.77146 10.6626C10.3973 10.112 10.84 9.38334 11.0397 8.57381C11.0727 8.43882 11.0994 8.30187 11.1186 8.16414C11.1406 8.00796 11.0531 7.85649 10.9067 7.79763C10.7266 7.72503 10.5418 7.66539 10.3534 7.61869C9.15107 7.3185 7.87733 7.58573 6.89671 8.34386C6.37912 7.21805 5.37418 6.39086 4.16949 6.09969C3.98075 6.05339 3.78965 6.02082 3.59619 6.00159C3.43923 5.9859 3.29168 6.07929 3.23871 6.22801C3.19201 6.35907 3.15199 6.49249 3.11903 6.62748C2.91144 7.46722 2.97658 8.35053 3.30503 9.15025C3.63308 9.94997 4.20756 10.6245 4.94449 11.0766C4.72161 12.4437 4.85738 13.8458 5.33807 15.145C5.81877 16.4443 6.6283 17.5968 7.68779 18.4895C8.11316 18.8493 8.57384 19.1652 9.06278 19.4324L8.77083 20.621C8.72571 20.8051 8.83793 20.9911 9.02236 21.0366C9.91862 21.2571 10.8659 21.1127 11.6554 20.6348C12.4449 20.1568 13.0119 19.3842 13.2317 18.4879L13.9231 15.6736C13.9667 15.4899 13.854 15.3059 13.6708 15.2608C13.4879 15.216 13.3027 15.3267 13.256 15.5096L12.5646 18.3239C12.4014 18.9851 12.0023 19.5639 11.4427 19.952C10.8828 20.3401 10.2011 20.5104 9.52464 20.4311L10.1851 17.7431C10.2302 17.5591 10.118 17.3731 9.93353 17.3276C9.74949 17.2824 9.56349 17.3951 9.51797 17.5791L9.23269 18.7391C8.84303 18.5142 8.47417 18.2552 8.13082 17.9648C7.13293 17.1235 6.37755 16.0311 5.94356 14.8001C5.50956 13.5691 5.41224 12.2444 5.66181 10.9632C5.69045 10.8148 5.61904 10.6653 5.48562 10.5947C4.81892 10.2407 4.28957 9.6745 3.98114 8.98505C3.6731 8.29598 3.60404 7.52373 3.78533 6.79072C3.79082 6.76796 3.79671 6.7452 3.80299 6.72244C3.87166 6.735 3.93876 6.74912 4.00508 6.76521C5.15286 7.04343 6.07109 7.90122 6.42661 9.02743C6.4631 9.14083 6.55571 9.22755 6.67147 9.2562C6.78723 9.28484 6.90966 9.2511 6.99442 9.16712C7.83141 8.33405 9.04277 7.99933 10.1886 8.285C10.2549 8.30108 10.3212 8.31992 10.3875 8.34072C10.3824 8.36387 10.3769 8.38663 10.3715 8.40939C10.1929 9.13377 9.78088 9.77927 9.19855 10.2458C8.61662 10.7128 7.89695 10.9745 7.15098 10.9914C7.05445 10.9934 6.96342 11.0358 6.90024 11.1083C6.83667 11.1806 6.80645 11.2767 6.81705 11.3724C6.82411 11.4348 6.83039 11.4976 6.83628 11.5604C6.88807 12.0799 6.94654 12.6689 7.38564 13.0845C7.66817 13.3521 8.03586 13.5177 8.29445 13.6099C8.7622 13.774 9.26997 13.7861 9.74478 13.6441L19.0224 10.9494C19.31 10.8654 19.6204 10.9161 19.8661 11.0879C19.9375 11.1378 20.0022 11.1966 20.0584 11.263C19.8158 11.8049 18.4636 14.4505 14.651 15.8757C14.4733 15.942 14.3834 16.1398 14.4497 16.3175C14.516 16.4953 14.7138 16.5851 14.8916 16.5188C17.2531 15.6363 18.7136 14.3029 19.5231 13.34C19.8131 12.9966 20.0764 12.6313 20.3111 12.2475C20.3362 13.8705 19.8268 15.4566 18.8611 16.7613C17.8954 18.0661 16.5271 19.0165 14.9677 19.4662C14.3889 19.633 13.7917 19.7271 13.1897 19.746C13.0021 19.7518 12.8542 19.9068 12.8569 20.0944C12.8597 20.282 13.0123 20.4323 13.1999 20.4327C13.2034 20.4327 13.207 20.4327 13.2109 20.4327C13.8701 20.4119 14.5243 20.3091 15.158 20.1266C16.936 19.6137 18.4844 18.506 19.5439 16.9889C20.6034 15.4719 21.11 13.6366 20.9789 11.7907L20.9793 11.7903Z" class="stroke"/>
</svg>
