<svg width="24" height="24" viewBox="0 0 24 24" fill="none" xmlns="http://www.w3.org/2000/svg">
<rect x="0.5" y="0.5" width="23" height="23" rx="11.5" stroke=""/>
<rect width="24" height="24" rx="12" fill=""/>
<g clip-path="url(#clip0_3937_155244)">
<g opacity="0.8">
<path d="M18.8726 9.65107C18.6917 9.2777 18.464 8.87827 18.1205 8.63791C18.3852 8.82304 19.3229 7.792 19.4415 7.57303C19.7552 6.99353 19.7831 6.25535 19.5692 5.63851C19.2827 4.81165 18.5838 4.20298 17.7364 4.04157C16.8887 3.88056 16.0207 4.19131 15.4594 4.85676L15.1718 5.19824C14.9384 5.47321 14.7839 5.80808 14.7246 6.16589C12.9637 5.52027 11.0363 5.52027 9.27582 6.16589C9.21653 5.80769 9.06159 5.47321 8.82862 5.19824L8.54055 4.85676C7.97858 4.19403 7.11171 3.88484 6.26549 4.04663C5.41928 4.20803 4.7215 4.81554 4.43458 5.64123C4.22533 6.24407 4.39097 6.78623 4.64002 7.34434C4.8837 7.89039 5.32211 8.06619 5.69357 8.50995C5.89594 8.75148 5.89441 8.5609 5.77314 8.89149C5.715 9.05095 5.52487 9.2213 5.40933 9.3407C4.84698 9.92215 4.63428 10.5394 4.38906 11.3095C4.13198 12.1184 4 12.9682 4 13.8188C4 14.3808 4.057 14.9451 4.17292 15.5029C4.19319 15.6016 4.25593 15.686 4.34392 15.7335C4.50153 15.8183 4.68936 15.9058 4.90666 16.0073C6.06848 16.5495 7.82479 17.3685 8.40398 19.3035C8.50344 19.6379 8.68324 19.9351 8.92081 20.1723C9.158 20.41 9.45295 20.5877 9.78347 20.6834C11.2318 21.1057 12.7678 21.1057 14.2165 20.6834C14.8772 20.492 15.3967 19.972 15.596 19.3035C16.1752 17.3685 17.9311 16.5495 19.0933 16.0073C19.3106 15.9058 19.4985 15.8183 19.6561 15.7335C19.7001 15.7098 19.7376 15.6767 19.7666 15.6374C19.7961 15.5981 19.8168 15.5523 19.8271 15.5029C20.2429 13.4999 19.9024 11.411 18.8726 9.65146V9.65107Z" fill="white"/>
</g>
<path d="M18.8727 9.65146C18.2655 8.39834 17.0498 7.59248 16.9981 7.55865C16.8428 7.45675 16.6355 7.50225 16.5352 7.66016C16.435 7.81806 16.4798 8.02886 16.6351 8.13037C16.9408 8.34389 17.225 8.58775 17.4836 8.85766C17.4951 8.87866 17.5085 8.89811 17.5238 8.91639C18.2529 9.76736 18.7828 10.7751 19.0739 11.8641C19.3646 12.9531 19.4086 14.095 19.2028 15.2038C19.0892 15.2602 18.9584 15.3212 18.8137 15.3885C17.6198 15.9455 15.6221 16.8773 14.9549 19.1051C14.8214 19.5532 14.4733 19.9009 14.0307 20.0296C13.4779 20.1906 12.9086 20.2851 12.334 20.3108V18.5174L13.7078 16.763C13.7831 16.6665 13.7977 16.5351 13.7453 16.4242C13.6925 16.3134 13.5823 16.243 13.4614 16.243H10.5375C10.4167 16.243 10.3061 16.3134 10.2537 16.4242C10.2013 16.5351 10.2158 16.6665 10.2912 16.763L11.6649 18.5174V20.3108C11.0903 20.2851 10.5211 20.1906 9.9683 20.0296C9.52568 19.9012 9.17756 19.5532 9.04404 19.1051C8.37725 16.8773 6.37916 15.9455 5.18521 15.3885C5.0406 15.3212 4.90977 15.2602 4.79615 15.2038C4.59033 14.095 4.63433 12.9535 4.92507 11.8645C5.21581 10.7755 5.74565 9.76775 6.47518 8.91678C6.49087 8.8985 6.50464 8.87828 6.51612 8.85688C6.77472 8.58736 7.05858 8.34389 7.36348 8.13076C7.51879 8.02886 7.56355 7.81845 7.46332 7.66055C7.36309 7.50264 7.15575 7.45714 7.00043 7.55904C6.94879 7.59287 5.72843 8.40184 5.12247 9.65885C4.09684 11.4164 3.75751 13.5026 4.17296 15.5029C4.19362 15.6017 4.25598 15.6861 4.34397 15.7335C4.50196 15.8183 4.68941 15.9058 4.90671 16.0073C6.06891 16.5495 7.82484 17.3686 8.40441 19.3035C8.60372 19.972 9.12323 20.4916 9.78391 20.6834C11.2323 21.1058 12.7682 21.1058 14.217 20.6834C14.8776 20.4916 15.3971 19.972 15.5965 19.3035C16.1756 17.3686 17.932 16.5491 19.0942 16.0073C19.3114 15.9058 19.4989 15.8183 19.6569 15.7335C19.7449 15.6864 19.8072 15.6017 19.8279 15.5029C20.2441 13.4999 19.9033 11.411 18.8734 9.65146H18.8727ZM12.7273 16.9232L12.0238 17.822C12.0161 17.8213 12.0081 17.8209 12.0004 17.8209C11.9928 17.8209 11.9847 17.8217 11.9771 17.822L11.2736 16.9232H12.7277H12.7273Z" class="stroke"/>
<path d="M5.34566 8.08798C5.48605 7.96585 5.5025 7.75078 5.382 7.60804C4.97649 7.12655 4.85407 6.46226 5.06142 5.86448C5.26838 5.2667 5.77374 4.82682 6.38659 4.71015C6.99944 4.59347 7.62645 4.81827 8.03234 5.29976L8.32003 5.64124C8.55109 5.91349 8.66165 6.26974 8.62722 6.62756C8.61612 6.74735 8.66777 6.86402 8.76379 6.93481C8.85943 7.00559 8.98491 7.01959 9.09355 6.97176C10.0117 6.56961 11.0006 6.36231 12.0002 6.36231C12.9998 6.36231 13.9887 6.56961 14.9069 6.97176C15.0155 7.01959 15.141 7.0052 15.2366 6.93481C15.3323 6.86402 15.3843 6.74735 15.3732 6.62756C15.3388 6.26974 15.4497 5.91349 15.6804 5.64163L15.9681 5.30015C16.3736 4.81866 17.001 4.59425 17.6138 4.71053C18.2267 4.82682 18.7317 5.26709 18.939 5.86487C19.1463 6.46265 19.0239 7.12733 18.6184 7.60843C18.4994 7.75117 18.5163 7.96508 18.6563 8.08681C18.7959 8.20854 19.0063 8.1926 19.1268 8.05142C19.6877 7.38557 19.8568 6.46576 19.5698 5.6389C19.2833 4.81204 18.5844 4.20337 17.737 4.04197C16.8893 3.88095 16.0216 4.19132 15.46 4.85716L15.1724 5.19864C14.939 5.47361 14.7844 5.80848 14.7252 6.16629C12.9646 5.52067 11.0373 5.52067 9.27641 6.16629C9.21712 5.80809 9.06257 5.47361 8.82921 5.19864L8.54153 4.85716C7.97879 4.19365 7.11192 3.88484 6.2657 4.04625C5.41911 4.20804 4.72171 4.81554 4.43479 5.64124C4.14788 6.46654 4.31543 7.3848 4.87397 8.05103C4.93173 8.11948 5.01398 8.16187 5.10235 8.16887C5.1911 8.17587 5.27871 8.14671 5.34604 8.08798H5.34566Z" class="stroke"/>
<path d="M9.26247 17.3348C9.35122 17.3348 9.43653 17.299 9.49927 17.2352C9.56201 17.1714 9.59721 17.0847 9.59721 16.9944C9.59721 16.1213 10.0551 15.3151 10.7988 14.8783C11.5425 14.4419 12.4583 14.4419 13.202 14.8783C13.9457 15.3147 14.4036 16.1213 14.4036 16.9944C14.4036 17.1823 14.5536 17.3348 14.7384 17.3348C14.9231 17.3348 15.0731 17.1823 15.0731 16.9944C15.0731 15.8782 14.4874 14.8472 13.5368 14.2891C12.5861 13.731 11.4147 13.731 10.4641 14.2891C9.51343 14.8472 8.92773 15.8782 8.92773 16.9944C8.92773 17.1823 9.0777 17.3348 9.26247 17.3348Z" class="stroke"/>
<path d="M9.97877 12.5848C10.0614 12.9403 9.84488 13.2961 9.49522 13.3802C9.14595 13.4642 8.79553 13.244 8.7129 12.8885C8.63026 12.5335 8.84679 12.1772 9.19645 12.0932C9.5461 12.0092 9.89614 12.2293 9.97877 12.5848Z" class="stroke"/>
<path d="M15.1141 12.2694C15.3681 12.5276 15.3681 12.9461 15.1141 13.2044C14.8601 13.4626 14.4484 13.4626 14.1944 13.2044C13.9404 12.9461 13.9404 12.5276 14.1944 12.2694C14.4484 12.0111 14.8597 12.0111 15.1141 12.2694Z" class="stroke"/>
</g>
<defs>
<clipPath id="clip0_3937_155244">
<rect width="16" height="17" fill="" transform="translate(4 4)"/>
</clipPath>
</defs>
</svg>
