<svg width="24" height="24" viewBox="0 0 24 24" fill="none" xmlns="http://www.w3.org/2000/svg">
<rect x="0.5" y="0.5" width="23" height="23" rx="11.5" stroke=""/>
<rect width="24" height="24" rx="12" fill=""/>
<path opacity="0.8" d="M16.6403 14.6014C16.5869 14.8023 16.7065 15.0088 16.9074 15.0621L18.8126 15.5684C18.0676 17.6818 15.4491 19.2468 12.3421 19.2468C9.23497 19.2468 6.61655 17.6818 5.87151 15.5684L7.77714 15.0621C7.94533 15.0174 8.05675 14.8651 8.05675 14.6986C8.05675 14.6668 8.05244 14.6341 8.04384 14.6014C7.9905 14.4005 7.78445 14.2809 7.58356 14.3347L5.69342 14.8371C5.62631 14.3515 5.65814 13.8572 5.78633 13.384L7.58356 13.8615C7.78445 13.9153 7.9905 13.7953 8.04384 13.5948C8.09761 13.3935 7.97803 13.1875 7.77714 13.1341L6.05519 12.6764C6.09562 12.5938 6.1395 12.5125 6.18596 12.4312C6.5645 11.7765 6.88239 11.0401 7.15641 10.1802L7.15813 10.1754C7.16028 10.1673 7.16243 10.1587 7.16458 10.1505L7.16716 10.1389C7.16888 10.1307 7.17018 10.1221 7.17104 10.1139C7.1719 10.1096 7.17233 10.1057 7.17276 10.1019C7.17362 10.0937 7.17405 10.0851 7.17405 10.0769C7.17405 10.0731 7.17448 10.0692 7.17448 10.0649C7.17448 10.0567 7.17405 10.0485 7.17319 10.0404C7.17319 10.0361 7.17276 10.0322 7.17276 10.0283C7.1719 10.0201 7.17061 10.0124 7.16931 10.0042C7.16845 9.99993 7.16802 9.99563 7.16716 9.99175C7.16544 9.98401 7.16372 9.9767 7.16157 9.96939C7.16028 9.96465 7.15942 9.95992 7.15813 9.95562C7.15555 9.94874 7.1534 9.94185 7.15082 9.93497C7.14867 9.93024 7.14695 9.92551 7.1448 9.92035C7.14394 9.91777 7.14307 9.91518 7.14178 9.91217C6.45997 8.37777 6.14423 6.70572 6.21951 5.02808L8.54929 6.46182C8.72608 6.57108 8.95794 6.51559 9.06677 6.33879C9.15754 6.19124 9.13431 6.0067 9.02204 5.88583L9.82602 6.30223C8.88008 6.73368 8.04728 7.40689 7.42225 8.2741C7.36375 8.35497 7.33966 8.45606 7.35558 8.55457C7.37149 8.65351 7.42655 8.74212 7.50742 8.8002C7.58873 8.8587 7.69025 8.88236 7.78875 8.86601C7.88769 8.84967 7.97544 8.7946 8.03352 8.7133C9.02591 7.33634 10.6167 6.51688 12.3137 6.50741C14.0107 6.49838 15.61 7.30021 16.6175 8.66598C16.6915 8.76664 16.8054 8.81998 16.9212 8.81998C16.9986 8.81998 17.0765 8.79589 17.1436 8.74686C17.224 8.68792 17.2778 8.59931 17.2928 8.5008C17.3083 8.40186 17.2834 8.3012 17.2244 8.22076C16.6041 7.37936 15.7868 6.72551 14.8615 6.30309L15.6505 5.89916C15.5485 6.02004 15.5304 6.19684 15.6178 6.33879C15.7266 6.51559 15.9585 6.57108 16.1353 6.46182L18.465 5.02808C18.5403 6.70572 18.2246 8.3782 17.5428 9.9126L17.5402 9.91906C17.5376 9.92551 17.535 9.93239 17.5324 9.93884L17.5273 9.95433L17.5221 9.97369C17.5208 9.97928 17.5191 9.98487 17.5178 9.99003C17.5165 9.99649 17.5157 10.0029 17.5148 10.0094C17.5139 10.0154 17.5131 10.021 17.5122 10.0266L17.5109 10.046C17.5109 10.0515 17.5105 10.0576 17.5105 10.0632C17.5105 10.0696 17.5109 10.0761 17.5109 10.0825C17.5109 10.0881 17.5109 10.0941 17.5118 10.1002C17.5122 10.1062 17.5135 10.1126 17.5144 10.1187C17.5152 10.1247 17.5161 10.1311 17.5174 10.1371C17.5187 10.1427 17.52 10.1488 17.5212 10.1544C17.5225 10.1608 17.5243 10.1673 17.5264 10.1737C17.5268 10.1763 17.5273 10.1784 17.5281 10.1806C17.8026 11.0405 18.12 11.7769 18.4986 12.4321C18.5455 12.513 18.5893 12.5947 18.6298 12.6768L16.9078 13.1345C16.7069 13.1875 16.5869 13.3935 16.6403 13.5948C16.694 13.7953 16.9001 13.9153 17.101 13.8615L18.8978 13.384C19.0264 13.8572 19.0578 14.3515 18.9911 14.8371L17.101 14.3347C16.9001 14.2809 16.694 14.4005 16.6403 14.6014Z" fill="white"/>
<path d="M10.4551 11.6345C10.4551 11.9726 10.1807 12.2467 9.84302 12.2467C9.50534 12.2467 9.23047 11.9726 9.23047 11.6345C9.23047 11.2964 9.50491 11.022 9.84302 11.022C10.1811 11.022 10.4551 11.2964 10.4551 11.6345Z" class="stroke"/>
<path d="M15.4551 11.6345C15.4551 11.9726 15.1807 12.2467 14.8426 12.2467C14.5045 12.2467 14.2305 11.9726 14.2305 11.6345C14.2305 11.2964 14.5049 11.022 14.8426 11.022C15.1803 11.022 15.4551 11.2964 15.4551 11.6345Z" class="stroke"/>
<path d="M10.8871 15.728C10.6794 15.728 10.5107 15.8966 10.5107 16.1044C10.5107 16.3121 10.6794 16.4808 10.8871 16.4808C11.4584 16.4808 11.997 16.2136 12.3428 15.7594C12.6887 16.2136 13.2272 16.4808 13.7985 16.4808C14.0063 16.4808 14.1749 16.3121 14.1749 16.1044C14.1749 15.8966 14.0063 15.728 13.7985 15.728C13.5124 15.728 13.238 15.6135 13.0358 15.4114C12.8332 15.2092 12.7196 14.9347 12.7192 14.6487V14.1226L13.4027 13.264C13.4875 13.1573 13.5038 13.0119 13.4449 12.8893C13.3855 12.7667 13.2616 12.6888 13.1257 12.6888H11.5608C11.4248 12.6888 11.3005 12.7667 11.2416 12.8893C11.1822 13.0119 11.1986 13.1573 11.2837 13.264L11.9673 14.1226V14.6487C11.9673 14.9347 11.8533 15.2092 11.6507 15.4114C11.4481 15.6135 11.1741 15.7275 10.888 15.728H10.8871Z" class="stroke"/>
<path d="M16.6173 8.66633C16.7403 8.83366 16.976 8.87023 17.1434 8.7472C17.2238 8.68827 17.2776 8.59965 17.2926 8.50071C17.3081 8.40221 17.2832 8.30155 17.2242 8.22111C16.0744 6.6609 14.2479 5.74465 12.3096 5.75497C10.3717 5.76529 8.55511 6.70176 7.42206 8.27445C7.36355 8.35532 7.33946 8.45641 7.35538 8.55535C7.3713 8.65428 7.42593 8.74247 7.50723 8.80097C7.58853 8.85947 7.68962 8.88313 7.78856 8.86679C7.88749 8.85044 7.97525 8.79538 8.03375 8.71408C9.02614 7.33755 10.6165 6.51765 12.3139 6.50819C14.0109 6.49916 15.6103 7.30098 16.6177 8.66676L16.6173 8.66633Z" class="stroke"/>
<path d="M20.4043 15.2131L19.7233 15.032C19.821 14.4181 19.7874 13.7905 19.6257 13.1909L20.4043 12.984C20.6052 12.9306 20.7247 12.7241 20.6714 12.5237C20.6181 12.3228 20.4116 12.2032 20.2111 12.2565L19.3697 12.4802C19.3043 12.337 19.2316 12.1955 19.1508 12.0552C18.7963 11.4298 18.5072 10.769 18.2887 10.0842C18.9925 8.44571 19.3082 6.66698 19.2118 4.88609L19.1826 4.3557C19.1753 4.22321 19.0987 4.10448 18.9813 4.04297C18.8638 3.98146 18.7223 3.98619 18.6096 4.05587L15.7413 5.82084C15.5645 5.92967 15.509 6.16153 15.6182 6.33876C15.7271 6.51556 15.9589 6.57105 16.1362 6.46179L18.4659 5.02805C18.5412 6.70569 18.2255 8.37818 17.5437 9.91258C17.5428 9.91473 17.5419 9.91645 17.5415 9.9186C17.5385 9.92505 17.5364 9.93193 17.5338 9.93839C17.5321 9.94355 17.5299 9.94828 17.5286 9.95387C17.5265 9.96032 17.5247 9.96678 17.5234 9.97366C17.5222 9.97882 17.5204 9.98441 17.5196 9.99001C17.5183 9.99646 17.5174 10.0029 17.5166 10.0094C17.5157 10.015 17.5148 10.021 17.5144 10.0266C17.5136 10.033 17.5136 10.0395 17.5131 10.0459C17.5131 10.0519 17.5123 10.0575 17.5123 10.0636C17.5123 10.07 17.5123 10.0765 17.5127 10.0829C17.5127 10.0889 17.5131 10.0945 17.5136 10.1006C17.514 10.1066 17.5153 10.113 17.5157 10.1191C17.5166 10.1251 17.5174 10.1315 17.5187 10.1376C17.52 10.1431 17.5213 10.1492 17.5226 10.1548C17.5243 10.1612 17.5256 10.1677 17.5278 10.1741C17.5286 10.1763 17.5286 10.1788 17.5295 10.181C17.8039 11.0405 18.1214 11.7769 18.4999 12.4321C18.5468 12.5129 18.5903 12.5947 18.6307 12.6768L16.9087 13.1345C16.7079 13.1874 16.5883 13.3939 16.6416 13.5948C16.695 13.7957 16.9014 13.9153 17.1019 13.8619L18.8991 13.384C19.0273 13.8572 19.0591 14.3515 18.992 14.8371L17.1019 14.3347C16.901 14.2813 16.695 14.4009 16.6416 14.6018C16.5883 14.8027 16.7079 15.0087 16.9087 15.0621L18.8139 15.5684C18.0689 17.6818 15.4505 19.2472 12.3434 19.2472C9.23631 19.2472 6.6179 17.6818 5.87285 15.5688L7.77805 15.0625C7.97894 15.0092 8.09853 14.8027 8.04519 14.6018C7.99184 14.4009 7.7858 14.2813 7.58491 14.3347L5.69476 14.8371C5.62766 14.3515 5.65949 13.8572 5.78768 13.384L7.58491 13.8619C7.7858 13.9153 7.99184 13.7957 8.04519 13.5948C8.09853 13.3939 7.97894 13.1879 7.77805 13.1341L6.0561 12.6764C6.09697 12.5942 6.14041 12.5125 6.18687 12.4312C6.56542 11.7761 6.88288 11.04 7.15732 10.1801C7.15775 10.1784 7.15818 10.1771 7.15861 10.1754C7.1612 10.1672 7.16335 10.1586 7.16507 10.1505C7.16593 10.1466 7.16679 10.1427 7.16765 10.1388C7.16937 10.1307 7.17066 10.1225 7.17152 10.1139C7.17195 10.11 7.17281 10.1057 7.17324 10.1018C7.1741 10.0937 7.17453 10.0855 7.17453 10.0773C7.17453 10.0735 7.17453 10.0692 7.17453 10.0649C7.17453 10.0567 7.1741 10.0485 7.17367 10.0403C7.17367 10.0365 7.17324 10.0322 7.17281 10.0283C7.17195 10.0201 7.17066 10.0124 7.16937 10.0042C7.16851 9.9999 7.16808 9.9956 7.16722 9.99173C7.1655 9.98398 7.16378 9.97667 7.16206 9.96936C7.16076 9.96463 7.1599 9.96032 7.15818 9.95602C7.15603 9.94914 7.15345 9.94226 7.15087 9.93537C7.14915 9.93064 7.147 9.92548 7.14528 9.92075C7.14399 9.91817 7.14313 9.91559 7.14227 9.91258C6.46046 8.37818 6.14471 6.70612 6.21999 5.02848L8.54977 6.46222C8.727 6.57148 8.95843 6.51599 9.06769 6.33919C9.17652 6.16196 9.12146 5.93054 8.94423 5.82127L6.07546 4.05587C5.96275 3.98619 5.82123 3.98146 5.70379 4.04297C5.58636 4.10448 5.50979 4.22321 5.50248 4.3557L5.47323 4.88609C5.37687 6.66655 5.69304 8.44571 6.39636 10.0842C6.17741 10.7695 5.88877 11.4298 5.53431 12.0552C5.45344 12.195 5.38031 12.3366 5.31536 12.4802L4.47395 12.2565C4.27306 12.2028 4.06702 12.3228 4.01368 12.5237C3.96033 12.7246 4.07992 12.9306 4.28081 12.984L5.05941 13.1909C4.89767 13.7909 4.86411 14.4186 4.96176 15.032L4.28081 15.2131C4.07992 15.2664 3.96033 15.4729 4.01368 15.6733C4.06702 15.8742 4.2735 15.9938 4.47395 15.9405L5.14157 15.7633C5.47323 16.7475 6.14988 17.6469 7.12549 18.3774C8.52353 19.424 10.3763 20.0004 12.343 20.0004C14.3097 20.0004 16.1624 19.424 17.5604 18.3774C18.5361 17.6469 19.2127 16.7475 19.5444 15.7633L20.212 15.9405C20.4129 15.9938 20.6189 15.8742 20.6723 15.6733C20.7256 15.4725 20.606 15.2664 20.4051 15.2131H20.4043Z" class="stroke"/>
</svg>
