<svg width="24" height="24" viewBox="0 0 24 24" fill="none" xmlns="http://www.w3.org/2000/svg">
<rect x="0.5" y="0.5" width="23" height="23" rx="11.5" stroke=""/>
<rect width="24" height="24" rx="12" fill=""/>
<g clip-path="url(#clip0_3937_155083)">
<path opacity="0.8" d="M21.5673 7.97658C21.5673 5.90593 19.9493 4.22674 17.9534 4.22674C16.268 4.22674 14.8517 5.42399 14.4523 7.04317C13.696 6.76934 12.8792 6.6198 12.0271 6.6198C11.08 6.6198 10.1766 6.80506 9.35104 7.13985C9.03734 5.40113 7.56746 4.08435 5.79994 4.08435C3.80402 4.08435 2.18555 5.76306 2.18555 7.83371C2.18555 9.72244 3.5316 11.284 5.28216 11.5445C5.0799 12.1946 4.97075 12.8856 4.97075 13.6013C4.97075 17.2016 7.72523 20.1647 11.263 20.5414C10.5297 20.169 10.0037 19.1599 10.0037 17.9731C10.0037 16.4697 10.8471 15.251 11.8872 15.251C12.9274 15.251 13.7708 16.4697 13.7708 17.9731C13.7708 19.1904 13.2177 20.2209 12.4545 20.5691C16.1524 20.35 19.0825 17.3145 19.0825 13.6009C19.0825 12.9137 18.9816 12.2498 18.7945 11.6221C20.3841 11.2283 21.5664 9.74578 21.5664 7.97563L21.5673 7.97658ZM5.80865 9.89436C4.94736 9.89436 4.24934 9.16954 4.24934 8.27518C4.24934 7.38082 4.94736 6.656 5.80865 6.656C6.66994 6.656 7.36796 7.38082 7.36796 8.27518C7.36796 9.16954 6.66994 9.89436 5.80865 9.89436ZM18.1125 9.89436C17.2512 9.89436 16.5532 9.16954 16.5532 8.27518C16.5532 7.38082 17.2512 6.656 18.1125 6.656C18.9738 6.656 19.6718 7.38082 19.6718 8.27518C19.6718 9.16954 18.9738 9.89436 18.1125 9.89436Z" fill="white"/>
<path d="M18.1208 4.00057C17.3315 3.99724 16.5606 4.24583 15.9116 4.71206C15.2627 5.17829 14.7669 5.83977 14.4913 6.60793C12.8838 5.98979 11.1163 5.98979 9.50837 6.60793C9.18229 5.70929 8.55765 4.96113 7.74726 4.49871C6.93642 4.03534 5.9935 3.88913 5.08818 4.08486C4.18286 4.2806 3.37431 4.8054 2.80883 5.56547C2.24381 6.32553 1.95855 7.27037 2.00487 8.2295C2.05119 9.18863 2.42588 10.0992 3.06153 10.7969C3.69718 11.4941 4.55205 11.9331 5.47159 12.0336C5.4858 12.0351 5.49956 12.036 5.51378 12.036C5.7275 12.036 5.90361 11.8622 5.91416 11.6407C5.92516 11.4193 5.76694 11.2278 5.5546 11.205C4.80475 11.1226 4.10948 10.7569 3.60225 10.1773C3.09501 9.59771 2.81021 8.84479 2.80241 8.06139C2.79462 7.27799 3.06429 6.51935 3.56005 5.92883C4.05582 5.3383 4.74376 4.9578 5.49177 4.85969C6.24024 4.76111 6.99742 4.95208 7.61931 5.39545C8.2412 5.83882 8.68468 6.50412 8.86492 7.26466C8.89336 7.38467 8.97132 7.48515 9.07818 7.53944C9.18504 7.59373 9.30933 7.59611 9.41802 7.54611C11.0622 6.7889 12.9375 6.7889 14.5816 7.54611C14.7055 7.60373 14.8486 7.59183 14.9623 7.51563C15.076 7.43943 15.1453 7.30847 15.1457 7.16798C15.1609 7.14084 15.1728 7.11226 15.182 7.08274C15.4021 6.34505 15.8727 5.71548 16.5055 5.30973C17.1384 4.90446 17.892 4.75111 18.6258 4.87779C19.3595 5.00447 20.0241 5.40307 20.4965 5.99979C20.9688 6.5965 21.2174 7.35038 21.1954 8.12235C21.1738 8.89432 20.8835 9.632 20.3781 10.1987C19.8727 10.7654 19.1871 11.1231 18.4473 11.205C18.235 11.2278 18.0772 11.4198 18.0887 11.6412C18.0997 11.8627 18.2758 12.036 18.4891 12.0365C18.5033 12.0365 18.5175 12.0355 18.5317 12.0341C19.8608 11.8869 21.0239 11.0397 21.6091 9.79153C22.1938 8.54333 22.1186 7.07035 21.41 5.89359C20.7006 4.71587 19.4577 4.00057 18.1213 4.00057H18.1208Z" class="stroke"/>
<path d="M18.1215 9.39851C18.0183 9.39851 17.9151 9.38613 17.8146 9.36089C17.5991 9.30755 17.3826 9.44566 17.3313 9.66949C17.2799 9.89332 17.4129 10.1181 17.6284 10.1714C18.2196 10.3181 18.8433 10.1938 19.3409 9.83093C19.8385 9.46804 20.1619 8.90085 20.2297 8.27318C20.2972 7.64551 20.1027 7.01831 19.6945 6.55018C19.2868 6.08204 18.7048 5.81774 18.0967 5.82536C17.489 5.8325 16.913 6.11014 16.5154 6.5878C16.1177 7.06546 15.9366 7.69742 16.0182 8.32318C16.048 8.5513 16.2498 8.71131 16.4695 8.68036C16.575 8.66559 16.6704 8.60797 16.735 8.51987C16.7997 8.43176 16.8277 8.3208 16.8135 8.21175C16.7649 7.84076 16.8648 7.46549 17.0896 7.17261C17.3143 6.88021 17.6445 6.69543 18.0036 6.66162C18.3627 6.6278 18.719 6.74829 18.9905 6.9945C19.262 7.24071 19.4249 7.59169 19.4409 7.96553C19.4574 8.33938 19.3253 8.70417 19.0763 8.97467C18.8273 9.24517 18.4824 9.39851 18.1219 9.39851H18.1215Z" class="stroke"/>
<path d="M7.53117 8.68044C7.75085 8.71092 7.9531 8.55138 7.98245 8.32327C8.06455 7.69322 7.87972 7.05697 7.4766 6.57788C7.07347 6.09927 6.49056 5.82496 5.8783 5.82544C5.26604 5.82544 4.68314 6.10118 4.28093 6.58027C3.87826 7.05935 3.69435 7.69607 3.77736 8.32613C3.85991 8.95618 4.20067 9.51861 4.71203 9.86864C5.22339 10.2187 5.85537 10.322 6.44562 10.1525C6.65933 10.091 6.78454 9.86149 6.72537 9.63957C6.66621 9.41765 6.44516 9.28764 6.23144 9.34955C5.87417 9.45241 5.49168 9.39431 5.17753 9.18953C4.86337 8.98475 4.6469 8.65234 4.5804 8.27374C4.5139 7.89514 4.60425 7.50463 4.82852 7.19794C5.05324 6.89172 5.39125 6.69742 5.76044 6.66265C6.12963 6.62789 6.49606 6.75647 6.76986 7.01602C7.04366 7.27556 7.19959 7.64274 7.19959 8.02801C7.19959 8.08944 7.19546 8.15087 7.18766 8.21183C7.17345 8.32136 7.20188 8.43233 7.26609 8.51995C7.33075 8.60805 7.42615 8.66568 7.53163 8.68044H7.53117Z" class="stroke"/>
<path d="M18.7521 13.1555C18.5306 13.1555 18.3508 13.3422 18.3508 13.5722C18.3489 14.9557 17.9293 16.3034 17.1506 17.4259C16.3718 18.5484 15.2734 19.3884 14.0104 19.828C14.2259 19.4556 14.3397 19.0289 14.3392 18.5941V16.9516C14.3383 16.3139 14.0943 15.7024 13.6595 15.2509C13.2252 14.7999 12.6364 14.5461 12.0223 14.5456H11.9778C11.3637 14.5466 10.7748 14.7999 10.3405 15.2509C9.90619 15.7019 9.66174 16.3134 9.66082 16.9516V18.5945C9.66082 19.0289 9.7741 19.4556 9.98966 19.828C8.72661 19.3884 7.62822 18.5479 6.84948 17.4259C6.07074 16.3034 5.65064 14.9552 5.64927 13.5722C5.64927 13.3422 5.46949 13.1555 5.24797 13.1555C5.02646 13.1555 4.84668 13.3422 4.84668 13.5722C4.84668 17.6526 8.0318 20.9752 11.9558 20.9995C11.9631 20.9995 11.9704 21 11.9778 21H12.0218C12.0291 21 12.0365 20.9995 12.0438 20.9995C15.9678 20.9747 19.1529 17.6526 19.1529 13.5722C19.1529 13.3422 18.9731 13.1555 18.7516 13.1555H18.7521ZM10.4634 18.5945V16.9516C10.4634 16.5348 10.6235 16.1348 10.9074 15.84C11.1912 15.5452 11.576 15.3795 11.9778 15.379H12.0223C12.4236 15.379 12.8083 15.5452 13.0927 15.84C13.3766 16.1348 13.5362 16.5348 13.5366 16.9516V18.5945C13.5362 19.0074 13.3793 19.4032 13.1 19.6975C12.8207 19.9913 12.4419 20.1599 12.0443 20.1661C12.0296 20.1661 12.0149 20.1666 12.0002 20.1666C11.9856 20.1666 11.9709 20.1661 11.9562 20.1661C11.5586 20.1599 11.1793 19.9913 10.9005 19.6975C10.6212 19.4032 10.4648 19.0074 10.4639 18.5945H10.4634Z" class="stroke"/>
<path d="M9.73364 13.0698C9.99597 13.3422 9.99597 13.7837 9.73364 14.0556C9.47177 14.328 9.04663 14.328 8.7843 14.0556C8.52242 13.7837 8.52242 13.3422 8.7843 13.0698C9.04663 12.7974 9.47177 12.7974 9.73364 13.0698Z" class="stroke"/>
<path d="M15.2154 13.0698C15.4773 13.3422 15.4773 13.7837 15.2154 14.0556C14.9531 14.328 14.528 14.328 14.2661 14.0556C14.0038 13.7837 14.0038 13.3422 14.2661 13.0698C14.528 12.7974 14.9531 12.7974 15.2154 13.0698Z" class="stroke"/>
</g>
<defs>
<clipPath id="clip0_3937_155083">
<rect width="20" height="17" fill="" transform="translate(2 4)"/>
</clipPath>
</defs>
</svg>
