<svg width="24" height="24" viewBox="0 0 24 24" fill="none" xmlns="http://www.w3.org/2000/svg">
<rect x="0.5" y="0.5" width="23" height="23" rx="11.5" fill=""/>
<rect x="0.5" y="0.5" width="23" height="23" rx="11.5" stroke=""/>
<rect width="24" height="24" rx="12" fill=""/>
<g clip-path="url(#clip0_3927_179952)">
<path opacity="0.8" d="M18.9713 11.38C18.6837 10.3288 18.1627 9.35605 17.4467 8.53421C17.4304 8.51568 17.4163 8.49539 17.4039 8.47422C17.3272 8.34188 17.175 8.22233 17.0307 8.11513C17.2019 8.01808 17.3444 7.88265 17.3964 7.69693C17.4207 7.61047 17.422 7.52269 17.4088 7.43534C17.6166 7.6043 17.8777 7.83766 18.1371 8.1266C18.1464 7.99823 18.2125 7.87207 18.3043 7.77854C18.3599 7.72208 18.4243 7.67532 18.4922 7.63518C18.4622 7.58444 18.4433 7.5271 18.4388 7.4671C18.4313 7.36476 18.4649 7.2633 18.5324 7.18566C18.824 6.84731 18.9686 6.40749 18.9347 5.96239C18.9011 5.51728 18.6916 5.10394 18.3524 4.81367C18.0136 4.52296 17.5729 4.37959 17.1282 4.41444C16.6831 4.44929 16.2702 4.66015 15.9813 4.99983L15.6954 5.33333C15.4876 5.57463 15.3818 5.88607 15.399 6.20237C15.2662 6.23457 15.1369 6.28133 15.0342 6.36956C14.9512 6.44058 14.8917 6.54557 14.8789 6.65232C14.8745 6.65056 14.8701 6.64968 14.8656 6.64747C14.0804 6.30736 13.2405 6.11061 12.3856 6.06694V6.38323H11.6136V6.06738C10.7587 6.11105 9.91874 6.3078 9.13352 6.64791C9.11014 6.65806 9.08543 6.66512 9.06117 6.67041C8.94251 6.53454 8.76473 6.41808 8.59489 6.30692C8.59445 6.29059 8.59489 6.27427 8.59621 6.25751C8.6293 5.92269 8.52343 5.58875 8.30374 5.33377L8.01788 5.00027C7.62704 4.54546 7.02356 4.33327 6.43421 4.444C5.84485 4.55428 5.35916 4.97071 5.15932 5.53581C4.95993 6.10135 5.07683 6.72996 5.46635 7.1861C5.5859 7.3255 5.58811 7.52533 5.48312 7.66694C5.53341 7.70973 5.58061 7.75781 5.62516 7.80501C5.7006 7.88574 5.77647 7.9722 5.80338 8.0794C5.81221 8.11381 5.81309 8.15086 5.80824 8.18704C6.01557 7.94971 6.22643 7.74767 6.41303 7.58489C6.40465 7.71811 6.42097 7.85266 6.46685 7.97794C6.51891 8.11998 6.61022 8.24835 6.72712 8.34364C6.68301 8.38599 6.63934 8.42878 6.59655 8.47245C6.58375 8.49451 6.56919 8.5148 6.55243 8.53421C5.83647 9.35605 5.31505 10.3288 5.02787 11.38C4.74024 12.4312 4.69393 13.534 4.89244 14.6056C4.99919 14.6572 5.1205 14.7128 5.25329 14.7741C6.44744 15.322 8.44579 16.2386 9.11499 18.4386C9.24248 18.8586 9.57421 19.1854 9.99638 19.3059C11.3052 19.6808 12.693 19.6808 14.0019 19.3059C14.4241 19.1854 14.7562 18.859 14.8833 18.4386C15.5529 16.2391 17.5513 15.322 18.7454 14.7741C18.8787 14.7128 19 14.6572 19.1063 14.6056C19.3043 13.534 19.2589 12.4312 18.9713 11.38Z" fill="white"/>
<path d="M18.8733 9.1911C18.2632 7.95504 17.0452 7.16055 16.9936 7.12747C16.8145 7.01189 16.5754 7.0635 16.4598 7.24261C16.3442 7.42171 16.3958 7.6608 16.5749 7.77638C16.8731 7.98151 17.1506 8.21531 17.4038 8.47426C17.4162 8.49543 17.4307 8.51572 17.4466 8.53425C18.1626 9.35609 18.684 10.3288 18.9712 11.38C19.2588 12.4312 19.3051 13.5341 19.1071 14.6056C19.0003 14.6572 18.879 14.7128 18.7462 14.7741C17.5521 15.322 15.5537 16.2387 14.8845 18.4386C14.757 18.8586 14.4253 19.1855 14.0031 19.3059C12.6943 19.6809 11.3064 19.6809 9.9976 19.3059C9.57543 19.1855 9.24326 18.859 9.11621 18.4386C8.44656 16.2391 6.44822 15.322 5.2545 14.7741C5.12128 14.7132 4.99997 14.6577 4.89366 14.6056C4.69514 13.5341 4.7419 12.4312 5.02908 11.38C5.3167 10.3288 5.83769 9.35609 6.55365 8.53425C6.57041 8.51528 6.58497 8.49455 6.59776 8.47249C6.85009 8.21399 7.12713 7.98063 7.42489 7.77594C7.60399 7.66036 7.65561 7.42127 7.54003 7.24261C7.42445 7.0635 7.18536 7.01189 7.00626 7.12747C6.9542 7.161 5.73137 7.95857 5.12261 9.19904C4.09652 10.9279 3.75773 12.9787 4.17284 14.9453C4.19666 15.0573 4.26857 15.1531 4.37003 15.2069C4.5284 15.2907 4.715 15.3763 4.93159 15.4755C6.07722 16.0009 7.80824 16.7954 8.37686 18.6632C8.57979 19.3337 9.10959 19.8551 9.78321 20.0475C11.2319 20.4626 12.7679 20.4626 14.2162 20.0475C14.8898 19.8551 15.4196 19.3337 15.6225 18.6632C16.1911 16.7954 17.9222 16.0014 19.0678 15.4755C19.2844 15.3763 19.471 15.2902 19.6294 15.2069C19.7308 15.1535 19.8027 15.0573 19.8265 14.9453C20.2425 12.9756 19.902 10.9217 18.8728 9.1911H18.8733Z" class="stroke"/>
<path d="M5.42524 7.73005C5.58714 7.59153 5.6061 7.34758 5.46715 7.18569C5.07762 6.72955 4.96072 6.10093 5.16012 5.5354C5.35951 4.96986 5.84564 4.55387 6.435 4.44359C7.02436 4.3333 7.62783 4.54505 8.01824 4.99986L8.30409 5.33336C8.52378 5.58834 8.62965 5.92227 8.59656 6.2571C8.58377 6.39297 8.64377 6.52531 8.75405 6.60559C8.86433 6.68588 9.00903 6.70176 9.13431 6.6475C9.91953 6.30739 10.7595 6.11064 11.6144 6.06697V7.0957C10.9725 7.13496 10.343 7.28583 9.75278 7.54168C9.65838 7.58183 9.58383 7.65814 9.54589 7.75343C9.50795 7.84872 9.50927 7.95547 9.54986 8.04943C9.59088 8.14384 9.6672 8.21795 9.76293 8.25544C9.85865 8.29338 9.96497 8.29117 10.0589 8.25015C10.5521 8.03664 11.078 7.90783 11.6139 7.86901V9.23124C11.6139 9.4443 11.7869 9.61723 11.9999 9.61723C12.213 9.61723 12.3859 9.4443 12.3859 9.23124V7.87386C12.9029 7.91709 13.4094 8.04414 13.8853 8.25015C13.9793 8.29117 14.0861 8.29338 14.1813 8.25544C14.2771 8.21795 14.3534 8.14384 14.3944 8.04943C14.4354 7.95503 14.4368 7.84872 14.3988 7.75343C14.3609 7.65814 14.2863 7.58183 14.1915 7.54168C13.6189 7.29377 13.0084 7.14378 12.3855 7.09923V6.06697C13.2404 6.11064 14.0803 6.30739 14.8655 6.6475C14.9908 6.70176 15.1351 6.68588 15.2458 6.60559C15.3561 6.52531 15.4161 6.39297 15.4033 6.2571C15.3702 5.92227 15.4761 5.58834 15.6958 5.33336L15.9816 4.99986C16.271 4.66018 16.6835 4.44932 17.1286 4.41447C17.5737 4.37962 18.0139 4.52299 18.3527 4.8137C18.6915 5.10397 18.9011 5.51731 18.935 5.96242C18.9686 6.40752 18.8239 6.84778 18.5327 7.18569C18.4652 7.26333 18.4317 7.36435 18.4392 7.46713C18.4467 7.56948 18.4952 7.66476 18.5733 7.73181C18.6514 7.79887 18.7528 7.83195 18.8552 7.82357C18.9575 7.81519 19.0528 7.76666 19.119 7.68814C19.6889 7.02291 19.8605 6.10446 19.5698 5.27822C19.2787 4.45197 18.5689 3.84408 17.7078 3.68307C16.8467 3.52205 15.9653 3.83261 15.3954 4.49785L15.1095 4.83135C14.8858 5.09117 14.7323 5.40394 14.6644 5.74009C12.9395 5.13352 11.0594 5.13352 9.33458 5.74009C9.26665 5.40394 9.11358 5.09117 8.88992 4.83135L8.60406 4.49785C8.035 3.83261 7.15361 3.52205 6.29251 3.68307C5.43141 3.84408 4.72163 4.45197 4.43048 5.27822C4.13933 6.10446 4.31093 7.02291 4.88088 7.68814C4.94749 7.76622 5.04233 7.81431 5.14423 7.82225C5.24658 7.83019 5.3476 7.7971 5.42524 7.73049V7.73005Z" class="stroke"/>
<path d="M16.781 10.9512C16.781 10.8488 16.7404 10.7505 16.6681 10.6781C16.5957 10.6058 16.4974 10.5652 16.395 10.5652C15.6645 10.5661 14.964 10.8568 14.4474 11.3733C13.9308 11.8899 13.6401 12.5904 13.6392 13.321V15.5346H10.422V13.321C10.4212 12.5904 10.1305 11.8899 9.61388 11.3733C9.09731 10.8568 8.39679 10.5661 7.66627 10.5652C7.4532 10.5652 7.28027 10.7381 7.28027 10.9512C7.28027 11.1642 7.4532 11.3372 7.66627 11.3372C8.15063 11.3372 8.61824 11.5145 8.98041 11.8365C8.76999 11.8718 8.59045 12.0086 8.50134 12.2022C8.41223 12.3959 8.4237 12.6213 8.53354 12.8044C8.64294 12.9875 8.83616 13.1044 9.04879 13.1172C9.26186 13.1299 9.46743 13.0364 9.598 12.8679C9.63285 13.0161 9.65094 13.1683 9.65094 13.321V15.7472C9.65094 15.7525 9.65182 15.7582 9.65182 15.764C9.64697 15.8178 9.66108 15.8721 9.69064 15.917C9.71181 15.9603 9.74137 15.9995 9.7771 16.0322L11.1283 17.8289C11.3524 18.0888 11.6784 18.2383 12.0216 18.2383C12.3648 18.2383 12.6908 18.0888 12.9149 17.8289L14.2374 16.0701C14.3464 15.9991 14.4121 15.8773 14.4121 15.7472V13.321C14.4121 13.1683 14.4298 13.0166 14.4651 12.8679C14.5956 13.0364 14.8012 13.1295 15.0143 13.1167C15.2269 13.1039 15.4201 12.987 15.5295 12.804C15.6389 12.6209 15.6513 12.3959 15.5617 12.2022C15.4722 12.0086 15.2931 11.8718 15.0826 11.8365C15.4444 11.5145 15.912 11.3372 16.3963 11.3372C16.4987 11.3372 16.5971 11.2966 16.6694 11.2242C16.7418 11.1519 16.7823 11.0535 16.7823 10.9512H16.781ZM12.3163 17.3393C12.2391 17.4204 12.1323 17.4663 12.0207 17.4663C11.9091 17.4663 11.8019 17.4204 11.7252 17.3393L10.9488 16.3066H13.0931L12.3167 17.3393H12.3163Z" class="stroke"/>
</g>
<defs>
<clipPath id="clip0_3927_179952">
<rect width="16" height="16.7177" fill="" transform="translate(4 3.64111)"/>
</clipPath>
</defs>
</svg>
