<svg width="24" height="24" viewBox="0 0 24 24" fill="none" xmlns="http://www.w3.org/2000/svg">
<rect x="0.5" y="0.5" width="23" height="23" rx="11.5" stroke=""/>
<rect width="24" height="24" rx="12" fill=""/>
<path opacity="0.8" d="M19.332 9.76199C19.3022 9.68181 19.2659 9.59681 19.1922 9.55299C19.0836 9.48859 18.946 9.54029 18.8308 9.59155C17.6596 10.1103 16.4218 10.4779 15.1577 10.6847C14.1263 10.8534 13.0489 10.4043 12.0223 10.3228C11.5697 10.2869 11.4234 10.3035 11.3296 9.82947C11.2148 9.24585 11.3406 8.52071 11.4615 7.94761C11.5995 7.29344 11.5215 6.59459 11.4457 5.93035C11.3699 5.26611 11.1346 4.60012 10.6676 4.12166C10.4323 3.88024 10.1457 3.69402 9.84777 3.53673C9.59715 3.40441 9.32944 3.28917 9.04683 3.27471C8.60211 3.25193 8.1714 3.48766 7.87697 3.8224C7.58297 4.15715 7.40946 4.58084 7.28721 5.00936C7.19476 5.33447 7.1137 5.69156 6.85344 5.90713C6.65803 6.06925 6.39645 6.11963 6.15065 6.18273C5.59069 6.326 5.05439 6.56173 4.56979 6.87764C4.48961 6.93022 4.40505 6.99156 4.37744 7.08357C4.30164 7.33375 4.66224 7.46827 4.92338 7.47703C5.96837 7.51121 7.01337 7.54538 8.05792 7.57956C8.29014 7.58701 8.53069 7.59665 8.73793 7.7018C8.94518 7.80652 9.10905 8.03524 9.06217 8.26264C9.03281 8.40416 8.93072 8.51764 8.83564 8.6263C7.67585 9.94777 6.96386 11.6539 6.8311 13.4065C6.72375 13.7286 6.66679 14.0655 6.66679 14.4125C6.66679 16.255 8.23713 17.5988 9.86136 18.1491C10.7521 18.451 11.6503 18.525 12.5328 18.4278C12.765 18.6223 12.7913 18.7467 12.7886 19.1634C12.7856 19.584 12.7886 20.0047 12.7886 20.4249V22.05H13.5335C13.5335 21.3813 13.551 20.7101 13.5335 20.0419C13.5142 19.3106 13.3705 18.5303 14.0865 18.0843C14.7161 17.877 15.3291 17.5953 15.9162 17.261C16.8692 16.7185 17.7319 15.9956 18.3874 15.121C18.6253 14.8038 18.8356 14.466 19.013 14.1102C19.6799 12.773 19.8499 11.1636 19.3311 9.76243L19.332 9.76199Z" fill="white"/>
<path d="M13.0974 18.6688L13.0987 21.8511C13.0992 21.9536 13.0584 22.0522 12.9853 22.1241C12.9125 22.1959 12.8135 22.2358 12.711 22.2345H10.2047C9.99969 22.2371 9.82706 22.0811 9.80909 21.8765C9.80208 21.7705 9.83933 21.6667 9.91162 21.5891C9.98392 21.5115 10.0856 21.4677 10.1916 21.4677H12.3315L12.3307 19.0671C12.3105 19.0671 12.2903 19.068 12.2702 19.068C11.0421 19.068 9.87482 18.7223 8.7939 18.0374C7.38787 17.1467 6.57948 15.9733 6.39107 14.5502C6.20091 13.1135 6.64125 11.4735 7.70027 9.67618C8.03195 9.11535 8.39912 8.57642 8.79915 8.06291H4.99556C4.50658 8.06291 4.07719 7.71107 4.00884 7.22735C3.97948 7.01134 4.02373 6.79139 4.13459 6.60342C4.245 6.41546 4.41588 6.26999 4.61918 6.19068L6.57246 5.43662C6.57378 5.39894 6.57597 5.36126 6.57904 5.32358C6.63643 4.62035 6.98564 3.9732 7.54166 3.53855C7.99909 3.1854 8.56124 2.99612 9.13828 3.00006H9.26666C9.93791 3.00006 10.582 3.2669 11.0565 3.74141C11.5315 4.21637 11.7979 4.86002 11.7979 5.53126V10.2878H16.4515L19.1614 9.09213C19.2605 9.04875 19.3731 9.04875 19.4717 9.09256C19.5702 9.13638 19.646 9.22007 19.6802 9.32259C20.252 11.0511 20.0522 12.9663 19.1176 14.7154C18.0538 16.7068 16.1746 18.2403 14.0903 18.8173C13.9891 18.8454 13.8804 18.8309 13.7906 18.7766C13.7008 18.7223 13.6364 18.6338 13.6136 18.5312C13.5724 18.3284 13.6964 18.1286 13.8966 18.0751C15.778 17.5507 17.4763 16.1604 18.4411 14.3539C19.2022 12.929 19.42 11.3889 19.0694 9.97062L16.6863 11.0217C16.6377 11.0432 16.5847 11.0546 16.5312 11.0546H11.4136C11.202 11.0546 11.0302 10.8833 11.0302 10.6712V5.53126C11.0302 5.06332 10.8444 4.61421 10.5136 4.28341C10.1828 3.9526 9.73373 3.76639 9.26579 3.76639H9.13522C8.23438 3.76639 7.40977 4.49854 7.34142 5.39719C7.31294 5.75823 7.39707 6.11883 7.58197 6.42991C7.68756 6.60255 7.64418 6.82644 7.48251 6.94781C7.39531 7.01047 7.28621 7.03369 7.1815 7.01178C7.07678 6.99031 6.9852 6.9259 6.93044 6.83389C6.8152 6.64242 6.72582 6.43649 6.66491 6.22135L4.90311 6.9018C4.82731 6.92941 4.77385 6.9982 4.7664 7.07882C4.76246 7.1349 4.78218 7.18967 4.82029 7.23086C4.85841 7.27161 4.91187 7.29483 4.96795 7.29527H9.09403L9.60448 7.29833C9.72716 7.29746 9.84327 7.3531 9.91863 7.44993C10.0308 7.59803 10.0212 7.8044 9.89541 7.9411C9.3153 8.60359 8.79872 9.31909 8.35268 10.078C7.68975 11.2066 6.94314 12.8813 7.15126 14.4503C7.309 15.6372 7.99953 16.6257 9.20401 17.389C10.281 18.0712 11.4526 18.3731 12.6869 18.2854C12.7925 18.2762 12.8968 18.3122 12.9747 18.3836C13.0527 18.4554 13.097 18.5562 13.097 18.6622V18.6684L13.0974 18.6688Z" class="stroke"/>
<path d="M8.88181 5.10886C9.09651 5.1978 9.1986 5.44405 9.10965 5.65874C9.02071 5.87343 8.77447 5.97552 8.55977 5.88658C8.34508 5.79763 8.24299 5.55139 8.33193 5.33626C8.42088 5.12157 8.66712 5.01948 8.88181 5.10842" class="stroke"/>
<path d="M11.7887 15.872C11.5771 15.8637 11.3992 16.0288 11.3909 16.2405C11.383 16.4521 11.5478 16.63 11.7594 16.6383C11.8838 16.6431 12.0056 16.6453 12.1239 16.6453C14.1981 16.6453 15.3273 15.9329 15.9157 15.3155C16.6141 14.5834 16.7333 13.814 16.7381 13.7816C16.7543 13.6711 16.7215 13.5594 16.6487 13.4753C16.576 13.3912 16.4704 13.3425 16.3587 13.3425H13.5738C13.3621 13.3425 13.1904 13.5143 13.1904 13.7259C13.1904 13.9375 13.3621 14.1093 13.5738 14.1093H15.8285C15.5091 14.7814 14.5504 15.9776 11.7887 15.8715V15.872Z" class="stroke"/>
</svg>
