<svg width="24" height="24" viewBox="0 0 24 24" fill="none" xmlns="http://www.w3.org/2000/svg">
<rect x="0.5" y="0.5" width="23" height="23" rx="11.5" stroke=""/>
<rect width="24" height="24" rx="12" fill=""/>
<path d="M16.4274 13.0024C16.5016 12.9503 16.5518 12.8718 16.5664 12.7841C16.581 12.6964 16.5593 12.6064 16.5056 12.5344C16.3938 12.3846 16.1778 12.3505 16.0234 12.4589L14.1069 13.7998C14.0413 13.8458 13.9947 13.9121 13.9742 13.9879L12.6401 19.0057C12.267 18.8491 11.846 18.8395 11.4657 18.9793L10.1388 13.9879C10.1186 13.9121 10.0716 13.8454 10.0065 13.7998L8.08993 12.4589C7.93512 12.3505 7.71911 12.3846 7.60734 12.5347C7.49558 12.6849 7.53073 12.8944 7.68554 13.0028L8.75023 13.7481C8.52039 13.8332 8.34584 14.0193 8.27989 14.2491C8.21393 14.4789 8.26409 14.726 8.41534 14.914C8.56659 15.1021 8.80117 15.2097 9.04721 15.2036C9.29324 15.1974 9.5215 15.0787 9.66288 14.8834L10.8595 19.3849C10.8002 19.4485 10.7469 19.517 10.6999 19.5894C10.5984 19.7461 10.647 19.9529 10.8085 20.0517C10.97 20.1502 11.1833 20.1031 11.2852 19.9464C11.442 19.7043 11.7149 19.5557 12.0095 19.5523C12.3041 19.5485 12.5809 19.6902 12.744 19.928C12.8502 20.0805 13.0639 20.1211 13.2219 20.0192C13.3798 19.9169 13.4233 19.7105 13.319 19.5565C13.2933 19.519 13.2653 19.4833 13.2365 19.4485L14.4185 15.0021C14.5823 15.1496 14.8035 15.2216 15.0258 15.1994C15.2482 15.1771 15.4496 15.0634 15.5791 14.8864C15.7086 14.7099 15.7533 14.4873 15.7015 14.2767C15.6498 14.0656 15.5068 13.8868 15.3094 13.7857L16.4274 13.0032V13.0024Z" class="stroke"/>
<path opacity="0.8" d="M19.314 6.1116C18.7303 4.82775 17.9839 4.12301 17.9524 4.0939C17.8777 4.02419 17.7746 3.99049 17.6716 4.00274C17.5685 4.01462 17.4765 4.07092 17.4212 4.15595L14.7986 8.15765C13.0309 7.32269 10.9651 7.32269 9.19747 8.15765L6.57524 4.15556C6.51955 4.07054 6.42754 4.01462 6.32486 4.00236C6.22179 3.99049 6.11871 4.02381 6.04408 4.09352C6.01248 4.12301 5.26333 4.83081 4.67885 6.11965C4.14177 7.30392 3.64733 9.22663 4.34041 11.6637C4.3645 11.7499 4.42255 11.8231 4.50272 11.8675C4.50509 11.869 4.50785 11.8698 4.51022 11.8713C4.53115 11.9062 4.55248 11.9407 4.57381 11.9751L5.1338 12.8809C5.07456 13.0744 5.02282 13.2693 4.98017 13.4658C4.86999 13.9683 4.81352 14.4793 4.81352 14.9894C4.81352 15.1901 4.823 15.3966 4.84156 15.603C4.84946 15.6934 4.89527 15.7769 4.96793 15.834C5.0406 15.891 5.1338 15.9175 5.2266 15.9064C5.242 15.9044 5.26293 15.9018 5.289 15.8979C6.5705 15.7168 8.83455 15.9887 9.60345 19.8429C9.7938 20.7974 10.4821 21.5826 11.3995 21.8924C11.785 22.0353 12.2111 22.0353 12.5969 21.8924C13.5143 21.5826 14.2026 20.7974 14.393 19.8429C15.1623 15.9887 17.4263 15.7171 18.7074 15.8979C18.7335 15.9018 18.7544 15.9044 18.7698 15.9064C18.8626 15.9175 18.9562 15.891 19.0289 15.834C19.1016 15.7769 19.147 15.6934 19.1553 15.603C19.1738 15.3966 19.1833 15.1901 19.1833 14.989C19.1833 14.3812 19.1008 13.7799 18.9448 13.192C18.8271 12.7488 19.2966 12.2287 19.4676 11.8154C19.5656 11.5783 19.705 11.3485 19.7911 11.1107C20.011 10.5021 20.0107 9.72838 19.9941 9.09028C19.9795 8.51921 19.9024 7.94967 19.7626 7.39469C19.7026 7.15684 19.6315 6.92206 19.5486 6.69072C19.5174 6.60301 19.2812 6.18246 19.314 6.11122V6.1116Z" fill="white"/>
<path d="M16.5052 12.5347C16.3934 12.3846 16.1774 12.3509 16.023 12.4589L14.1065 13.7998C14.0409 13.8458 13.9943 13.912 13.9738 13.9879L12.6398 19.0057C12.2666 18.8491 11.8456 18.8395 11.4653 18.9793L10.1384 13.9879C10.1182 13.912 10.0712 13.8454 10.0061 13.7998L8.08954 12.4589C7.93473 12.3505 7.71871 12.3846 7.60734 12.5347C7.49558 12.6849 7.53073 12.8944 7.68554 13.0024L8.75023 13.7477C8.52039 13.8328 8.34584 14.0189 8.27989 14.2487C8.21393 14.4785 8.26409 14.7256 8.41534 14.9136C8.56659 15.1017 8.80117 15.2093 9.04721 15.2032C9.29324 15.197 9.5215 15.0783 9.66288 14.883L10.8595 19.3845C10.8002 19.4481 10.7469 19.5166 10.6999 19.589C10.5984 19.7457 10.647 19.9525 10.8085 20.0513C10.97 20.1498 11.1833 20.1026 11.2852 19.946C11.442 19.7039 11.7149 19.5553 12.0095 19.5519C12.3041 19.548 12.5805 19.6898 12.744 19.9276C12.8502 20.08 13.0639 20.1206 13.2219 20.0188C13.3798 19.9165 13.4233 19.7101 13.319 19.5561C13.2933 19.5186 13.2653 19.4829 13.2365 19.4481L14.4185 15.0017C14.5823 15.1492 14.8035 15.2212 15.0258 15.199C15.2482 15.1767 15.4496 15.063 15.5791 14.886C15.7086 14.7095 15.7533 14.4869 15.7015 14.2763C15.6498 14.0652 15.5068 13.8864 15.3094 13.7853L16.4274 13.0028C16.5016 12.9507 16.5518 12.8722 16.5664 12.7844C16.581 12.6967 16.5593 12.6067 16.5056 12.5347H16.5052Z" class="stroke"/>
<path d="M17.0673 10.3033C16.9149 10.4147 16.8849 10.625 16.9998 10.7728C17.9618 12.0077 18.4918 13.5052 18.4918 14.9894C18.4918 15.0591 18.4906 15.1292 18.4882 15.2001C17.7343 15.1418 17.0341 15.264 16.4023 15.5639C15.039 16.2116 14.1343 17.6084 13.7141 19.7158C13.5703 20.4366 13.055 21.0283 12.3694 21.2597C12.1313 21.3528 11.8651 21.3528 11.627 21.2597C10.9414 21.028 10.426 20.4366 10.2823 19.7158C9.86168 17.6084 8.95732 16.212 7.59408 15.5639C6.96221 15.2636 6.26203 15.1418 5.50813 15.2001C5.50576 15.1292 5.50458 15.0587 5.50458 14.9894C5.50458 13.4823 6.04838 11.9671 7.03606 10.7223C7.15256 10.576 7.12413 10.3653 6.97287 10.2523C6.82162 10.1393 6.60481 10.1669 6.48831 10.3136C5.40822 11.6748 4.81348 13.3352 4.81348 14.9894C4.81348 15.1901 4.82295 15.3965 4.84152 15.603C4.84941 15.6934 4.89522 15.7769 4.96789 15.8339C5.04055 15.891 5.13375 15.9174 5.22656 15.9063C5.24196 15.9044 5.26289 15.9017 5.28895 15.8979C6.57046 15.7167 8.83451 15.9887 9.60341 19.8429C9.79376 20.7974 10.4821 21.5826 11.3995 21.8924C11.7849 22.0353 12.211 22.0353 12.5969 21.8924C13.5143 21.5826 14.2026 20.7974 14.3929 19.8429C15.1622 15.9887 17.4263 15.7171 18.7074 15.8979C18.7335 15.9017 18.7544 15.9044 18.7698 15.9063C18.8626 15.9174 18.9562 15.891 19.0289 15.8339C19.1015 15.7769 19.1469 15.6934 19.1552 15.603C19.1738 15.3965 19.1833 15.1901 19.1833 14.989C19.1833 13.3597 18.6039 11.7185 17.5515 10.3684C17.4366 10.2205 17.2197 10.1914 17.0673 10.3029V10.3033Z" class="stroke"/>
<path d="M19.314 6.1116C18.7303 4.82775 17.9839 4.12301 17.9528 4.0939C17.8781 4.02419 17.775 3.99049 17.672 4.00274C17.5689 4.01462 17.4769 4.07092 17.4216 4.15595L14.799 8.15765C13.0313 7.32269 10.9655 7.32269 9.19787 8.15765L6.57524 4.15556C6.51955 4.07054 6.42754 4.01462 6.32486 4.00236C6.22179 3.99049 6.11871 4.02381 6.04408 4.09352C6.01248 4.12301 5.26333 4.83081 4.67885 6.11965C4.14177 7.30392 3.64733 9.22663 4.34041 11.6637C4.3645 11.7499 4.42255 11.8235 4.50272 11.8679C4.58249 11.9123 4.67767 11.9238 4.76613 11.9001C4.85498 11.8763 4.93002 11.8192 4.97543 11.7415C5.02045 11.6637 5.03191 11.5718 5.00703 11.4856C4.49719 9.69276 4.59553 7.98798 5.29966 6.41763C5.54293 5.87146 5.85886 5.3586 6.23916 4.89171L8.74806 8.71991C8.85627 8.87733 9.05965 8.94474 9.24447 8.88537C10.9624 7.97266 13.0416 7.97342 14.7583 8.88805C14.9261 8.97576 15.1354 8.91448 15.2259 8.75208C15.2342 8.74174 15.2424 8.7314 15.2499 8.72029L17.7585 4.89248C18.4247 5.70293 19.9593 8.03853 18.9989 11.4581C18.9748 11.5439 18.987 11.6354 19.0321 11.7124C19.0775 11.7894 19.1529 11.846 19.2414 11.8694C19.4254 11.9181 19.6153 11.8127 19.6655 11.6342C20.3475 9.20672 19.8511 7.29166 19.3148 6.11237L19.314 6.1116Z" class="stroke"/>
</svg>
