<svg width="24" height="24" viewBox="0 0 24 24" fill="none" xmlns="http://www.w3.org/2000/svg">
<rect x="0.5" y="0.5" width="23" height="23" rx="11.5" stroke=""/>
<rect width="24" height="24" rx="12" fill=""/>
<g opacity="0.8" clip-path="url(#clip0_3927_179909)">
<path d="M20.9112 7.85454C20.8295 7.52969 20.6136 7.26548 20.2918 7.09372C19.0675 6.43511 16.326 7.13995 15.495 7.38126C15.2791 7.21883 15.0583 7.0704 14.8374 6.9313V5.47031C15.0824 5.33121 15.2457 5.08058 15.2457 4.78838C15.2457 4.35242 14.8809 4 14.4296 4C13.9784 4 13.6136 4.35242 13.6136 4.78838C13.6136 5.08058 13.7769 5.33121 14.0218 5.47031V6.47668C13.5082 6.21713 13.0951 6.05004 12.9705 6.00339L12.8985 5.9754H11.1026L11.0306 6.00339C10.9059 6.04962 10.4832 6.22137 9.95509 6.49025V5.47455C10.2 5.33545 10.3633 5.08482 10.3633 4.79262C10.3629 4.35708 9.99768 4.00466 9.5464 4.00466C9.09513 4.00466 8.73034 4.35708 8.73034 4.79305C8.73034 5.08524 8.89364 5.33588 9.13859 5.47498V6.95462C8.92261 7.08906 8.71146 7.23282 8.5047 7.38592C7.67415 7.14461 4.93227 6.43978 3.70795 7.09839C3.38618 7.27481 3.1702 7.53435 3.08855 7.8592C2.72858 9.2693 3.53982 10.8694 4.19785 11.5098C4.52445 11.8253 4.8076 11.9135 5.02358 11.9135C5.08591 11.9135 5.14825 11.9042 5.19654 11.8948C5.65747 11.7837 6.56484 11.4775 7.14605 11.2778C7.26589 12.8223 7.67898 14.7706 9.03279 16.8393C8.85018 17.7019 8.72551 18.4907 8.72551 18.8244C8.72551 20.0445 10.161 21 11.9999 21C13.8388 21 15.2742 20.0445 15.2742 18.8244C15.2742 18.6064 15.1684 17.827 14.9669 16.8439C16.3256 14.7752 16.7338 12.827 16.8585 11.2778C17.4393 11.4771 18.3471 11.7833 18.808 11.8948C18.8607 11.9088 18.9187 11.9135 18.981 11.9135C19.1921 11.9135 19.4806 11.8253 19.8067 11.5098C20.4599 10.8651 21.2712 9.26463 20.9112 7.85454ZM8.72068 13.0823C8.49548 13.0823 8.31243 12.7294 8.31243 12.2939C8.31243 11.8584 8.49504 11.5055 8.72068 11.5055C8.94632 11.5055 9.12893 11.8584 9.12893 12.2939C9.12893 12.7294 8.94632 13.0823 8.72068 13.0823ZM11.9955 20.1976C10.6654 20.1976 9.54201 19.5619 9.54201 18.8151C9.54201 18.5598 9.65264 17.8041 9.86379 16.8393C10.5648 13.6293 11.4867 11.8995 11.9955 11.8995C13.0135 11.8995 14.4489 17.4101 14.4489 18.8155C14.4489 19.567 13.3256 20.1976 11.9955 20.1976ZM15.2698 13.0823C15.0446 13.0823 14.8616 12.7294 14.8616 12.2939C14.8616 11.8584 15.0442 11.5055 15.2698 11.5055C15.4955 11.5055 15.6781 11.8584 15.6781 12.2939C15.6781 12.7294 15.4955 13.0823 15.2698 13.0823Z" fill="white"/>
<path d="M10.3584 19.0148C10.5839 19.0148 10.7667 18.749 10.7667 18.4211C10.7667 18.0932 10.5839 17.8274 10.3584 17.8274C10.133 17.8274 9.9502 18.0932 9.9502 18.4211C9.9502 18.749 10.133 19.0148 10.3584 19.0148Z" fill="white"/>
<path d="M13.6329 19.0148C13.8583 19.0148 14.0411 18.749 14.0411 18.4211C14.0411 18.0932 13.8583 17.8274 13.6329 17.8274C13.4074 17.8274 13.2246 18.0932 13.2246 18.4211C13.2246 18.749 13.4074 19.0148 13.6329 19.0148Z" fill="white"/>
</g>
<path d="M9.1504 12.2939C9.1504 12.7294 8.96715 13.0823 8.74073 13.0823C8.51431 13.0823 8.33105 12.7294 8.33105 12.2939C8.33105 11.8583 8.51431 11.5055 8.74073 11.5055C8.96715 11.5055 9.1504 11.8583 9.1504 12.2939Z" class="stroke"/>
<path d="M15.7227 12.2939C15.7227 12.7294 15.5394 13.0823 15.313 13.0823C15.0866 13.0823 14.9033 12.7294 14.9033 12.2939C14.9033 11.8583 15.0866 11.5055 15.313 11.5055C15.5394 11.5055 15.7227 11.8583 15.7227 12.2939Z" class="stroke"/>
<path d="M20.9738 7.85454C20.8919 7.52969 20.6752 7.26548 20.3523 7.09372C19.1237 6.43511 16.3727 7.13995 15.5389 7.38126C15.3221 7.21883 15.1006 7.0704 14.879 6.9313V5.47031C15.1248 5.33121 15.2887 5.08058 15.2887 4.78838C15.2887 4.35242 14.9226 4 14.4698 4C14.0169 4 13.6509 4.35242 13.6509 4.78838C13.6509 5.08058 13.8147 5.33121 14.0605 5.47031V6.47668C13.5451 6.21713 13.1306 6.05004 13.0055 6.00339L12.9333 5.9754H11.1312L11.0589 6.00339C10.9338 6.04962 10.5096 6.22137 9.97968 6.49025V5.47455C10.2255 5.33545 10.3894 5.08482 10.3894 4.79262C10.3885 4.35708 10.022 4.00466 9.56913 4.00466C9.11629 4.00466 8.75023 4.35708 8.75023 4.79305C8.75023 5.08524 8.9141 5.33588 9.1599 5.47498V6.95462C8.94317 7.08906 8.73129 7.23282 8.52381 7.38592C7.69038 7.14461 4.93898 6.43978 3.71041 7.09839C3.38752 7.27481 3.17079 7.53435 3.08885 7.8592C2.72764 9.2693 3.54169 10.8694 4.20201 11.5098C4.52975 11.8253 4.81387 11.9135 5.0306 11.9135C5.09315 11.9135 5.15571 11.9042 5.20416 11.8948C5.66669 11.7837 6.57722 11.4775 7.16045 11.2778C7.28071 12.8223 7.69522 14.7706 9.05374 16.8393C8.87049 17.7019 8.74539 18.4907 8.74539 18.8244C8.74539 20.0445 10.1858 21 12.0311 21C13.8764 21 15.3169 20.0445 15.3169 18.8244C15.3169 18.6064 15.2107 17.827 15.0085 16.8439C16.3719 14.7752 16.7815 12.827 16.9066 11.2778C17.4894 11.4771 18.4004 11.7833 18.8629 11.8948C18.9158 11.9088 18.9739 11.9135 19.0365 11.9135C19.2484 11.9135 19.5378 11.8253 19.8651 11.5098C20.5205 10.8651 21.3346 9.26463 20.9734 7.85454H20.9738ZM5.0262 11.12C4.98303 11.1154 4.7707 11.0089 4.49142 10.6052C4.04343 9.96523 3.66283 8.88889 3.87956 8.04029C3.89894 7.96607 3.94211 7.86853 4.10598 7.78075C4.7804 7.419 6.51995 7.68321 7.81108 8.00806C7.39171 8.46268 7.0979 8.97286 7.0979 9.52969C7.0979 9.80322 7.0979 10.1141 7.10759 10.4483C6.58735 10.6293 5.49357 11.0047 5.0262 11.1209V11.12ZM12.0267 20.1976C10.692 20.1976 9.56473 19.5623 9.56473 18.8155C9.56473 18.5602 9.67574 17.8045 9.88762 16.8397C10.5911 13.6298 11.5162 11.8999 12.0267 11.8999C13.0482 11.8999 14.4887 17.4105 14.4887 18.8159C14.4887 19.5674 13.3614 20.1981 12.0267 20.1981V20.1976ZM14.7394 15.698C14.1949 13.5505 13.2747 11.106 12.0267 11.106C10.7788 11.106 9.88762 13.4207 9.31408 15.698C7.92649 13.212 7.92164 10.9389 7.92164 9.52417C7.92164 8.35072 10.3356 7.13528 11.2845 6.75954H12.7685C13.7178 7.13528 16.1313 8.35072 16.1313 9.52417C16.1313 10.9436 16.1265 13.2116 14.7389 15.698H14.7394ZM19.562 10.6052C19.2779 11.0089 19.0656 11.1107 19.0515 11.12C18.5647 11.0042 17.4665 10.6285 16.941 10.4474C16.9507 10.1132 16.9507 9.8028 16.9507 9.52884C16.9507 8.97243 16.6569 8.46183 16.2375 8.00721C17.5286 7.68236 19.2682 7.41349 19.9475 7.7799C20.1113 7.86811 20.1545 7.96565 20.1739 8.03944C20.3906 8.89271 20.01 9.96438 19.562 10.6043V10.6052Z" class="stroke"/>
<path d="M10.793 18.4211C10.793 18.7489 10.6097 19.0148 10.3833 19.0148C10.1569 19.0148 9.97363 18.7489 9.97363 18.4211C9.97363 18.0933 10.1569 17.8274 10.3833 17.8274C10.6097 17.8274 10.793 18.0933 10.793 18.4211Z" class="stroke"/>
<path d="M14.0791 18.4211C14.0791 18.7489 13.8959 19.0148 13.6694 19.0148C13.443 19.0148 13.2598 18.7489 13.2598 18.4211C13.2598 18.0933 13.443 17.8274 13.6694 17.8274C13.8959 17.8274 14.0791 18.0933 14.0791 18.4211Z" class="stroke"/>
<defs>
<clipPath id="clip0_3927_179909">
<rect width="18" height="17" fill="" transform="translate(3 4)"/>
</clipPath>
</defs>
</svg>
