<svg width="24" height="24" viewBox="0 0 24 24" fill="none" xmlns="http://www.w3.org/2000/svg">
<rect x="0.5" y="0.5" width="23" height="23" rx="11.5" />
<rect width="24" height="24" rx="12" fill=""/>
<g clip-path="url(#clip0_3937_155222)">
<g opacity="0.8">
<path d="M13.5496 4.63062C13.6026 4.74845 13.6786 4.85439 13.7731 4.94232C13.8736 5.03241 14.0048 5.08142 14.1399 5.07889C14.2235 5.07889 14.3035 5.11205 14.3626 5.17114C14.422 5.23024 14.4552 5.3106 14.4552 5.3942V10.0377C14.4552 10.3858 14.2927 10.7144 14.0152 10.9252C13.7385 11.1364 13.3785 11.2056 13.043 11.113C12.7071 11.0204 12.4336 10.7764 12.3043 10.4532L10.194 6.14878C10.1901 6.14049 10.1865 6.13184 10.1829 6.12355C10.0308 5.72897 9.72017 5.41654 9.3263 5.26195C8.9328 5.10772 8.49209 5.12574 8.11264 5.31168C7.73283 5.49762 7.44851 5.83455 7.32923 6.23995H7.32887L6.99555 7.37145C6.77753 8.1127 5.87593 8.57179 5.16568 8.57179C4.98298 8.57143 4.80316 8.62007 4.64533 8.71233C4.56641 8.75845 4.49434 8.81466 4.43092 8.87917C4.36714 8.94367 4.31236 9.01646 4.26732 9.0961L3.96354 9.86257C3.49833 11.0352 3.52211 12.3501 4.02804 13.4704C4.20029 13.8517 4.3956 14.1407 4.59272 14.3054C4.66407 14.3652 4.70551 14.4538 4.70551 14.5471V19.6058L4.51524 19.8468L4.3902 19.9211L6.67555 19.9971L6.60997 19.4991L6.30439 19.516C6.23989 19.2818 6.0489 19.0858 5.83665 19.0479C5.74296 19.071 5.64386 19.049 5.56819 18.9892C5.49216 18.9294 5.44819 18.8382 5.44855 18.7416V15.0891C5.44855 14.9151 5.58981 14.7738 5.76386 14.7738C5.85827 14.7738 5.94296 14.8156 6.00061 14.8816L6.23232 14.4999C5.90548 14.2636 5.62368 13.9695 5.39054 13.6189C5.34369 13.5493 5.32675 13.4639 5.34333 13.3818C5.35955 13.2996 5.40819 13.2272 5.4781 13.1811C5.54765 13.1346 5.63305 13.1176 5.71521 13.1346C5.79737 13.1511 5.86944 13.2002 5.91557 13.2701C6.31664 13.8729 6.89501 14.2736 7.63589 14.461C8.2366 14.6131 8.94289 14.6286 9.7353 14.5064C10.3782 14.4073 11.0322 14.5944 11.5255 15.0178C12.0189 15.4408 12.3025 16.0585 12.3021 16.7082V19.2872L12.2084 19.2829L11.9547 19.9405L14.2502 20L14.1903 19.3769L13.8469 19.3607C13.7431 19.1755 13.5601 19.0415 13.3702 19.0415C13.2866 19.0415 13.2062 19.0083 13.1471 18.9488C13.088 18.8898 13.0549 18.8098 13.0549 18.7262V16.7493C13.0549 14.9252 14.0148 13.8589 15.0523 12.9785C15.6361 12.4845 15.9723 11.7584 15.9719 10.9937V7.12173H15.8152C15.6411 7.12173 15.4999 6.98047 15.4999 6.80642C15.4999 6.63237 15.6411 6.49111 15.8152 6.49111H16.2876C16.6278 6.49111 16.7124 6.40463 16.9939 6.11707C17.031 6.07923 17.0699 6.03923 17.1121 5.99707C17.1672 5.94194 17.2162 5.89041 17.2638 5.84068C17.542 5.54879 17.7614 5.31817 18.3459 5.31817H18.6223C18.876 5.31817 19.0814 5.11241 19.0818 4.85908V4.63062H13.5496Z" fill="white"/>
</g>
<path d="M15.9535 4.94594C16.1387 4.97621 16.2645 5.15062 16.2342 5.33548C16.2043 5.5207 16.0299 5.6461 15.8447 5.61619C15.6595 5.58592 15.5341 5.41151 15.564 5.22665C15.5939 5.04143 15.7683 4.91603 15.9535 4.94594Z" class="stroke"/>
<path d="M19.3966 4H13.116C13.0234 4 12.9358 4.04072 12.876 4.11099C12.8162 4.18126 12.7903 4.27459 12.805 4.36576C12.8158 4.4335 12.925 5.03817 13.3574 5.41654C13.4915 5.53546 13.6511 5.62195 13.8241 5.66879V10.0373C13.8241 10.2708 13.6576 10.4716 13.4277 10.5141C13.1982 10.557 12.9704 10.4298 12.8865 10.2118C12.8832 10.2031 12.8793 10.1948 12.8757 10.1865L10.7658 5.88248C10.5467 5.3261 10.1049 4.88683 9.54709 4.67098C8.98926 4.45512 8.36693 4.48287 7.83037 4.74701C7.2938 5.01115 6.89273 5.48789 6.72373 6.06121L6.3904 7.19272C6.26428 7.62082 5.63943 7.94045 5.1652 7.94045C4.86575 7.94045 4.57206 8.02081 4.31477 8.17432C4.05748 8.32747 3.84631 8.54728 3.70397 8.8107C3.69785 8.82151 3.6928 8.83304 3.68812 8.84494L3.37677 9.63014C2.84886 10.9609 2.87697 12.4553 3.45317 13.7302C3.63731 14.1381 3.84631 14.4585 4.07478 14.6859V19.6058C4.07478 19.7798 4.21603 19.9211 4.39008 19.9211C4.56414 19.9211 4.70539 19.7798 4.70539 19.6058V14.5471C4.70539 14.4538 4.66395 14.3652 4.59224 14.3054C4.39513 14.1407 4.20018 13.852 4.02793 13.4708C3.52164 12.3504 3.49821 11.0355 3.96307 9.86293L4.2672 9.09646C4.35693 8.93719 4.48738 8.80494 4.64521 8.71269C4.80305 8.62044 4.98286 8.57179 5.16556 8.57215C5.87582 8.57215 6.77742 8.11342 6.99579 7.37182L7.32912 6.24031C7.44839 5.83491 7.73271 5.49798 8.11252 5.31204C8.49233 5.1261 8.93268 5.10808 9.32619 5.26231C9.72005 5.41654 10.0307 5.72897 10.1827 6.12356C10.186 6.1322 10.19 6.14049 10.1939 6.14878L12.3038 10.4532C12.4335 10.7764 12.7067 11.0204 13.0425 11.113C13.3784 11.2056 13.738 11.1361 14.0151 10.9252C14.2922 10.7141 14.4547 10.3858 14.4547 10.0377V5.3942C14.4547 5.3106 14.4216 5.23024 14.3625 5.17114C14.3034 5.11205 14.223 5.07889 14.1394 5.07889C14.0043 5.08142 13.8731 5.03241 13.7726 4.94232C13.6782 4.8544 13.6021 4.74845 13.5492 4.63062H19.0813V4.85908C19.0813 5.11277 18.8755 5.31817 18.6218 5.31853H18.3451C17.7606 5.31853 17.5411 5.54915 17.2629 5.84104C17.2154 5.89077 17.1664 5.9423 17.1112 5.99743C17.0691 6.03959 17.0302 6.07959 16.9927 6.11743C16.7116 6.40499 16.6266 6.49148 16.2864 6.49148H15.8143C15.6403 6.49148 15.499 6.63237 15.499 6.80678C15.499 6.98119 15.6403 7.12209 15.8143 7.12209H15.9711V10.9941C15.9714 11.7587 15.6352 12.4849 15.0515 12.9789C14.014 13.8592 13.054 14.9252 13.054 16.7496V18.7262C13.054 18.8098 13.0872 18.8901 13.1463 18.9492C13.2054 19.0083 13.2857 19.0415 13.3693 19.0415C13.6594 19.0415 13.934 19.3542 13.934 19.6851C13.934 19.8591 14.0753 20.0004 14.2493 20.0004C14.4234 20.0004 14.5646 19.8591 14.5646 19.6851C14.5646 19.1215 14.1798 18.6162 13.6846 18.4606V16.7489C13.6846 15.6787 13.9863 14.7097 15.4594 13.46C16.1844 12.8459 16.6021 11.944 16.6013 10.9941V7.0947C16.9884 7.02227 17.1948 6.81183 17.4431 6.55814C17.4788 6.52174 17.5163 6.48319 17.5566 6.44283C17.6172 6.38229 17.6712 6.32571 17.7188 6.27562C17.9642 6.01797 18.0301 5.94878 18.3444 5.94878H18.6211C18.9101 5.94842 19.1872 5.83347 19.3915 5.62915C19.5959 5.42483 19.7108 5.14772 19.7112 4.85872V4.31531C19.7112 4.23171 19.678 4.15135 19.6189 4.09225C19.5598 4.03315 19.4802 4 19.3962 4H19.3966Z" class="stroke"/>
<path d="M6.07886 18.4602V15.0895C6.07886 14.9154 5.9376 14.7742 5.76355 14.7742C5.5895 14.7742 5.44824 14.9154 5.44824 15.0895V18.742C5.44824 18.8386 5.49184 18.9298 5.56788 18.9899C5.64355 19.0497 5.74265 19.0714 5.8367 19.0487C6.09832 19.0952 6.32858 19.382 6.32858 19.6851C6.32858 19.8591 6.46984 20.0004 6.64389 20.0004C6.81794 20.0004 6.9592 19.8591 6.9592 19.6851C6.9592 19.1218 6.57434 18.6162 6.07922 18.4606L6.07886 18.4602Z" class="stroke"/>
<path d="M11.5245 15.0185C11.0308 14.5947 10.3771 14.4077 9.73427 14.5072C8.94186 14.629 8.23557 14.6138 7.63486 14.4618C6.89398 14.2744 6.31525 13.8737 5.91454 13.2708C5.86841 13.2009 5.79634 13.1522 5.71418 13.1353C5.63202 13.1187 5.54662 13.1353 5.47671 13.1818C5.4068 13.2283 5.35852 13.3003 5.34194 13.3825C5.32572 13.4647 5.34266 13.5501 5.38915 13.6196C6.09111 14.6758 7.23415 15.2189 8.72997 15.2189C9.09825 15.2174 9.46617 15.1875 9.82977 15.1302C10.2903 15.0592 10.7591 15.1929 11.113 15.4963C11.4668 15.7997 11.6704 16.2426 11.6704 16.7085V19.6061C11.6704 19.7802 11.8117 19.9214 11.9858 19.9214C12.1598 19.9214 12.3011 19.7802 12.3011 19.6061V16.7089C12.3011 16.0592 12.0175 15.4416 11.5245 15.0189V15.0185Z" class="stroke"/>
</g>
<defs>
<clipPath id="clip0_3937_155222">
<rect width="16.7117" height="16" fill="" transform="translate(3 4)"/>
</clipPath>
</defs>
</svg>
