<svg width="24" height="24" viewBox="0 0 24 24" fill="none" xmlns="http://www.w3.org/2000/svg">
<rect x="0.5" y="0.5" width="23" height="23" rx="11.5" stroke=""/>
<rect width="24" height="24" rx="12" fill=""/>
<g clip-path="url(#clip0_3927_179998)">
<path opacity="0.8" d="M22.3721 14.4312L17.5316 9.94877C16.7204 8.61232 14.8649 7.67773 12.7053 7.67773C11.2981 7.67773 9.81795 8.07297 8.72244 8.98677C7.82146 9.73833 7.63445 10.5173 7.51685 11.4453C7.33338 12.0129 7.23966 12.6027 7.24099 13.1973C7.24099 13.2508 7.25469 13.3012 7.27856 13.3467C7.24673 13.6646 7.23082 13.9833 7.24894 14.3021C7.25779 14.4568 7.27724 14.6164 7.32631 14.7627H4.69055C4.44519 14.7627 4.20999 14.673 4.03669 14.5138C3.86339 14.3542 3.76569 14.1385 3.76525 13.9135V13.9015C3.76525 13.6765 3.86295 13.4603 4.03669 13.3012C4.20999 13.142 4.44519 13.0523 4.69055 13.0523C5.13441 13.0518 5.56059 12.8896 5.87447 12.6013C6.18836 12.3131 6.3652 11.9223 6.36564 11.5147V11.4979C6.3652 11.0903 6.18836 10.699 5.87447 10.4108C5.56059 10.1225 5.13485 9.96026 4.69055 9.95982H2.78115C2.57425 9.95982 2.40625 10.1141 2.40625 10.3042C2.40625 10.4943 2.57425 10.6486 2.78115 10.6486H4.69055C4.93591 10.6486 5.1711 10.7383 5.3444 10.8979C5.51771 11.0571 5.61541 11.2733 5.61585 11.4983V11.5151C5.61585 11.7401 5.51815 11.9563 5.3444 12.1155C5.17066 12.2746 4.93591 12.3644 4.69055 12.3648C4.24669 12.3653 3.82095 12.5275 3.50706 12.8157C3.19318 13.104 3.01634 13.4948 3.0159 13.9024V13.9143C3.01634 14.322 3.19318 14.7132 3.50706 15.0015C3.82095 15.2897 4.24669 15.452 4.69055 15.4524H21.9092C22.0816 15.4524 22.2474 15.3896 22.3694 15.2778C22.4914 15.1659 22.5604 15.0143 22.5609 14.8556C22.5613 14.6973 22.4932 14.5448 22.3721 14.4325V14.4312Z" fill="white"/>
<path d="M22.6011 14.5258C22.7267 14.6522 22.7965 14.8233 22.7961 15.001C22.7956 15.1792 22.7245 15.3494 22.5985 15.4754C22.4725 15.601 22.3018 15.6717 22.1237 15.6717H4.35724C3.89923 15.6712 3.45979 15.4891 3.13618 15.165C2.81257 14.841 2.62998 14.4016 2.62954 13.9435V13.9303C2.62998 13.4723 2.81257 13.0328 3.13618 12.7092C3.46024 12.3852 3.89923 12.203 4.35724 12.2026C4.61012 12.2026 4.85283 12.1013 5.03188 11.9227C5.21093 11.7441 5.31128 11.501 5.31172 11.2481V11.2291C5.31172 10.9762 5.21048 10.7335 5.03188 10.5545C4.85283 10.3754 4.61012 10.275 4.35724 10.2746H2.38683C2.1733 10.2746 2 10.1013 2 9.88777C2 9.67424 2.1733 9.50094 2.38683 9.50094H4.35724C4.81525 9.50138 5.25469 9.68353 5.57875 10.0076C5.9028 10.3316 6.08495 10.7711 6.08539 11.2291V11.2481C6.08495 11.7061 5.9028 12.1455 5.57875 12.4692C5.25469 12.7932 4.81525 12.9754 4.35724 12.9758C4.10437 12.9758 3.86166 13.0766 3.68261 13.2556C3.50356 13.4347 3.40321 13.6774 3.40276 13.9303V13.9435C3.40276 14.1969 3.504 14.4391 3.68261 14.6182C3.86166 14.7972 4.10437 14.8976 4.35724 14.898H21.881L16.4083 9.37804C16.4083 9.37804 16.4047 9.3776 16.403 9.37716C16.017 9.29846 15.6156 9.34709 15.2597 9.51509C14.7646 9.75073 14.4029 10.1981 14.2769 10.7317C14.1505 11.2653 14.273 11.8272 14.6098 12.2596C14.9467 12.6924 15.4618 12.9484 16.0095 12.9568C16.2217 12.9599 16.3919 13.1336 16.3906 13.3463C16.3893 13.5585 16.2168 13.73 16.0046 13.7305H15.9993C15.1545 13.719 14.3689 13.2945 13.8959 12.5947C13.4228 11.8949 13.322 11.008 13.6257 10.2198C13.9299 9.43153 14.6006 8.84222 15.4211 8.64151C15.4582 8.63223 15.4954 8.62471 15.5325 8.6172C14.3959 7.84972 12.99 7.5911 11.6549 7.9041C10.1031 8.25778 8.86041 9.29449 8.24546 10.7481C7.92538 11.5045 7.76136 12.3175 7.76269 13.1389C7.76269 13.3525 7.58939 13.5258 7.37586 13.5258C7.16233 13.5258 6.98903 13.3525 6.98903 13.1389C6.98726 12.2141 7.17205 11.2985 7.5328 10.4466C8.24546 8.76132 9.68491 7.55971 11.482 7.14989C13.2867 6.72725 15.1837 7.20913 16.5679 8.44169L22.6011 14.5258Z" class="stroke"/>
<path d="M19.0013 13.3436C19.0013 13.1751 18.9001 13.023 18.744 12.9585C18.5884 12.8939 18.4094 12.9298 18.29 13.0487C18.1706 13.168 18.1353 13.3471 18.1998 13.5027C18.2643 13.6583 18.416 13.76 18.5849 13.76C18.6954 13.76 18.801 13.7162 18.8793 13.638C18.9575 13.5597 19.0013 13.4541 19.0013 13.3436Z" class="stroke"/>
</g>
<defs>
<clipPath id="clip0_3927_179998">
<rect width="20.7961" height="8.67211" fill="" transform="translate(2 7)"/>
</clipPath>
</defs>
</svg>
