<svg width="24" height="24" viewBox="0 0 24 24" fill="none" xmlns="http://www.w3.org/2000/svg">
<rect x="0.5" y="0.5" width="23" height="23" rx="11.5" stroke=""/>
<rect width="24" height="24" rx="12" fill=""/>
<path opacity="0.8" d="M19.3437 9.92149C19.0663 9.72388 18.6895 9.90353 18.3859 10.0569C17.5867 10.46 16.706 10.6576 15.8227 10.7667C15.0419 10.8631 14.3628 10.6453 13.5789 10.651C12.9826 10.6554 12.3867 10.6593 11.7904 10.6637C10.9645 10.6694 11.0635 6.99376 11.0464 6.37815C11.042 6.37728 11.0381 6.37684 11.0337 6.37596C11.1196 6.1547 11.1669 5.91459 11.1669 5.66309C11.1669 4.57428 10.284 3.69141 9.19521 3.69141C8.39383 3.69141 7.75238 4.16417 7.39747 4.85733C7.05002 5.53603 6.36869 5.86683 5.64574 6.15119C5.37452 6.25766 5.09192 6.34836 4.854 6.51661C4.61564 6.68486 4.42373 6.95126 4.43293 7.24219C4.43425 7.28601 4.44082 7.33157 4.46667 7.36706C4.49384 7.40475 4.53853 7.42578 4.58147 7.44418C5.46873 7.82099 6.47385 7.74694 7.43472 7.66676C8.0398 7.61593 8.60195 7.63434 9.19565 7.63434C9.35294 7.63434 9.50542 7.6155 9.65176 7.58088C9.5764 7.80653 9.49885 8.03306 9.37836 8.23198C9.25261 8.43922 9.08129 8.61404 8.91961 8.79456C7.62794 10.2374 6.9028 12.1745 6.92953 14.1107C6.93741 14.6711 7.12187 15.2586 7.45531 15.709C7.70637 16.0482 7.95962 16.3855 8.21463 16.7212C8.40215 16.9683 8.59319 17.2167 8.83417 17.4126C9.0883 17.6189 9.38887 17.7592 9.6855 17.8976C10.2367 18.1539 10.8462 18.44 11.467 18.4431C11.9599 18.4453 12.2715 18.2569 12.6838 18.6574C12.7482 18.72 12.8069 18.7919 12.8332 18.8778C12.8573 18.9562 12.8533 19.0403 12.849 19.1222C12.7977 20.0787 12.7583 21.0361 12.7302 21.9935C12.7289 22.0456 12.7346 22.11 12.7828 22.1302C12.8091 22.1411 12.8393 22.1337 12.866 22.124C13.2499 21.9882 13.3769 21.5119 13.398 21.1053C13.4378 20.3329 13.3024 19.535 13.5395 18.7985C13.5877 18.6486 13.6534 18.4996 13.7638 18.3875C14.1586 17.9866 15.0555 17.9397 15.5519 17.5975C16.7113 16.7983 17.8969 15.9728 18.6965 14.8135C18.9542 14.4397 19.175 14.0029 19.1264 13.5516C18.9989 12.362 19.3507 11.1176 19.3441 9.92105L19.3437 9.92149Z" fill="white"/>
<path d="M13.0964 18.6687L13.0978 21.851C13.0982 21.9535 13.0575 22.0521 12.9843 22.124C12.9115 22.1958 12.8125 22.2357 12.71 22.2344H10.2038C9.99871 22.237 9.82608 22.081 9.80812 21.8764C9.80111 21.7704 9.83835 21.6665 9.91065 21.589C9.98294 21.5114 10.0846 21.4676 10.1906 21.4676H12.3306L12.3297 19.067C12.3095 19.067 12.2894 19.0679 12.2692 19.0679C11.0411 19.0679 9.87384 18.7221 8.79292 18.0373C7.38689 17.1466 6.5785 15.9732 6.39009 14.5501C6.19994 13.1134 6.64028 11.4734 7.69929 9.67606C8.03097 9.11523 8.39814 8.5763 8.79818 8.06279H4.99458C4.5056 8.06279 4.07621 7.71095 4.00786 7.22723C3.9785 7.01122 4.02276 6.79127 4.13361 6.6033C4.24402 6.41533 4.4149 6.26987 4.61821 6.19056L6.57149 5.4365C6.5728 5.39882 6.57499 5.36114 6.57806 5.32346C6.63546 4.62022 6.98467 3.97307 7.54068 3.53843C7.99811 3.18528 8.56026 2.99599 9.13731 2.99994H9.26569C9.93693 2.99994 10.581 3.26677 11.0555 3.74129C11.5305 4.21625 11.7969 4.85989 11.7969 5.53114V10.2877H16.4505L19.1605 9.092C19.2595 9.04863 19.3721 9.04863 19.4707 9.09244C19.5693 9.13626 19.6451 9.21994 19.6792 9.32247C20.251 11.051 20.0512 12.9661 19.1167 14.7152C18.0528 16.7066 16.1736 18.2402 14.0893 18.8172C13.9881 18.8453 13.8794 18.8308 13.7896 18.7765C13.6998 18.7221 13.6354 18.6336 13.6126 18.5311C13.5714 18.3282 13.6954 18.1285 13.8956 18.075C15.7771 17.5505 17.4753 16.1603 18.4402 14.3538C19.2012 12.9289 19.419 11.3888 19.0685 9.9705L16.6854 11.0216C16.6367 11.0431 16.5837 11.0545 16.5302 11.0545H11.4126C11.201 11.0545 11.0292 10.8832 11.0292 10.6711V5.53114C11.0292 5.0632 10.8435 4.61409 10.5127 4.28329C10.1819 3.95248 9.73276 3.76627 9.26481 3.76627H9.13424C8.2334 3.76627 7.4088 4.49842 7.34045 5.39707C7.31197 5.75811 7.39609 6.1187 7.58099 6.42979C7.68659 6.60242 7.64321 6.82632 7.48153 6.94769C7.39434 7.01034 7.28524 7.03357 7.18052 7.01166C7.0758 6.99019 6.98423 6.92578 6.92946 6.83377C6.81422 6.6423 6.72484 6.43636 6.66394 6.22123L4.90213 6.90168C4.82633 6.92929 4.77287 6.99808 4.76543 7.0787C4.76148 7.13478 4.7812 7.18955 4.81932 7.23073C4.85744 7.27148 4.91089 7.2947 4.96698 7.29514H9.09305L9.6035 7.29821C9.72618 7.29733 9.84229 7.35298 9.91766 7.44981C10.0298 7.59791 10.0202 7.80428 9.89443 7.94098C9.31432 8.60347 8.79774 9.31897 8.3517 10.0778C7.68878 11.2065 6.94217 12.8811 7.15029 14.4502C7.30802 15.6371 7.99855 16.6256 9.20303 17.3889C10.28 18.0711 11.4516 18.3729 12.6859 18.2853C12.7915 18.2761 12.8958 18.312 12.9738 18.3835C13.0518 18.4553 13.096 18.5561 13.096 18.6621V18.6683L13.0964 18.6687Z" class="stroke"/>
<path d="M8.88084 5.10874C9.09553 5.19768 9.19762 5.44392 9.10868 5.65862C9.01973 5.87331 8.77349 5.9754 8.55879 5.88646C8.3441 5.79751 8.24201 5.55127 8.33096 5.33614C8.4199 5.12144 8.66614 5.01935 8.88084 5.1083" class="stroke"/>
<path d="M11.7878 15.872C11.5761 15.8637 11.3982 16.0288 11.3899 16.2405C11.382 16.4521 11.5468 16.63 11.7584 16.6383C11.8828 16.6431 12.0046 16.6453 12.1229 16.6453C14.1972 16.6453 15.3263 15.9329 15.9147 15.3155C16.6131 14.5834 16.7323 13.814 16.7371 13.7816C16.7533 13.6711 16.7205 13.5594 16.6477 13.4753C16.575 13.3912 16.4694 13.3425 16.3577 13.3425H13.5728C13.3612 13.3425 13.1894 13.5143 13.1894 13.7259C13.1894 13.9375 13.3612 14.1093 13.5728 14.1093H15.8275C15.5081 14.7814 14.5494 15.9776 11.7878 15.8715V15.872Z" class="stroke"/>
</svg>
