<svg width="24" height="24" viewBox="0 0 24 24" fill="none" xmlns="http://www.w3.org/2000/svg">
<rect x="0.5" y="0.5" width="23" height="23" rx="11.5" stroke=""/>
<rect width="24" height="24" rx="12" fill=""/>
<g opacity="0.8">
<path d="M16.9393 19.2013C16.88 19.2796 16.8539 19.3781 16.8669 19.4749C16.8804 19.5722 16.9322 19.6601 17.0105 19.7191C17.0235 19.7288 17.0374 19.7376 17.0513 19.7456L15.7097 20.4814L15.4912 20.5745C15.548 20.5294 15.6032 20.481 15.6554 20.4288C16.0212 20.063 16.2275 19.5671 16.2279 19.0497L16.2376 11.6921C16.4047 12.034 16.5983 12.3619 16.8172 12.6734C17.5375 13.6968 17.9227 14.918 17.9202 16.1695C17.9202 16.2369 17.9193 16.3038 17.9181 16.3703C17.8995 17.3937 17.5569 18.3846 16.9393 19.2013Z" fill="white"/>
<path d="M17.4208 19.7413L17.4195 19.7527L15.71 20.4814L17.0516 19.7455C17.1223 19.7855 17.204 19.8011 17.2848 19.7897C17.3332 19.7826 17.3795 19.7662 17.4208 19.7413Z" fill="white"/>
</g>
<path opacity="0.8" d="M6.76559 19.4395C6.77948 19.3422 6.75422 19.2433 6.69486 19.165C6.11983 18.3871 5.78895 17.4555 5.74517 16.489L5.74264 16.4275C5.73843 16.3361 5.73633 16.2452 5.73633 16.1543C5.73633 14.9183 6.11562 13.7097 6.82578 12.6931C7.04426 12.3795 7.23917 12.0503 7.40924 11.7076L7.40798 19.0467C7.40798 19.3056 7.45933 19.5595 7.55658 19.7944C7.65382 20.0288 7.79653 20.2448 7.97965 20.4279C7.99354 20.4418 8.00785 20.4549 8.02216 20.4679L6.40524 19.7544C6.48186 19.7535 6.55721 19.7291 6.61951 19.6828C6.69865 19.6247 6.75127 19.5367 6.76559 19.4395Z" fill="white"/>
<path opacity="0.8" d="M14.941 5.44376C14.563 5.19497 14.1201 5.0611 13.6671 5.05984C12.9658 5.05984 12.3079 5.37893 11.8288 5.93418C11.3497 5.37893 10.6918 5.05984 9.99045 5.05984C9.53076 5.06152 9.08201 5.19876 8.7002 5.4547C8.85427 5.21307 9.03528 4.98996 9.23987 4.78958C9.94667 4.09667 10.9027 3.71696 11.8928 3.73591C12.8825 3.75443 13.8233 4.17034 14.5036 4.88977C14.6661 5.06026 14.8126 5.2459 14.941 5.44376Z" fill="white"/>
<path opacity="0.8" d="M15.5038 7.97416V9.15201L15.4908 19.048C15.4904 19.3705 15.362 19.6795 15.1342 19.9072C14.9061 20.135 14.5971 20.2629 14.275 20.2629H9.3607C9.03824 20.2629 8.72883 20.1345 8.50109 19.9064C8.27293 19.6786 8.14453 19.3692 8.14453 19.0468L8.15379 7.94679C8.16726 6.75841 8.98562 5.79651 9.99004 5.79651C10.5971 5.79651 11.1649 6.15391 11.5089 6.75294C11.5417 6.80977 11.5884 6.85608 11.644 6.88807C11.6992 6.92006 11.7627 6.93774 11.8284 6.93774C11.9601 6.93774 12.0822 6.86702 12.1479 6.75294C12.4918 6.15391 13.0597 5.79651 13.6667 5.79651C14.6787 5.79651 15.5021 6.77315 15.5038 7.97416Z" fill="white"/>
<path d="M17.4198 12.2499C16.9563 11.5894 16.6187 10.8489 16.4246 10.0655C16.2432 9.33894 16.1851 8.5871 16.2525 7.84115C16.2613 7.7439 16.2668 7.64456 16.2689 7.54647C16.2967 6.35977 15.8488 5.21138 15.0241 4.35725C14.2003 3.50311 13.0687 3.01437 11.8816 3.00006C10.6949 2.98617 9.55155 3.44755 8.7071 4.28148C7.86264 5.11583 7.38738 6.25327 7.38696 7.43997C7.38696 7.58899 7.39453 7.73969 7.40927 7.88787C7.41221 7.91608 7.41432 7.94428 7.41684 7.97249C7.41684 7.97417 7.41684 7.97543 7.41684 7.97712C7.41684 7.99859 7.41895 8.01964 7.42274 8.04068C7.53177 9.50227 7.10828 10.9992 6.22173 12.2722C5.36675 13.496 4.93989 14.9672 5.00683 16.4583L5.00977 16.5235C5.06029 17.6357 5.44126 18.7079 6.10302 19.6029C6.16069 19.6824 6.24783 19.7359 6.34465 19.7511C6.44189 19.7662 6.54082 19.7418 6.61996 19.6833C6.6991 19.6248 6.7513 19.5372 6.76561 19.44C6.77993 19.3427 6.75425 19.2438 6.69531 19.1655C6.12028 18.3876 5.7894 17.456 5.74562 16.4894L5.74309 16.428C5.68289 15.0977 6.06387 13.7852 6.82665 12.6936C7.04513 12.38 7.24004 12.0508 7.40969 11.7081L7.40842 19.0472C7.40842 19.565 7.61428 20.0622 7.98051 20.428C8.34675 20.7942 8.84349 21.0001 9.36128 21.0001H14.2756C14.793 21.0001 15.2893 20.7946 15.6555 20.4288C16.0218 20.063 16.2276 19.5671 16.2285 19.0497L16.2381 11.6921C16.4053 12.0339 16.5989 12.3619 16.8178 12.6734C17.5381 13.6968 17.9237 14.918 17.9207 16.1695C17.9207 16.2369 17.9199 16.3038 17.9186 16.3703C17.8997 17.3937 17.557 18.385 16.9399 19.2013C16.8805 19.2792 16.854 19.3777 16.8675 19.4749C16.881 19.5722 16.9323 19.6601 17.011 19.7191C17.0893 19.778 17.1883 19.8033 17.2851 19.7894C17.3823 19.7755 17.4699 19.7233 17.5284 19.6441C18.2394 18.7041 18.6339 17.5629 18.6553 16.3846C18.657 16.313 18.6574 16.2411 18.6574 16.1691C18.6604 14.766 18.2285 13.3966 17.4206 12.2495L17.4198 12.2499ZM9.23962 4.79C9.94642 4.09709 10.9024 3.71738 11.8925 3.73591C12.8822 3.75485 13.8231 4.17034 14.5034 4.88977C14.6663 5.06026 14.8128 5.2459 14.9412 5.44418C14.5627 5.19497 14.1203 5.06152 13.6673 5.06026C12.966 5.06026 12.308 5.37935 11.829 5.9346C11.3499 5.37935 10.6919 5.06026 9.99062 5.06026C9.53135 5.06194 9.08218 5.19918 8.70036 5.45512C8.85444 5.21349 9.03545 4.9908 9.24004 4.79042L9.23962 4.79ZM15.4909 19.0485C15.4905 19.3709 15.3621 19.6799 15.1344 19.9072C14.9062 20.135 14.5972 20.263 14.2752 20.263H9.36086C9.0384 20.263 8.72899 20.135 8.50125 19.9068C8.27308 19.6787 8.14511 19.3692 8.14511 19.0468L8.15395 7.94681C8.16742 6.75843 8.98578 5.79652 9.9902 5.79652C10.5972 5.79652 11.1651 6.15392 11.509 6.75295C11.5747 6.86746 11.6968 6.93776 11.8285 6.93776C11.9603 6.93776 12.0824 6.86704 12.1481 6.75295C12.492 6.15392 13.0599 5.79652 13.6669 5.79652C14.6789 5.79652 15.5023 6.77316 15.504 7.97417V9.15203L15.4909 19.0485Z" class="stroke"/>
<path d="M10.5464 7.36039C10.6524 7.61634 10.5308 7.90975 10.2748 8.01583C10.0189 8.12192 9.72547 8.00026 9.61939 7.74431C9.51331 7.48837 9.63497 7.19495 9.89091 7.08887C10.1469 6.98279 10.4403 7.10445 10.5464 7.36039Z" class="stroke"/>
<path d="M14.0754 7.55233C14.0754 7.82932 13.8506 8.05369 13.5736 8.05369C13.2966 8.05369 13.0723 7.82932 13.0723 7.55233C13.0723 7.27533 13.2966 7.05054 13.5736 7.05054C13.8506 7.05054 14.0754 7.27533 14.0754 7.55233Z" class="stroke"/>
<path d="M13.6067 9.32299L12.0159 8.21796C11.8896 8.12998 11.722 8.12998 11.5957 8.21796L10.0049 9.32299C9.92157 9.38067 9.866 9.47033 9.85085 9.57052C9.83569 9.67071 9.86221 9.77258 9.92494 9.85257L11.5158 11.8883C11.5856 11.9776 11.6926 12.0298 11.8058 12.0298C11.919 12.0298 12.0264 11.9776 12.0958 11.8883L13.6867 9.85257C13.749 9.773 13.7759 9.67071 13.7608 9.57052C13.7456 9.47033 13.69 9.38109 13.6067 9.32299ZM11.8054 11.0633L10.7446 9.70565L11.8054 8.96896L12.8662 9.70565L11.8054 11.0633Z" class="stroke"/>
</svg>
